<?xml version="1.0" encoding="utf-8" standalone="no"?>
<!DOCTYPE svg PUBLIC "-//W3C//DTD SVG 1.1//EN"
  "http://www.w3.org/Graphics/SVG/1.1/DTD/svg11.dtd">
<svg xmlns:xlink="http://www.w3.org/1999/xlink" width="1008pt" height="331.2pt" viewBox="0 0 1008 331.2" xmlns="http://www.w3.org/2000/svg" version="1.1">
 <metadata>
  <rdf:RDF xmlns:dc="http://purl.org/dc/elements/1.1/" xmlns:cc="http://creativecommons.org/ns#" xmlns:rdf="http://www.w3.org/1999/02/22-rdf-syntax-ns#">
   <cc:Work>
    <dc:type rdf:resource="http://purl.org/dc/dcmitype/StillImage"/>
    <dc:date>2026-06-16T08:21:49.263703</dc:date>
    <dc:format>image/svg+xml</dc:format>
    <dc:creator>
     <cc:Agent>
      <dc:title>Matplotlib v3.11.0, https://matplotlib.org/</dc:title>
     </cc:Agent>
    </dc:creator>
   </cc:Work>
  </rdf:RDF>
 </metadata>
 <defs>
  <style type="text/css">*{stroke-linejoin: round; stroke-linecap: butt}</style>
 </defs>
 <g id="figure_1">
  <g id="patch_1">
   <path d="M 0 331.2 
L 1008 331.2 
L 1008 0 
L 0 0 
z
" style="fill: #ffffff"/>
  </g>
  <g id="axes_1">
   <g id="table_1">
    <g id="patch_2">
     <path d="M 14.04 129.755046 
L 308.016 129.755046 
L 308.016 105.072569 
L 14.04 105.072569 
z
" style="fill: #222222; stroke: #000000; stroke-linejoin: miter"/>
    </g>
    <g id="text_1">
     <!-- Idea tried -->
     <g style="fill: #ffffff" transform="translate(43.4376 120.519276) scale(0.12 -0.12)">
      <defs>
       <path id="Arial-BoldMT-2c" d="M 438 0 
L 438 4581 
L 1363 4581 
L 1363 0 
L 438 0 
z
" transform="scale(0.015625)"/>
       <path id="Arial-BoldMT-47" d="M 3503 0 
L 2688 0 
L 2688 488 
Q 2484 203 2207 64 
Q 1931 -75 1650 -75 
Q 1078 -75 670 386 
Q 263 847 263 1672 
Q 263 2516 659 2955 
Q 1056 3394 1663 3394 
Q 2219 3394 2625 2931 
L 2625 4581 
L 3503 4581 
L 3503 0 
z
M 1159 1731 
Q 1159 1200 1306 963 
Q 1519 619 1900 619 
Q 2203 619 2415 876 
Q 2628 1134 2628 1647 
Q 2628 2219 2422 2470 
Q 2216 2722 1894 2722 
Q 1581 2722 1370 2473 
Q 1159 2225 1159 1731 
z
" transform="scale(0.015625)"/>
       <path id="Arial-BoldMT-48" d="M 2381 1056 
L 3256 909 
Q 3088 428 2723 176 
Q 2359 -75 1813 -75 
Q 947 -75 531 491 
Q 203 944 203 1634 
Q 203 2459 634 2926 
Q 1066 3394 1725 3394 
Q 2466 3394 2894 2905 
Q 3322 2416 3303 1406 
L 1103 1406 
Q 1113 1016 1316 798 
Q 1519 581 1822 581 
Q 2028 581 2168 693 
Q 2309 806 2381 1056 
z
M 2431 1944 
Q 2422 2325 2234 2523 
Q 2047 2722 1778 2722 
Q 1491 2722 1303 2513 
Q 1116 2303 1119 1944 
L 2431 1944 
z
" transform="scale(0.015625)"/>
       <path id="Arial-BoldMT-44" d="M 1116 2306 
L 319 2450 
Q 453 2931 781 3162 
Q 1109 3394 1756 3394 
Q 2344 3394 2631 3255 
Q 2919 3116 3036 2902 
Q 3153 2688 3153 2116 
L 3144 1091 
Q 3144 653 3186 445 
Q 3228 238 3344 0 
L 2475 0 
Q 2441 88 2391 259 
Q 2369 338 2359 363 
Q 2134 144 1878 34 
Q 1622 -75 1331 -75 
Q 819 -75 523 203 
Q 228 481 228 906 
Q 228 1188 362 1408 
Q 497 1628 739 1745 
Q 981 1863 1438 1950 
Q 2053 2066 2291 2166 
L 2291 2253 
Q 2291 2506 2166 2614 
Q 2041 2722 1694 2722 
Q 1459 2722 1328 2630 
Q 1197 2538 1116 2306 
z
M 2291 1594 
Q 2122 1538 1756 1459 
Q 1391 1381 1278 1306 
Q 1106 1184 1106 997 
Q 1106 813 1243 678 
Q 1381 544 1594 544 
Q 1831 544 2047 700 
Q 2206 819 2256 991 
Q 2291 1103 2291 1419 
L 2291 1594 
z
" transform="scale(0.015625)"/>
       <path id="Arial-BoldMT-3" transform="scale(0.015625)"/>
       <path id="Arial-BoldMT-57" d="M 1981 3319 
L 1981 2619 
L 1381 2619 
L 1381 1281 
Q 1381 875 1398 808 
Q 1416 741 1477 697 
Q 1538 653 1625 653 
Q 1747 653 1978 738 
L 2053 56 
Q 1747 -75 1359 -75 
Q 1122 -75 931 4 
Q 741 84 652 211 
Q 563 338 528 553 
Q 500 706 500 1172 
L 500 2619 
L 97 2619 
L 97 3319 
L 500 3319 
L 500 3978 
L 1381 4491 
L 1381 3319 
L 1981 3319 
z
" transform="scale(0.015625)"/>
       <path id="Arial-BoldMT-55" d="M 1300 0 
L 422 0 
L 422 3319 
L 1238 3319 
L 1238 2847 
Q 1447 3181 1614 3287 
Q 1781 3394 1994 3394 
Q 2294 3394 2572 3228 
L 2300 2463 
Q 2078 2606 1888 2606 
Q 1703 2606 1575 2504 
Q 1447 2403 1373 2137 
Q 1300 1872 1300 1025 
L 1300 0 
z
" transform="scale(0.015625)"/>
       <path id="Arial-BoldMT-4c" d="M 459 3769 
L 459 4581 
L 1338 4581 
L 1338 3769 
L 459 3769 
z
M 459 0 
L 459 3319 
L 1338 3319 
L 1338 0 
L 459 0 
z
" transform="scale(0.015625)"/>
      </defs>
      <use xlink:href="#Arial-BoldMT-2c"/>
      <use xlink:href="#Arial-BoldMT-47" transform="translate(27.78125 0)"/>
      <use xlink:href="#Arial-BoldMT-48" transform="translate(88.859375 0)"/>
      <use xlink:href="#Arial-BoldMT-44" transform="translate(144.46875 0)"/>
      <use xlink:href="#Arial-BoldMT-3" transform="translate(200.078125 0)"/>
      <use xlink:href="#Arial-BoldMT-57" transform="translate(227.859375 0)"/>
      <use xlink:href="#Arial-BoldMT-55" transform="translate(261.15625 0)"/>
      <use xlink:href="#Arial-BoldMT-4c" transform="translate(300.078125 0)"/>
      <use xlink:href="#Arial-BoldMT-48" transform="translate(327.859375 0)"/>
      <use xlink:href="#Arial-BoldMT-47" transform="translate(383.46875 0)"/>
     </g>
    </g>
    <g id="patch_3">
     <path d="M 308.016 129.755046 
L 464.8032 129.755046 
L 464.8032 105.072569 
L 308.016 105.072569 
z
" style="fill: #222222; stroke: #000000; stroke-linejoin: miter"/>
    </g>
    <g id="text_2">
     <!-- Its pAUC -->
     <g style="fill: #ffffff" transform="translate(323.69472 120.519276) scale(0.12 -0.12)">
      <defs>
       <path id="Arial-BoldMT-56" d="M 150 947 
L 1031 1081 
Q 1088 825 1259 692 
Q 1431 559 1741 559 
Q 2081 559 2253 684 
Q 2369 772 2369 919 
Q 2369 1019 2306 1084 
Q 2241 1147 2013 1200 
Q 950 1434 666 1628 
Q 272 1897 272 2375 
Q 272 2806 612 3100 
Q 953 3394 1669 3394 
Q 2350 3394 2681 3172 
Q 3013 2950 3138 2516 
L 2309 2363 
Q 2256 2556 2107 2659 
Q 1959 2763 1684 2763 
Q 1338 2763 1188 2666 
Q 1088 2597 1088 2488 
Q 1088 2394 1175 2328 
Q 1294 2241 1995 2081 
Q 2697 1922 2975 1691 
Q 3250 1456 3250 1038 
Q 3250 581 2869 253 
Q 2488 -75 1741 -75 
Q 1063 -75 667 200 
Q 272 475 150 947 
z
" transform="scale(0.015625)"/>
       <path id="Arial-BoldMT-53" d="M 434 3319 
L 1253 3319 
L 1253 2831 
Q 1413 3081 1684 3237 
Q 1956 3394 2288 3394 
Q 2866 3394 3269 2941 
Q 3672 2488 3672 1678 
Q 3672 847 3265 386 
Q 2859 -75 2281 -75 
Q 2006 -75 1782 34 
Q 1559 144 1313 409 
L 1313 -1263 
L 434 -1263 
L 434 3319 
z
M 1303 1716 
Q 1303 1156 1525 889 
Q 1747 622 2066 622 
Q 2372 622 2575 867 
Q 2778 1113 2778 1672 
Q 2778 2194 2568 2447 
Q 2359 2700 2050 2700 
Q 1728 2700 1515 2451 
Q 1303 2203 1303 1716 
z
" transform="scale(0.015625)"/>
       <path id="Arial-BoldMT-24" d="M 4597 0 
L 3591 0 
L 3191 1041 
L 1359 1041 
L 981 0 
L 0 0 
L 1784 4581 
L 2763 4581 
L 4597 0 
z
M 2894 1813 
L 2263 3513 
L 1644 1813 
L 2894 1813 
z
" transform="scale(0.015625)"/>
       <path id="Arial-BoldMT-38" d="M 459 4581 
L 1384 4581 
L 1384 2100 
Q 1384 1509 1419 1334 
Q 1478 1053 1701 883 
Q 1925 713 2313 713 
Q 2706 713 2906 873 
Q 3106 1034 3147 1268 
Q 3188 1503 3188 2047 
L 3188 4581 
L 4113 4581 
L 4113 2175 
Q 4113 1350 4038 1009 
Q 3963 669 3761 434 
Q 3559 200 3221 61 
Q 2884 -78 2341 -78 
Q 1684 -78 1345 73 
Q 1006 225 809 467 
Q 613 709 550 975 
Q 459 1369 459 2138 
L 459 4581 
z
" transform="scale(0.015625)"/>
       <path id="Arial-BoldMT-26" d="M 3397 1684 
L 4294 1400 
Q 4088 650 3608 286 
Q 3128 -78 2391 -78 
Q 1478 -78 890 545 
Q 303 1169 303 2250 
Q 303 3394 893 4026 
Q 1484 4659 2447 4659 
Q 3288 4659 3813 4163 
Q 4125 3869 4281 3319 
L 3366 3100 
Q 3284 3456 3026 3662 
Q 2769 3869 2400 3869 
Q 1891 3869 1573 3503 
Q 1256 3138 1256 2319 
Q 1256 1450 1568 1081 
Q 1881 713 2381 713 
Q 2750 713 3015 947 
Q 3281 1181 3397 1684 
z
" transform="scale(0.015625)"/>
      </defs>
      <use xlink:href="#Arial-BoldMT-2c"/>
      <use xlink:href="#Arial-BoldMT-57" transform="translate(27.78125 0)"/>
      <use xlink:href="#Arial-BoldMT-56" transform="translate(61.078125 0)"/>
      <use xlink:href="#Arial-BoldMT-3" transform="translate(116.6875 0)"/>
      <use xlink:href="#Arial-BoldMT-53" transform="translate(144.46875 0)"/>
      <use xlink:href="#Arial-BoldMT-24" transform="translate(205.546875 0)"/>
      <use xlink:href="#Arial-BoldMT-38" transform="translate(277.765625 0)"/>
      <use xlink:href="#Arial-BoldMT-26" transform="translate(349.984375 0)"/>
     </g>
    </g>
    <g id="patch_4">
     <path d="M 464.8032 129.755046 
L 699.984 129.755046 
L 699.984 105.072569 
L 464.8032 105.072569 
z
" style="fill: #222222; stroke: #000000; stroke-linejoin: miter"/>
    </g>
    <g id="text_3">
     <!-- Beaten by -->
     <g style="fill: #ffffff" transform="translate(488.32128 120.519159) scale(0.12 -0.12)">
      <defs>
       <path id="Arial-BoldMT-25" d="M 469 4581 
L 2300 4581 
Q 2844 4581 3111 4536 
Q 3378 4491 3589 4347 
Q 3800 4203 3940 3964 
Q 4081 3725 4081 3428 
Q 4081 3106 3907 2837 
Q 3734 2569 3438 2434 
Q 3856 2313 4081 2019 
Q 4306 1725 4306 1328 
Q 4306 1016 4161 720 
Q 4016 425 3764 248 
Q 3513 72 3144 31 
Q 2913 6 2028 0 
L 469 0 
L 469 4581 
z
M 1394 3819 
L 1394 2759 
L 2000 2759 
Q 2541 2759 2672 2775 
Q 2909 2803 3045 2939 
Q 3181 3075 3181 3297 
Q 3181 3509 3064 3642 
Q 2947 3775 2716 3803 
Q 2578 3819 1925 3819 
L 1394 3819 
z
M 1394 1997 
L 1394 772 
L 2250 772 
Q 2750 772 2884 800 
Q 3091 838 3220 983 
Q 3350 1128 3350 1372 
Q 3350 1578 3250 1722 
Q 3150 1866 2961 1931 
Q 2772 1997 2141 1997 
L 1394 1997 
z
" transform="scale(0.015625)"/>
       <path id="Arial-BoldMT-51" d="M 3478 0 
L 2600 0 
L 2600 1694 
Q 2600 2231 2544 2389 
Q 2488 2547 2361 2634 
Q 2234 2722 2056 2722 
Q 1828 2722 1647 2597 
Q 1466 2472 1398 2265 
Q 1331 2059 1331 1503 
L 1331 0 
L 453 0 
L 453 3319 
L 1269 3319 
L 1269 2831 
Q 1703 3394 2363 3394 
Q 2653 3394 2893 3289 
Q 3134 3184 3257 3021 
Q 3381 2859 3429 2653 
Q 3478 2447 3478 2063 
L 3478 0 
z
" transform="scale(0.015625)"/>
       <path id="Arial-BoldMT-45" d="M 422 0 
L 422 4581 
L 1300 4581 
L 1300 2931 
Q 1706 3394 2263 3394 
Q 2869 3394 3266 2955 
Q 3663 2516 3663 1694 
Q 3663 844 3258 384 
Q 2853 -75 2275 -75 
Q 1991 -75 1714 67 
Q 1438 209 1238 488 
L 1238 0 
L 422 0 
z
M 1294 1731 
Q 1294 1216 1456 969 
Q 1684 619 2063 619 
Q 2353 619 2558 867 
Q 2763 1116 2763 1650 
Q 2763 2219 2556 2470 
Q 2350 2722 2028 2722 
Q 1713 2722 1503 2476 
Q 1294 2231 1294 1731 
z
" transform="scale(0.015625)"/>
       <path id="Arial-BoldMT-5c" d="M 44 3319 
L 978 3319 
L 1772 963 
L 2547 3319 
L 3456 3319 
L 2284 125 
L 2075 -453 
Q 1959 -744 1854 -897 
Q 1750 -1050 1614 -1145 
Q 1478 -1241 1279 -1294 
Q 1081 -1347 831 -1347 
Q 578 -1347 334 -1294 
L 256 -606 
Q 463 -647 628 -647 
Q 934 -647 1081 -467 
Q 1228 -288 1306 -9 
L 44 3319 
z
" transform="scale(0.015625)"/>
      </defs>
      <use xlink:href="#Arial-BoldMT-25"/>
      <use xlink:href="#Arial-BoldMT-48" transform="translate(72.21875 0)"/>
      <use xlink:href="#Arial-BoldMT-44" transform="translate(127.828125 0)"/>
      <use xlink:href="#Arial-BoldMT-57" transform="translate(183.4375 0)"/>
      <use xlink:href="#Arial-BoldMT-48" transform="translate(216.734375 0)"/>
      <use xlink:href="#Arial-BoldMT-51" transform="translate(272.34375 0)"/>
      <use xlink:href="#Arial-BoldMT-3" transform="translate(333.421875 0)"/>
      <use xlink:href="#Arial-BoldMT-45" transform="translate(361.203125 0)"/>
      <use xlink:href="#Arial-BoldMT-5c" transform="translate(422.28125 0)"/>
     </g>
    </g>
    <g id="patch_5">
     <path d="M 699.984 129.755046 
L 993.96 129.755046 
L 993.96 105.072569 
L 699.984 105.072569 
z
" style="fill: #222222; stroke: #000000; stroke-linejoin: miter"/>
    </g>
    <g id="text_4">
     <!-- Honest finding -->
     <g style="fill: #ffffff" transform="translate(729.3816 120.519159) scale(0.12 -0.12)">
      <defs>
       <path id="Arial-BoldMT-2b" d="M 469 0 
L 469 4581 
L 1394 4581 
L 1394 2778 
L 3206 2778 
L 3206 4581 
L 4131 4581 
L 4131 0 
L 3206 0 
L 3206 2003 
L 1394 2003 
L 1394 0 
L 469 0 
z
" transform="scale(0.015625)"/>
       <path id="Arial-BoldMT-52" d="M 256 1706 
Q 256 2144 472 2553 
Q 688 2963 1083 3178 
Q 1478 3394 1966 3394 
Q 2719 3394 3200 2905 
Q 3681 2416 3681 1669 
Q 3681 916 3195 420 
Q 2709 -75 1972 -75 
Q 1516 -75 1102 131 
Q 688 338 472 736 
Q 256 1134 256 1706 
z
M 1156 1659 
Q 1156 1166 1390 903 
Q 1625 641 1969 641 
Q 2313 641 2545 903 
Q 2778 1166 2778 1666 
Q 2778 2153 2545 2415 
Q 2313 2678 1969 2678 
Q 1625 2678 1390 2415 
Q 1156 2153 1156 1659 
z
" transform="scale(0.015625)"/>
       <path id="Arial-BoldMT-49" d="M 75 3319 
L 563 3319 
L 563 3569 
Q 563 3988 652 4194 
Q 741 4400 980 4529 
Q 1219 4659 1584 4659 
Q 1959 4659 2319 4547 
L 2200 3934 
Q 1991 3984 1797 3984 
Q 1606 3984 1523 3895 
Q 1441 3806 1441 3553 
L 1441 3319 
L 2097 3319 
L 2097 2628 
L 1441 2628 
L 1441 0 
L 563 0 
L 563 2628 
L 75 2628 
L 75 3319 
z
" transform="scale(0.015625)"/>
       <path id="Arial-BoldMT-4a" d="M 378 -219 
L 1381 -341 
Q 1406 -516 1497 -581 
Q 1622 -675 1891 -675 
Q 2234 -675 2406 -572 
Q 2522 -503 2581 -350 
Q 2622 -241 2622 53 
L 2622 538 
Q 2228 0 1628 0 
Q 959 0 569 566 
Q 263 1013 263 1678 
Q 263 2513 664 2953 
Q 1066 3394 1663 3394 
Q 2278 3394 2678 2853 
L 2678 3319 
L 3500 3319 
L 3500 341 
Q 3500 -247 3403 -537 
Q 3306 -828 3131 -993 
Q 2956 -1159 2664 -1253 
Q 2372 -1347 1925 -1347 
Q 1081 -1347 728 -1058 
Q 375 -769 375 -325 
Q 375 -281 378 -219 
z
M 1163 1728 
Q 1163 1200 1367 954 
Q 1572 709 1872 709 
Q 2194 709 2416 961 
Q 2638 1213 2638 1706 
Q 2638 2222 2425 2472 
Q 2213 2722 1888 2722 
Q 1572 2722 1367 2476 
Q 1163 2231 1163 1728 
z
" transform="scale(0.015625)"/>
      </defs>
      <use xlink:href="#Arial-BoldMT-2b"/>
      <use xlink:href="#Arial-BoldMT-52" transform="translate(72.21875 0)"/>
      <use xlink:href="#Arial-BoldMT-51" transform="translate(133.296875 0)"/>
      <use xlink:href="#Arial-BoldMT-48" transform="translate(194.375 0)"/>
      <use xlink:href="#Arial-BoldMT-56" transform="translate(249.984375 0)"/>
      <use xlink:href="#Arial-BoldMT-57" transform="translate(305.59375 0)"/>
      <use xlink:href="#Arial-BoldMT-3" transform="translate(338.890625 0)"/>
      <use xlink:href="#Arial-BoldMT-49" transform="translate(366.671875 0)"/>
      <use xlink:href="#Arial-BoldMT-4c" transform="translate(399.96875 0)"/>
      <use xlink:href="#Arial-BoldMT-51" transform="translate(427.75 0)"/>
      <use xlink:href="#Arial-BoldMT-47" transform="translate(488.828125 0)"/>
      <use xlink:href="#Arial-BoldMT-4c" transform="translate(549.90625 0)"/>
      <use xlink:href="#Arial-BoldMT-51" transform="translate(577.6875 0)"/>
      <use xlink:href="#Arial-BoldMT-4a" transform="translate(638.765625 0)"/>
     </g>
    </g>
    <g id="patch_6">
     <path d="M 14.04 154.437523 
L 308.016 154.437523 
L 308.016 129.755046 
L 14.04 129.755046 
z
" style="fill: #f6d6c6; stroke: #000000; stroke-linejoin: miter"/>
    </g>
    <g id="text_5">
     <!-- Learned per-lesion gate (MoE) -->
     <g transform="translate(43.4376 145.201636) scale(0.12 -0.12)">
      <defs>
       <path id="ArialMT-2f" d="M 469 0 
L 469 4581 
L 1075 4581 
L 1075 541 
L 3331 541 
L 3331 0 
L 469 0 
z
" transform="scale(0.015625)"/>
       <path id="ArialMT-48" d="M 2694 1069 
L 3275 997 
Q 3138 488 2766 206 
Q 2394 -75 1816 -75 
Q 1088 -75 661 373 
Q 234 822 234 1631 
Q 234 2469 665 2931 
Q 1097 3394 1784 3394 
Q 2450 3394 2872 2941 
Q 3294 2488 3294 1666 
Q 3294 1616 3291 1516 
L 816 1516 
Q 847 969 1125 678 
Q 1403 388 1819 388 
Q 2128 388 2347 550 
Q 2566 713 2694 1069 
z
M 847 1978 
L 2700 1978 
Q 2663 2397 2488 2606 
Q 2219 2931 1791 2931 
Q 1403 2931 1139 2672 
Q 875 2413 847 1978 
z
" transform="scale(0.015625)"/>
       <path id="ArialMT-44" d="M 2588 409 
Q 2275 144 1986 34 
Q 1697 -75 1366 -75 
Q 819 -75 525 192 
Q 231 459 231 875 
Q 231 1119 342 1320 
Q 453 1522 633 1644 
Q 813 1766 1038 1828 
Q 1203 1872 1538 1913 
Q 2219 1994 2541 2106 
Q 2544 2222 2544 2253 
Q 2544 2597 2384 2738 
Q 2169 2928 1744 2928 
Q 1347 2928 1158 2789 
Q 969 2650 878 2297 
L 328 2372 
Q 403 2725 575 2942 
Q 747 3159 1072 3276 
Q 1397 3394 1825 3394 
Q 2250 3394 2515 3294 
Q 2781 3194 2906 3042 
Q 3031 2891 3081 2659 
Q 3109 2516 3109 2141 
L 3109 1391 
Q 3109 606 3145 398 
Q 3181 191 3288 0 
L 2700 0 
Q 2613 175 2588 409 
z
M 2541 1666 
Q 2234 1541 1622 1453 
Q 1275 1403 1131 1340 
Q 988 1278 909 1158 
Q 831 1038 831 891 
Q 831 666 1001 516 
Q 1172 366 1500 366 
Q 1825 366 2078 508 
Q 2331 650 2450 897 
Q 2541 1088 2541 1459 
L 2541 1666 
z
" transform="scale(0.015625)"/>
       <path id="ArialMT-55" d="M 416 0 
L 416 3319 
L 922 3319 
L 922 2816 
Q 1116 3169 1280 3281 
Q 1444 3394 1641 3394 
Q 1925 3394 2219 3213 
L 2025 2691 
Q 1819 2813 1613 2813 
Q 1428 2813 1281 2702 
Q 1134 2591 1072 2394 
Q 978 2094 978 1738 
L 978 0 
L 416 0 
z
" transform="scale(0.015625)"/>
       <path id="ArialMT-51" d="M 422 0 
L 422 3319 
L 928 3319 
L 928 2847 
Q 1294 3394 1984 3394 
Q 2284 3394 2536 3286 
Q 2788 3178 2913 3003 
Q 3038 2828 3088 2588 
Q 3119 2431 3119 2041 
L 3119 0 
L 2556 0 
L 2556 2019 
Q 2556 2363 2490 2533 
Q 2425 2703 2258 2804 
Q 2091 2906 1866 2906 
Q 1506 2906 1245 2678 
Q 984 2450 984 1813 
L 984 0 
L 422 0 
z
" transform="scale(0.015625)"/>
       <path id="ArialMT-47" d="M 2575 0 
L 2575 419 
Q 2259 -75 1647 -75 
Q 1250 -75 917 144 
Q 584 363 401 755 
Q 219 1147 219 1656 
Q 219 2153 384 2558 
Q 550 2963 881 3178 
Q 1213 3394 1622 3394 
Q 1922 3394 2156 3267 
Q 2391 3141 2538 2938 
L 2538 4581 
L 3097 4581 
L 3097 0 
L 2575 0 
z
M 797 1656 
Q 797 1019 1065 703 
Q 1334 388 1700 388 
Q 2069 388 2326 689 
Q 2584 991 2584 1609 
Q 2584 2291 2321 2609 
Q 2059 2928 1675 2928 
Q 1300 2928 1048 2622 
Q 797 2316 797 1656 
z
" transform="scale(0.015625)"/>
       <path id="ArialMT-3" transform="scale(0.015625)"/>
       <path id="ArialMT-53" d="M 422 -1272 
L 422 3319 
L 934 3319 
L 934 2888 
Q 1116 3141 1344 3267 
Q 1572 3394 1897 3394 
Q 2322 3394 2647 3175 
Q 2972 2956 3137 2557 
Q 3303 2159 3303 1684 
Q 3303 1175 3120 767 
Q 2938 359 2589 142 
Q 2241 -75 1856 -75 
Q 1575 -75 1351 44 
Q 1128 163 984 344 
L 984 -1272 
L 422 -1272 
z
M 931 1641 
Q 931 1000 1190 694 
Q 1450 388 1819 388 
Q 2194 388 2461 705 
Q 2728 1022 2728 1688 
Q 2728 2322 2467 2637 
Q 2206 2953 1844 2953 
Q 1484 2953 1207 2617 
Q 931 2281 931 1641 
z
" transform="scale(0.015625)"/>
       <path id="ArialMT-10" d="M 203 1375 
L 203 1941 
L 1931 1941 
L 1931 1375 
L 203 1375 
z
" transform="scale(0.015625)"/>
       <path id="ArialMT-4f" d="M 409 0 
L 409 4581 
L 972 4581 
L 972 0 
L 409 0 
z
" transform="scale(0.015625)"/>
       <path id="ArialMT-56" d="M 197 991 
L 753 1078 
Q 800 744 1014 566 
Q 1228 388 1613 388 
Q 2000 388 2187 545 
Q 2375 703 2375 916 
Q 2375 1106 2209 1216 
Q 2094 1291 1634 1406 
Q 1016 1563 777 1677 
Q 538 1791 414 1992 
Q 291 2194 291 2438 
Q 291 2659 392 2848 
Q 494 3038 669 3163 
Q 800 3259 1026 3326 
Q 1253 3394 1513 3394 
Q 1903 3394 2198 3281 
Q 2494 3169 2634 2976 
Q 2775 2784 2828 2463 
L 2278 2388 
Q 2241 2644 2061 2787 
Q 1881 2931 1553 2931 
Q 1166 2931 1000 2803 
Q 834 2675 834 2503 
Q 834 2394 903 2306 
Q 972 2216 1119 2156 
Q 1203 2125 1616 2013 
Q 2213 1853 2448 1751 
Q 2684 1650 2818 1456 
Q 2953 1263 2953 975 
Q 2953 694 2789 445 
Q 2625 197 2315 61 
Q 2006 -75 1616 -75 
Q 969 -75 630 194 
Q 291 463 197 991 
z
" transform="scale(0.015625)"/>
       <path id="ArialMT-4c" d="M 425 3934 
L 425 4581 
L 988 4581 
L 988 3934 
L 425 3934 
z
M 425 0 
L 425 3319 
L 988 3319 
L 988 0 
L 425 0 
z
" transform="scale(0.015625)"/>
       <path id="ArialMT-52" d="M 213 1659 
Q 213 2581 725 3025 
Q 1153 3394 1769 3394 
Q 2453 3394 2887 2945 
Q 3322 2497 3322 1706 
Q 3322 1066 3130 698 
Q 2938 331 2570 128 
Q 2203 -75 1769 -75 
Q 1072 -75 642 372 
Q 213 819 213 1659 
z
M 791 1659 
Q 791 1022 1069 705 
Q 1347 388 1769 388 
Q 2188 388 2466 706 
Q 2744 1025 2744 1678 
Q 2744 2294 2464 2611 
Q 2184 2928 1769 2928 
Q 1347 2928 1069 2612 
Q 791 2297 791 1659 
z
" transform="scale(0.015625)"/>
       <path id="ArialMT-4a" d="M 319 -275 
L 866 -356 
Q 900 -609 1056 -725 
Q 1266 -881 1628 -881 
Q 2019 -881 2231 -725 
Q 2444 -569 2519 -288 
Q 2563 -116 2559 434 
Q 2191 0 1641 0 
Q 956 0 581 494 
Q 206 988 206 1678 
Q 206 2153 378 2554 
Q 550 2956 876 3175 
Q 1203 3394 1644 3394 
Q 2231 3394 2613 2919 
L 2613 3319 
L 3131 3319 
L 3131 450 
Q 3131 -325 2973 -648 
Q 2816 -972 2473 -1159 
Q 2131 -1347 1631 -1347 
Q 1038 -1347 672 -1080 
Q 306 -813 319 -275 
z
M 784 1719 
Q 784 1066 1043 766 
Q 1303 466 1694 466 
Q 2081 466 2343 764 
Q 2606 1063 2606 1700 
Q 2606 2309 2336 2618 
Q 2066 2928 1684 2928 
Q 1309 2928 1046 2623 
Q 784 2319 784 1719 
z
" transform="scale(0.015625)"/>
       <path id="ArialMT-57" d="M 1650 503 
L 1731 6 
Q 1494 -44 1306 -44 
Q 1000 -44 831 53 
Q 663 150 594 308 
Q 525 466 525 972 
L 525 2881 
L 113 2881 
L 113 3319 
L 525 3319 
L 525 4141 
L 1084 4478 
L 1084 3319 
L 1650 3319 
L 1650 2881 
L 1084 2881 
L 1084 941 
Q 1084 700 1114 631 
Q 1144 563 1211 522 
Q 1278 481 1403 481 
Q 1497 481 1650 503 
z
" transform="scale(0.015625)"/>
       <path id="ArialMT-b" d="M 1497 -1347 
Q 1031 -759 709 28 
Q 388 816 388 1659 
Q 388 2403 628 3084 
Q 909 3875 1497 4659 
L 1900 4659 
Q 1522 4009 1400 3731 
Q 1209 3300 1100 2831 
Q 966 2247 966 1656 
Q 966 153 1900 -1347 
L 1497 -1347 
z
" transform="scale(0.015625)"/>
       <path id="ArialMT-30" d="M 475 0 
L 475 4581 
L 1388 4581 
L 2472 1338 
Q 2622 884 2691 659 
Q 2769 909 2934 1394 
L 4031 4581 
L 4847 4581 
L 4847 0 
L 4263 0 
L 4263 3834 
L 2931 0 
L 2384 0 
L 1059 3900 
L 1059 0 
L 475 0 
z
" transform="scale(0.015625)"/>
       <path id="ArialMT-28" d="M 506 0 
L 506 4581 
L 3819 4581 
L 3819 4041 
L 1113 4041 
L 1113 2638 
L 3647 2638 
L 3647 2100 
L 1113 2100 
L 1113 541 
L 3925 541 
L 3925 0 
L 506 0 
z
" transform="scale(0.015625)"/>
       <path id="ArialMT-c" d="M 791 -1347 
L 388 -1347 
Q 1322 153 1322 1656 
Q 1322 2244 1188 2822 
Q 1081 3291 891 3722 
Q 769 4003 388 4659 
L 791 4659 
Q 1378 3875 1659 3084 
Q 1900 2403 1900 1659 
Q 1900 816 1576 28 
Q 1253 -759 791 -1347 
z
" transform="scale(0.015625)"/>
      </defs>
      <use xlink:href="#ArialMT-2f"/>
      <use xlink:href="#ArialMT-48" transform="translate(55.609375 0)"/>
      <use xlink:href="#ArialMT-44" transform="translate(111.21875 0)"/>
      <use xlink:href="#ArialMT-55" transform="translate(166.828125 0)"/>
      <use xlink:href="#ArialMT-51" transform="translate(200.125 0)"/>
      <use xlink:href="#ArialMT-48" transform="translate(255.734375 0)"/>
      <use xlink:href="#ArialMT-47" transform="translate(311.34375 0)"/>
      <use xlink:href="#ArialMT-3" transform="translate(366.953125 0)"/>
      <use xlink:href="#ArialMT-53" transform="translate(394.734375 0)"/>
      <use xlink:href="#ArialMT-48" transform="translate(450.34375 0)"/>
      <use xlink:href="#ArialMT-55" transform="translate(505.953125 0)"/>
      <use xlink:href="#ArialMT-10" transform="translate(539.25 0)"/>
      <use xlink:href="#ArialMT-4f" transform="translate(572.546875 0)"/>
      <use xlink:href="#ArialMT-48" transform="translate(594.765625 0)"/>
      <use xlink:href="#ArialMT-56" transform="translate(650.375 0)"/>
      <use xlink:href="#ArialMT-4c" transform="translate(700.375 0)"/>
      <use xlink:href="#ArialMT-52" transform="translate(722.59375 0)"/>
      <use xlink:href="#ArialMT-51" transform="translate(778.203125 0)"/>
      <use xlink:href="#ArialMT-3" transform="translate(833.8125 0)"/>
      <use xlink:href="#ArialMT-4a" transform="translate(861.59375 0)"/>
      <use xlink:href="#ArialMT-44" transform="translate(917.203125 0)"/>
      <use xlink:href="#ArialMT-57" transform="translate(972.8125 0)"/>
      <use xlink:href="#ArialMT-48" transform="translate(1000.59375 0)"/>
      <use xlink:href="#ArialMT-3" transform="translate(1056.203125 0)"/>
      <use xlink:href="#ArialMT-b" transform="translate(1083.984375 0)"/>
      <use xlink:href="#ArialMT-30" transform="translate(1117.28125 0)"/>
      <use xlink:href="#ArialMT-52" transform="translate(1200.578125 0)"/>
      <use xlink:href="#ArialMT-28" transform="translate(1256.1875 0)"/>
      <use xlink:href="#ArialMT-c" transform="translate(1322.890625 0)"/>
     </g>
    </g>
    <g id="patch_7">
     <path d="M 308.016 154.437523 
L 464.8032 154.437523 
L 464.8032 129.755046 
L 308.016 129.755046 
z
" style="fill: #f6d6c6; stroke: #000000; stroke-linejoin: miter"/>
    </g>
    <g id="text_6">
     <!-- 0.15007 -->
     <g transform="translate(323.69472 145.201753) scale(0.12 -0.12)">
      <defs>
       <path id="ArialMT-13" d="M 266 2259 
Q 266 3072 433 3567 
Q 600 4063 929 4331 
Q 1259 4600 1759 4600 
Q 2128 4600 2406 4451 
Q 2684 4303 2865 4023 
Q 3047 3744 3150 3342 
Q 3253 2941 3253 2259 
Q 3253 1453 3087 958 
Q 2922 463 2592 192 
Q 2263 -78 1759 -78 
Q 1097 -78 719 397 
Q 266 969 266 2259 
z
M 844 2259 
Q 844 1131 1108 757 
Q 1372 384 1759 384 
Q 2147 384 2411 759 
Q 2675 1134 2675 2259 
Q 2675 3391 2411 3762 
Q 2147 4134 1753 4134 
Q 1366 4134 1134 3806 
Q 844 3388 844 2259 
z
" transform="scale(0.015625)"/>
       <path id="ArialMT-11" d="M 581 0 
L 581 641 
L 1222 641 
L 1222 0 
L 581 0 
z
" transform="scale(0.015625)"/>
       <path id="ArialMT-14" d="M 2384 0 
L 1822 0 
L 1822 3584 
Q 1619 3391 1289 3197 
Q 959 3003 697 2906 
L 697 3450 
Q 1169 3672 1522 3987 
Q 1875 4303 2022 4600 
L 2384 4600 
L 2384 0 
z
" transform="scale(0.015625)"/>
       <path id="ArialMT-18" d="M 266 1200 
L 856 1250 
Q 922 819 1161 601 
Q 1400 384 1738 384 
Q 2144 384 2425 690 
Q 2706 997 2706 1503 
Q 2706 1984 2436 2262 
Q 2166 2541 1728 2541 
Q 1456 2541 1237 2417 
Q 1019 2294 894 2097 
L 366 2166 
L 809 4519 
L 3088 4519 
L 3088 3981 
L 1259 3981 
L 1013 2750 
Q 1425 3038 1878 3038 
Q 2478 3038 2890 2622 
Q 3303 2206 3303 1553 
Q 3303 931 2941 478 
Q 2500 -78 1738 -78 
Q 1113 -78 717 272 
Q 322 622 266 1200 
z
" transform="scale(0.015625)"/>
       <path id="ArialMT-1a" d="M 303 3981 
L 303 4522 
L 3269 4522 
L 3269 4084 
Q 2831 3619 2401 2847 
Q 1972 2075 1738 1259 
Q 1569 684 1522 0 
L 944 0 
Q 953 541 1156 1306 
Q 1359 2072 1739 2783 
Q 2119 3494 2547 3981 
L 303 3981 
z
" transform="scale(0.015625)"/>
      </defs>
      <use xlink:href="#ArialMT-13"/>
      <use xlink:href="#ArialMT-11" transform="translate(55.609375 0)"/>
      <use xlink:href="#ArialMT-14" transform="translate(83.390625 0)"/>
      <use xlink:href="#ArialMT-18" transform="translate(139 0)"/>
      <use xlink:href="#ArialMT-13" transform="translate(194.609375 0)"/>
      <use xlink:href="#ArialMT-13" transform="translate(250.21875 0)"/>
      <use xlink:href="#ArialMT-1a" transform="translate(305.828125 0)"/>
     </g>
    </g>
    <g id="patch_8">
     <path d="M 464.8032 154.437523 
L 699.984 154.437523 
L 699.984 129.755046 
L 464.8032 129.755046 
z
" style="fill: #f6d6c6; stroke: #000000; stroke-linejoin: miter"/>
    </g>
    <g id="text_7">
     <!-- 0.16890 (tabular) -->
     <g transform="translate(488.32128 145.201636) scale(0.12 -0.12)">
      <defs>
       <path id="ArialMT-19" d="M 3184 3459 
L 2625 3416 
Q 2550 3747 2413 3897 
Q 2184 4138 1850 4138 
Q 1581 4138 1378 3988 
Q 1113 3794 959 3422 
Q 806 3050 800 2363 
Q 1003 2672 1297 2822 
Q 1591 2972 1913 2972 
Q 2475 2972 2870 2558 
Q 3266 2144 3266 1488 
Q 3266 1056 3080 686 
Q 2894 316 2569 119 
Q 2244 -78 1831 -78 
Q 1128 -78 684 439 
Q 241 956 241 2144 
Q 241 3472 731 4075 
Q 1159 4600 1884 4600 
Q 2425 4600 2770 4297 
Q 3116 3994 3184 3459 
z
M 888 1484 
Q 888 1194 1011 928 
Q 1134 663 1356 523 
Q 1578 384 1822 384 
Q 2178 384 2434 671 
Q 2691 959 2691 1453 
Q 2691 1928 2437 2201 
Q 2184 2475 1800 2475 
Q 1419 2475 1153 2201 
Q 888 1928 888 1484 
z
" transform="scale(0.015625)"/>
       <path id="ArialMT-1b" d="M 1131 2484 
Q 781 2613 612 2850 
Q 444 3088 444 3419 
Q 444 3919 803 4259 
Q 1163 4600 1759 4600 
Q 2359 4600 2725 4251 
Q 3091 3903 3091 3403 
Q 3091 3084 2923 2848 
Q 2756 2613 2416 2484 
Q 2838 2347 3058 2040 
Q 3278 1734 3278 1309 
Q 3278 722 2862 322 
Q 2447 -78 1769 -78 
Q 1091 -78 675 323 
Q 259 725 259 1325 
Q 259 1772 486 2073 
Q 713 2375 1131 2484 
z
M 1019 3438 
Q 1019 3113 1228 2906 
Q 1438 2700 1772 2700 
Q 2097 2700 2305 2904 
Q 2513 3109 2513 3406 
Q 2513 3716 2298 3927 
Q 2084 4138 1766 4138 
Q 1444 4138 1231 3931 
Q 1019 3725 1019 3438 
z
M 838 1322 
Q 838 1081 952 856 
Q 1066 631 1291 507 
Q 1516 384 1775 384 
Q 2178 384 2440 643 
Q 2703 903 2703 1303 
Q 2703 1709 2433 1975 
Q 2163 2241 1756 2241 
Q 1359 2241 1098 1978 
Q 838 1716 838 1322 
z
" transform="scale(0.015625)"/>
       <path id="ArialMT-1c" d="M 350 1059 
L 891 1109 
Q 959 728 1153 556 
Q 1347 384 1650 384 
Q 1909 384 2104 503 
Q 2300 622 2425 820 
Q 2550 1019 2634 1356 
Q 2719 1694 2719 2044 
Q 2719 2081 2716 2156 
Q 2547 1888 2255 1720 
Q 1963 1553 1622 1553 
Q 1053 1553 659 1965 
Q 266 2378 266 3053 
Q 266 3750 677 4175 
Q 1088 4600 1706 4600 
Q 2153 4600 2523 4359 
Q 2894 4119 3086 3673 
Q 3278 3228 3278 2384 
Q 3278 1506 3087 986 
Q 2897 466 2520 194 
Q 2144 -78 1638 -78 
Q 1100 -78 759 220 
Q 419 519 350 1059 
z
M 2653 3081 
Q 2653 3566 2395 3850 
Q 2138 4134 1775 4134 
Q 1400 4134 1122 3828 
Q 844 3522 844 3034 
Q 844 2597 1108 2323 
Q 1372 2050 1759 2050 
Q 2150 2050 2401 2323 
Q 2653 2597 2653 3081 
z
" transform="scale(0.015625)"/>
       <path id="ArialMT-45" d="M 941 0 
L 419 0 
L 419 4581 
L 981 4581 
L 981 2947 
Q 1338 3394 1891 3394 
Q 2197 3394 2470 3270 
Q 2744 3147 2920 2923 
Q 3097 2700 3197 2384 
Q 3297 2069 3297 1709 
Q 3297 856 2875 390 
Q 2453 -75 1863 -75 
Q 1275 -75 941 416 
L 941 0 
z
M 934 1684 
Q 934 1088 1097 822 
Q 1363 388 1816 388 
Q 2184 388 2453 708 
Q 2722 1028 2722 1663 
Q 2722 2313 2464 2622 
Q 2206 2931 1841 2931 
Q 1472 2931 1203 2611 
Q 934 2291 934 1684 
z
" transform="scale(0.015625)"/>
       <path id="ArialMT-58" d="M 2597 0 
L 2597 488 
Q 2209 -75 1544 -75 
Q 1250 -75 995 37 
Q 741 150 617 320 
Q 494 491 444 738 
Q 409 903 409 1263 
L 409 3319 
L 972 3319 
L 972 1478 
Q 972 1038 1006 884 
Q 1059 663 1231 536 
Q 1403 409 1656 409 
Q 1909 409 2131 539 
Q 2353 669 2445 892 
Q 2538 1116 2538 1541 
L 2538 3319 
L 3100 3319 
L 3100 0 
L 2597 0 
z
" transform="scale(0.015625)"/>
      </defs>
      <use xlink:href="#ArialMT-13"/>
      <use xlink:href="#ArialMT-11" transform="translate(55.609375 0)"/>
      <use xlink:href="#ArialMT-14" transform="translate(83.390625 0)"/>
      <use xlink:href="#ArialMT-19" transform="translate(139 0)"/>
      <use xlink:href="#ArialMT-1b" transform="translate(194.609375 0)"/>
      <use xlink:href="#ArialMT-1c" transform="translate(250.21875 0)"/>
      <use xlink:href="#ArialMT-13" transform="translate(305.828125 0)"/>
      <use xlink:href="#ArialMT-3" transform="translate(361.4375 0)"/>
      <use xlink:href="#ArialMT-b" transform="translate(389.21875 0)"/>
      <use xlink:href="#ArialMT-57" transform="translate(422.515625 0)"/>
      <use xlink:href="#ArialMT-44" transform="translate(450.296875 0)"/>
      <use xlink:href="#ArialMT-45" transform="translate(505.90625 0)"/>
      <use xlink:href="#ArialMT-58" transform="translate(561.515625 0)"/>
      <use xlink:href="#ArialMT-4f" transform="translate(617.125 0)"/>
      <use xlink:href="#ArialMT-44" transform="translate(639.34375 0)"/>
      <use xlink:href="#ArialMT-55" transform="translate(694.953125 0)"/>
      <use xlink:href="#ArialMT-c" transform="translate(728.25 0)"/>
     </g>
    </g>
    <g id="patch_9">
     <path d="M 699.984 154.437523 
L 993.96 154.437523 
L 993.96 129.755046 
L 699.984 129.755046 
z
" style="fill: #f6d6c6; stroke: #000000; stroke-linejoin: miter"/>
    </g>
    <g id="text_8">
     <!-- loses to tabular alone -->
     <g transform="translate(729.3816 145.201753) scale(0.12 -0.12)">
      <use xlink:href="#ArialMT-4f"/>
      <use xlink:href="#ArialMT-52" transform="translate(22.21875 0)"/>
      <use xlink:href="#ArialMT-56" transform="translate(77.828125 0)"/>
      <use xlink:href="#ArialMT-48" transform="translate(127.828125 0)"/>
      <use xlink:href="#ArialMT-56" transform="translate(183.4375 0)"/>
      <use xlink:href="#ArialMT-3" transform="translate(233.4375 0)"/>
      <use xlink:href="#ArialMT-57" transform="translate(261.21875 0)"/>
      <use xlink:href="#ArialMT-52" transform="translate(289 0)"/>
      <use xlink:href="#ArialMT-3" transform="translate(344.609375 0)"/>
      <use xlink:href="#ArialMT-57" transform="translate(372.390625 0)"/>
      <use xlink:href="#ArialMT-44" transform="translate(400.171875 0)"/>
      <use xlink:href="#ArialMT-45" transform="translate(455.78125 0)"/>
      <use xlink:href="#ArialMT-58" transform="translate(511.390625 0)"/>
      <use xlink:href="#ArialMT-4f" transform="translate(567 0)"/>
      <use xlink:href="#ArialMT-44" transform="translate(589.21875 0)"/>
      <use xlink:href="#ArialMT-55" transform="translate(644.828125 0)"/>
      <use xlink:href="#ArialMT-3" transform="translate(678.125 0)"/>
      <use xlink:href="#ArialMT-44" transform="translate(705.90625 0)"/>
      <use xlink:href="#ArialMT-4f" transform="translate(761.515625 0)"/>
      <use xlink:href="#ArialMT-52" transform="translate(783.734375 0)"/>
      <use xlink:href="#ArialMT-51" transform="translate(839.34375 0)"/>
      <use xlink:href="#ArialMT-48" transform="translate(894.953125 0)"/>
     </g>
    </g>
    <g id="patch_10">
     <path d="M 14.04 179.12 
L 308.016 179.12 
L 308.016 154.437523 
L 14.04 154.437523 
z
" style="fill: #fbe9de; stroke: #000000; stroke-linejoin: miter"/>
    </g>
    <g id="text_9">
     <!-- Meta-LGBM stacker -->
     <g transform="translate(43.4376 169.88423) scale(0.12 -0.12)">
      <defs>
       <path id="ArialMT-2a" d="M 2638 1797 
L 2638 2334 
L 4578 2338 
L 4578 638 
Q 4131 281 3656 101 
Q 3181 -78 2681 -78 
Q 2006 -78 1454 211 
Q 903 500 622 1047 
Q 341 1594 341 2269 
Q 341 2938 620 3517 
Q 900 4097 1425 4378 
Q 1950 4659 2634 4659 
Q 3131 4659 3532 4498 
Q 3934 4338 4162 4050 
Q 4391 3763 4509 3300 
L 3963 3150 
Q 3859 3500 3706 3700 
Q 3553 3900 3268 4020 
Q 2984 4141 2638 4141 
Q 2222 4141 1919 4014 
Q 1616 3888 1430 3681 
Q 1244 3475 1141 3228 
Q 966 2803 966 2306 
Q 966 1694 1177 1281 
Q 1388 869 1791 669 
Q 2194 469 2647 469 
Q 3041 469 3416 620 
Q 3791 772 3984 944 
L 3984 1797 
L 2638 1797 
z
" transform="scale(0.015625)"/>
       <path id="ArialMT-25" d="M 469 0 
L 469 4581 
L 2188 4581 
Q 2713 4581 3030 4442 
Q 3347 4303 3526 4014 
Q 3706 3725 3706 3409 
Q 3706 3116 3547 2856 
Q 3388 2597 3066 2438 
Q 3481 2316 3704 2022 
Q 3928 1728 3928 1328 
Q 3928 1006 3792 729 
Q 3656 453 3456 303 
Q 3256 153 2954 76 
Q 2653 0 2216 0 
L 469 0 
z
M 1075 2656 
L 2066 2656 
Q 2469 2656 2644 2709 
Q 2875 2778 2992 2937 
Q 3109 3097 3109 3338 
Q 3109 3566 3000 3739 
Q 2891 3913 2687 3977 
Q 2484 4041 1991 4041 
L 1075 4041 
L 1075 2656 
z
M 1075 541 
L 2216 541 
Q 2509 541 2628 563 
Q 2838 600 2978 687 
Q 3119 775 3209 942 
Q 3300 1109 3300 1328 
Q 3300 1584 3169 1773 
Q 3038 1963 2805 2039 
Q 2572 2116 2134 2116 
L 1075 2116 
L 1075 541 
z
" transform="scale(0.015625)"/>
       <path id="ArialMT-46" d="M 2588 1216 
L 3141 1144 
Q 3050 572 2676 248 
Q 2303 -75 1759 -75 
Q 1078 -75 664 370 
Q 250 816 250 1647 
Q 250 2184 428 2587 
Q 606 2991 970 3192 
Q 1334 3394 1763 3394 
Q 2303 3394 2647 3120 
Q 2991 2847 3088 2344 
L 2541 2259 
Q 2463 2594 2264 2762 
Q 2066 2931 1784 2931 
Q 1359 2931 1093 2626 
Q 828 2322 828 1663 
Q 828 994 1084 691 
Q 1341 388 1753 388 
Q 2084 388 2306 591 
Q 2528 794 2588 1216 
z
" transform="scale(0.015625)"/>
       <path id="ArialMT-4e" d="M 425 0 
L 425 4581 
L 988 4581 
L 988 1969 
L 2319 3319 
L 3047 3319 
L 1778 2088 
L 3175 0 
L 2481 0 
L 1384 1697 
L 988 1316 
L 988 0 
L 425 0 
z
" transform="scale(0.015625)"/>
      </defs>
      <use xlink:href="#ArialMT-30"/>
      <use xlink:href="#ArialMT-48" transform="translate(83.296875 0)"/>
      <use xlink:href="#ArialMT-57" transform="translate(138.90625 0)"/>
      <use xlink:href="#ArialMT-44" transform="translate(166.6875 0)"/>
      <use xlink:href="#ArialMT-10" transform="translate(222.296875 0)"/>
      <use xlink:href="#ArialMT-2f" transform="translate(255.59375 0)"/>
      <use xlink:href="#ArialMT-2a" transform="translate(311.203125 0)"/>
      <use xlink:href="#ArialMT-25" transform="translate(388.984375 0)"/>
      <use xlink:href="#ArialMT-30" transform="translate(455.6875 0)"/>
      <use xlink:href="#ArialMT-3" transform="translate(538.984375 0)"/>
      <use xlink:href="#ArialMT-56" transform="translate(566.765625 0)"/>
      <use xlink:href="#ArialMT-57" transform="translate(616.765625 0)"/>
      <use xlink:href="#ArialMT-44" transform="translate(644.546875 0)"/>
      <use xlink:href="#ArialMT-46" transform="translate(700.15625 0)"/>
      <use xlink:href="#ArialMT-4e" transform="translate(750.15625 0)"/>
      <use xlink:href="#ArialMT-48" transform="translate(800.15625 0)"/>
      <use xlink:href="#ArialMT-55" transform="translate(855.765625 0)"/>
     </g>
    </g>
    <g id="patch_11">
     <path d="M 308.016 179.12 
L 464.8032 179.12 
L 464.8032 154.437523 
L 308.016 154.437523 
z
" style="fill: #fbe9de; stroke: #000000; stroke-linejoin: miter"/>
    </g>
    <g id="text_10">
     <!-- 0.17108 -->
     <g transform="translate(323.69472 169.88423) scale(0.12 -0.12)">
      <use xlink:href="#ArialMT-13"/>
      <use xlink:href="#ArialMT-11" transform="translate(55.609375 0)"/>
      <use xlink:href="#ArialMT-14" transform="translate(83.390625 0)"/>
      <use xlink:href="#ArialMT-1a" transform="translate(139 0)"/>
      <use xlink:href="#ArialMT-14" transform="translate(194.609375 0)"/>
      <use xlink:href="#ArialMT-13" transform="translate(250.21875 0)"/>
      <use xlink:href="#ArialMT-1b" transform="translate(305.828125 0)"/>
     </g>
    </g>
    <g id="patch_12">
     <path d="M 464.8032 179.12 
L 699.984 179.12 
L 699.984 154.437523 
L 464.8032 154.437523 
z
" style="fill: #fbe9de; stroke: #000000; stroke-linejoin: miter"/>
    </g>
    <g id="text_11">
     <!-- 0.17376 (rank-avg) -->
     <g transform="translate(488.32128 169.884113) scale(0.12 -0.12)">
      <defs>
       <path id="ArialMT-16" d="M 269 1209 
L 831 1284 
Q 928 806 1161 595 
Q 1394 384 1728 384 
Q 2125 384 2398 659 
Q 2672 934 2672 1341 
Q 2672 1728 2419 1979 
Q 2166 2231 1775 2231 
Q 1616 2231 1378 2169 
L 1441 2663 
Q 1497 2656 1531 2656 
Q 1891 2656 2178 2843 
Q 2466 3031 2466 3422 
Q 2466 3731 2256 3934 
Q 2047 4138 1716 4138 
Q 1388 4138 1169 3931 
Q 950 3725 888 3313 
L 325 3413 
Q 428 3978 793 4289 
Q 1159 4600 1703 4600 
Q 2078 4600 2393 4439 
Q 2709 4278 2876 4000 
Q 3044 3722 3044 3409 
Q 3044 3113 2884 2869 
Q 2725 2625 2413 2481 
Q 2819 2388 3044 2092 
Q 3269 1797 3269 1353 
Q 3269 753 2831 336 
Q 2394 -81 1725 -81 
Q 1122 -81 723 278 
Q 325 638 269 1209 
z
" transform="scale(0.015625)"/>
       <path id="ArialMT-59" d="M 1344 0 
L 81 3319 
L 675 3319 
L 1388 1331 
Q 1503 1009 1600 663 
Q 1675 925 1809 1294 
L 2547 3319 
L 3125 3319 
L 1869 0 
L 1344 0 
z
" transform="scale(0.015625)"/>
      </defs>
      <use xlink:href="#ArialMT-13"/>
      <use xlink:href="#ArialMT-11" transform="translate(55.609375 0)"/>
      <use xlink:href="#ArialMT-14" transform="translate(83.390625 0)"/>
      <use xlink:href="#ArialMT-1a" transform="translate(139 0)"/>
      <use xlink:href="#ArialMT-16" transform="translate(194.609375 0)"/>
      <use xlink:href="#ArialMT-1a" transform="translate(250.21875 0)"/>
      <use xlink:href="#ArialMT-19" transform="translate(305.828125 0)"/>
      <use xlink:href="#ArialMT-3" transform="translate(361.4375 0)"/>
      <use xlink:href="#ArialMT-b" transform="translate(389.21875 0)"/>
      <use xlink:href="#ArialMT-55" transform="translate(422.515625 0)"/>
      <use xlink:href="#ArialMT-44" transform="translate(455.8125 0)"/>
      <use xlink:href="#ArialMT-51" transform="translate(511.421875 0)"/>
      <use xlink:href="#ArialMT-4e" transform="translate(567.03125 0)"/>
      <use xlink:href="#ArialMT-10" transform="translate(617.03125 0)"/>
      <use xlink:href="#ArialMT-44" transform="translate(650.328125 0)"/>
      <use xlink:href="#ArialMT-59" transform="translate(705.9375 0)"/>
      <use xlink:href="#ArialMT-4a" transform="translate(755.9375 0)"/>
      <use xlink:href="#ArialMT-c" transform="translate(811.546875 0)"/>
     </g>
    </g>
    <g id="patch_13">
     <path d="M 699.984 179.12 
L 993.96 179.12 
L 993.96 154.437523 
L 699.984 154.437523 
z
" style="fill: #fbe9de; stroke: #000000; stroke-linejoin: miter"/>
    </g>
    <g id="text_12">
     <!-- loses to trivial rank-avg -->
     <g transform="translate(729.3816 169.884113) scale(0.12 -0.12)">
      <use xlink:href="#ArialMT-4f"/>
      <use xlink:href="#ArialMT-52" transform="translate(22.21875 0)"/>
      <use xlink:href="#ArialMT-56" transform="translate(77.828125 0)"/>
      <use xlink:href="#ArialMT-48" transform="translate(127.828125 0)"/>
      <use xlink:href="#ArialMT-56" transform="translate(183.4375 0)"/>
      <use xlink:href="#ArialMT-3" transform="translate(233.4375 0)"/>
      <use xlink:href="#ArialMT-57" transform="translate(261.21875 0)"/>
      <use xlink:href="#ArialMT-52" transform="translate(289 0)"/>
      <use xlink:href="#ArialMT-3" transform="translate(344.609375 0)"/>
      <use xlink:href="#ArialMT-57" transform="translate(372.390625 0)"/>
      <use xlink:href="#ArialMT-55" transform="translate(400.171875 0)"/>
      <use xlink:href="#ArialMT-4c" transform="translate(433.46875 0)"/>
      <use xlink:href="#ArialMT-59" transform="translate(455.6875 0)"/>
      <use xlink:href="#ArialMT-4c" transform="translate(505.6875 0)"/>
      <use xlink:href="#ArialMT-44" transform="translate(527.90625 0)"/>
      <use xlink:href="#ArialMT-4f" transform="translate(583.515625 0)"/>
      <use xlink:href="#ArialMT-3" transform="translate(605.734375 0)"/>
      <use xlink:href="#ArialMT-55" transform="translate(633.515625 0)"/>
      <use xlink:href="#ArialMT-44" transform="translate(666.8125 0)"/>
      <use xlink:href="#ArialMT-51" transform="translate(722.421875 0)"/>
      <use xlink:href="#ArialMT-4e" transform="translate(778.03125 0)"/>
      <use xlink:href="#ArialMT-10" transform="translate(828.03125 0)"/>
      <use xlink:href="#ArialMT-44" transform="translate(861.328125 0)"/>
      <use xlink:href="#ArialMT-59" transform="translate(916.9375 0)"/>
      <use xlink:href="#ArialMT-4a" transform="translate(966.9375 0)"/>
     </g>
    </g>
    <g id="patch_14">
     <path d="M 14.04 203.802477 
L 308.016 203.802477 
L 308.016 179.12 
L 14.04 179.12 
z
" style="fill: #f6d6c6; stroke: #000000; stroke-linejoin: miter"/>
    </g>
    <g id="text_13">
     <!-- + PCA image embeddings into GBDT -->
     <g transform="translate(43.4376 194.56659) scale(0.12 -0.12)">
      <defs>
       <path id="ArialMT-e" d="M 1603 741 
L 1603 1997 
L 356 1997 
L 356 2522 
L 1603 2522 
L 1603 3769 
L 2134 3769 
L 2134 2522 
L 3381 2522 
L 3381 1997 
L 2134 1997 
L 2134 741 
L 1603 741 
z
" transform="scale(0.015625)"/>
       <path id="ArialMT-33" d="M 494 0 
L 494 4581 
L 2222 4581 
Q 2678 4581 2919 4538 
Q 3256 4481 3484 4323 
Q 3713 4166 3852 3881 
Q 3991 3597 3991 3256 
Q 3991 2672 3619 2267 
Q 3247 1863 2275 1863 
L 1100 1863 
L 1100 0 
L 494 0 
z
M 1100 2403 
L 2284 2403 
Q 2872 2403 3119 2622 
Q 3366 2841 3366 3238 
Q 3366 3525 3220 3729 
Q 3075 3934 2838 4000 
Q 2684 4041 2272 4041 
L 1100 4041 
L 1100 2403 
z
" transform="scale(0.015625)"/>
       <path id="ArialMT-26" d="M 3763 1606 
L 4369 1453 
Q 4178 706 3683 314 
Q 3188 -78 2472 -78 
Q 1731 -78 1267 223 
Q 803 525 561 1097 
Q 319 1669 319 2325 
Q 319 3041 592 3573 
Q 866 4106 1370 4382 
Q 1875 4659 2481 4659 
Q 3169 4659 3637 4309 
Q 4106 3959 4291 3325 
L 3694 3184 
Q 3534 3684 3231 3912 
Q 2928 4141 2469 4141 
Q 1941 4141 1586 3887 
Q 1231 3634 1087 3207 
Q 944 2781 944 2328 
Q 944 1744 1114 1308 
Q 1284 872 1643 656 
Q 2003 441 2422 441 
Q 2931 441 3284 734 
Q 3638 1028 3763 1606 
z
" transform="scale(0.015625)"/>
       <path id="ArialMT-24" d="M -9 0 
L 1750 4581 
L 2403 4581 
L 4278 0 
L 3588 0 
L 3053 1388 
L 1138 1388 
L 634 0 
L -9 0 
z
M 1313 1881 
L 2866 1881 
L 2388 3150 
Q 2169 3728 2063 4100 
Q 1975 3659 1816 3225 
L 1313 1881 
z
" transform="scale(0.015625)"/>
       <path id="ArialMT-50" d="M 422 0 
L 422 3319 
L 925 3319 
L 925 2853 
Q 1081 3097 1340 3245 
Q 1600 3394 1931 3394 
Q 2300 3394 2536 3241 
Q 2772 3088 2869 2813 
Q 3263 3394 3894 3394 
Q 4388 3394 4653 3120 
Q 4919 2847 4919 2278 
L 4919 0 
L 4359 0 
L 4359 2091 
Q 4359 2428 4304 2576 
Q 4250 2725 4106 2815 
Q 3963 2906 3769 2906 
Q 3419 2906 3187 2673 
Q 2956 2441 2956 1928 
L 2956 0 
L 2394 0 
L 2394 2156 
Q 2394 2531 2256 2718 
Q 2119 2906 1806 2906 
Q 1569 2906 1367 2781 
Q 1166 2656 1075 2415 
Q 984 2175 984 1722 
L 984 0 
L 422 0 
z
" transform="scale(0.015625)"/>
       <path id="ArialMT-27" d="M 494 0 
L 494 4581 
L 2072 4581 
Q 2606 4581 2888 4516 
Q 3281 4425 3559 4188 
Q 3922 3881 4101 3404 
Q 4281 2928 4281 2316 
Q 4281 1794 4159 1391 
Q 4038 988 3847 723 
Q 3656 459 3429 307 
Q 3203 156 2883 78 
Q 2563 0 2147 0 
L 494 0 
z
M 1100 541 
L 2078 541 
Q 2531 541 2789 625 
Q 3047 709 3200 863 
Q 3416 1078 3536 1442 
Q 3656 1806 3656 2325 
Q 3656 3044 3420 3430 
Q 3184 3816 2847 3947 
Q 2603 4041 2063 4041 
L 1100 4041 
L 1100 541 
z
" transform="scale(0.015625)"/>
       <path id="ArialMT-37" d="M 1659 0 
L 1659 4041 
L 150 4041 
L 150 4581 
L 3781 4581 
L 3781 4041 
L 2266 4041 
L 2266 0 
L 1659 0 
z
" transform="scale(0.015625)"/>
      </defs>
      <use xlink:href="#ArialMT-e"/>
      <use xlink:href="#ArialMT-3" transform="translate(58.40625 0)"/>
      <use xlink:href="#ArialMT-33" transform="translate(86.1875 0)"/>
      <use xlink:href="#ArialMT-26" transform="translate(152.890625 0)"/>
      <use xlink:href="#ArialMT-24" transform="translate(225.109375 0)"/>
      <use xlink:href="#ArialMT-3" transform="translate(286.296875 0)"/>
      <use xlink:href="#ArialMT-4c" transform="translate(314.078125 0)"/>
      <use xlink:href="#ArialMT-50" transform="translate(336.296875 0)"/>
      <use xlink:href="#ArialMT-44" transform="translate(419.59375 0)"/>
      <use xlink:href="#ArialMT-4a" transform="translate(475.203125 0)"/>
      <use xlink:href="#ArialMT-48" transform="translate(530.8125 0)"/>
      <use xlink:href="#ArialMT-3" transform="translate(586.421875 0)"/>
      <use xlink:href="#ArialMT-48" transform="translate(614.203125 0)"/>
      <use xlink:href="#ArialMT-50" transform="translate(669.8125 0)"/>
      <use xlink:href="#ArialMT-45" transform="translate(753.109375 0)"/>
      <use xlink:href="#ArialMT-48" transform="translate(808.71875 0)"/>
      <use xlink:href="#ArialMT-47" transform="translate(864.328125 0)"/>
      <use xlink:href="#ArialMT-47" transform="translate(919.9375 0)"/>
      <use xlink:href="#ArialMT-4c" transform="translate(975.546875 0)"/>
      <use xlink:href="#ArialMT-51" transform="translate(997.765625 0)"/>
      <use xlink:href="#ArialMT-4a" transform="translate(1053.375 0)"/>
      <use xlink:href="#ArialMT-56" transform="translate(1108.984375 0)"/>
      <use xlink:href="#ArialMT-3" transform="translate(1158.984375 0)"/>
      <use xlink:href="#ArialMT-4c" transform="translate(1186.765625 0)"/>
      <use xlink:href="#ArialMT-51" transform="translate(1208.984375 0)"/>
      <use xlink:href="#ArialMT-57" transform="translate(1264.59375 0)"/>
      <use xlink:href="#ArialMT-52" transform="translate(1292.375 0)"/>
      <use xlink:href="#ArialMT-3" transform="translate(1347.984375 0)"/>
      <use xlink:href="#ArialMT-2a" transform="translate(1375.765625 0)"/>
      <use xlink:href="#ArialMT-25" transform="translate(1453.546875 0)"/>
      <use xlink:href="#ArialMT-27" transform="translate(1520.25 0)"/>
      <use xlink:href="#ArialMT-37" transform="translate(1592.46875 0)"/>
     </g>
    </g>
    <g id="patch_15">
     <path d="M 308.016 203.802477 
L 464.8032 203.802477 
L 464.8032 179.12 
L 308.016 179.12 
z
" style="fill: #f6d6c6; stroke: #000000; stroke-linejoin: miter"/>
    </g>
    <g id="text_14">
     <!-- &lt; 0.1743 -->
     <g transform="translate(323.69472 194.566707) scale(0.12 -0.12)">
      <defs>
       <path id="ArialMT-1f" d="M 350 2003 
L 350 2528 
L 3384 3809 
L 3384 3250 
L 978 2263 
L 3384 1266 
L 3384 706 
L 350 2003 
z
" transform="scale(0.015625)"/>
       <path id="ArialMT-17" d="M 2069 0 
L 2069 1097 
L 81 1097 
L 81 1613 
L 2172 4581 
L 2631 4581 
L 2631 1613 
L 3250 1613 
L 3250 1097 
L 2631 1097 
L 2631 0 
L 2069 0 
z
M 2069 1613 
L 2069 3678 
L 634 1613 
L 2069 1613 
z
" transform="scale(0.015625)"/>
      </defs>
      <use xlink:href="#ArialMT-1f"/>
      <use xlink:href="#ArialMT-3" transform="translate(58.40625 0)"/>
      <use xlink:href="#ArialMT-13" transform="translate(86.1875 0)"/>
      <use xlink:href="#ArialMT-11" transform="translate(141.796875 0)"/>
      <use xlink:href="#ArialMT-14" transform="translate(169.578125 0)"/>
      <use xlink:href="#ArialMT-1a" transform="translate(225.1875 0)"/>
      <use xlink:href="#ArialMT-17" transform="translate(280.796875 0)"/>
      <use xlink:href="#ArialMT-16" transform="translate(336.40625 0)"/>
     </g>
    </g>
    <g id="patch_16">
     <path d="M 464.8032 203.802477 
L 699.984 203.802477 
L 699.984 179.12 
L 464.8032 179.12 
z
" style="fill: #f6d6c6; stroke: #000000; stroke-linejoin: miter"/>
    </g>
    <g id="text_15">
     <!-- 0.17376 -->
     <g transform="translate(488.32128 194.566707) scale(0.12 -0.12)">
      <use xlink:href="#ArialMT-13"/>
      <use xlink:href="#ArialMT-11" transform="translate(55.609375 0)"/>
      <use xlink:href="#ArialMT-14" transform="translate(83.390625 0)"/>
      <use xlink:href="#ArialMT-1a" transform="translate(139 0)"/>
      <use xlink:href="#ArialMT-16" transform="translate(194.609375 0)"/>
      <use xlink:href="#ArialMT-1a" transform="translate(250.21875 0)"/>
      <use xlink:href="#ArialMT-19" transform="translate(305.828125 0)"/>
     </g>
    </g>
    <g id="patch_17">
     <path d="M 699.984 203.802477 
L 993.96 203.802477 
L 993.96 179.12 
L 699.984 179.12 
z
" style="fill: #f6d6c6; stroke: #000000; stroke-linejoin: miter"/>
    </g>
    <g id="text_16">
     <!-- embeddings hurt -->
     <g transform="translate(729.3816 194.56659) scale(0.12 -0.12)">
      <defs>
       <path id="ArialMT-4b" d="M 422 0 
L 422 4581 
L 984 4581 
L 984 2938 
Q 1378 3394 1978 3394 
Q 2347 3394 2619 3248 
Q 2891 3103 3008 2847 
Q 3125 2591 3125 2103 
L 3125 0 
L 2563 0 
L 2563 2103 
Q 2563 2525 2380 2717 
Q 2197 2909 1863 2909 
Q 1613 2909 1392 2779 
Q 1172 2650 1078 2428 
Q 984 2206 984 1816 
L 984 0 
L 422 0 
z
" transform="scale(0.015625)"/>
      </defs>
      <use xlink:href="#ArialMT-48"/>
      <use xlink:href="#ArialMT-50" transform="translate(55.609375 0)"/>
      <use xlink:href="#ArialMT-45" transform="translate(138.90625 0)"/>
      <use xlink:href="#ArialMT-48" transform="translate(194.515625 0)"/>
      <use xlink:href="#ArialMT-47" transform="translate(250.125 0)"/>
      <use xlink:href="#ArialMT-47" transform="translate(305.734375 0)"/>
      <use xlink:href="#ArialMT-4c" transform="translate(361.34375 0)"/>
      <use xlink:href="#ArialMT-51" transform="translate(383.5625 0)"/>
      <use xlink:href="#ArialMT-4a" transform="translate(439.171875 0)"/>
      <use xlink:href="#ArialMT-56" transform="translate(494.78125 0)"/>
      <use xlink:href="#ArialMT-3" transform="translate(544.78125 0)"/>
      <use xlink:href="#ArialMT-4b" transform="translate(572.5625 0)"/>
      <use xlink:href="#ArialMT-58" transform="translate(628.171875 0)"/>
      <use xlink:href="#ArialMT-55" transform="translate(683.78125 0)"/>
      <use xlink:href="#ArialMT-57" transform="translate(717.078125 0)"/>
     </g>
    </g>
    <g id="patch_18">
     <path d="M 14.04 228.484954 
L 308.016 228.484954 
L 308.016 203.802477 
L 14.04 203.802477 
z
" style="fill: #fbe9de; stroke: #000000; stroke-linejoin: miter"/>
    </g>
    <g id="text_17">
     <!-- Heavy backbones (swinv2 / eva02) -->
     <g transform="translate(43.4376 219.249067) scale(0.12 -0.12)">
      <defs>
       <path id="ArialMT-2b" d="M 513 0 
L 513 4581 
L 1119 4581 
L 1119 2700 
L 3500 2700 
L 3500 4581 
L 4106 4581 
L 4106 0 
L 3500 0 
L 3500 2159 
L 1119 2159 
L 1119 0 
L 513 0 
z
" transform="scale(0.015625)"/>
       <path id="ArialMT-5c" d="M 397 -1278 
L 334 -750 
Q 519 -800 656 -800 
Q 844 -800 956 -737 
Q 1069 -675 1141 -563 
Q 1194 -478 1313 -144 
Q 1328 -97 1363 -6 
L 103 3319 
L 709 3319 
L 1400 1397 
Q 1534 1031 1641 628 
Q 1738 1016 1872 1384 
L 2581 3319 
L 3144 3319 
L 1881 -56 
Q 1678 -603 1566 -809 
Q 1416 -1088 1222 -1217 
Q 1028 -1347 759 -1347 
Q 597 -1347 397 -1278 
z
" transform="scale(0.015625)"/>
       <path id="ArialMT-5a" d="M 1034 0 
L 19 3319 
L 600 3319 
L 1128 1403 
L 1325 691 
Q 1338 744 1497 1375 
L 2025 3319 
L 2603 3319 
L 3100 1394 
L 3266 759 
L 3456 1400 
L 4025 3319 
L 4572 3319 
L 3534 0 
L 2950 0 
L 2422 1988 
L 2294 2553 
L 1622 0 
L 1034 0 
z
" transform="scale(0.015625)"/>
       <path id="ArialMT-15" d="M 3222 541 
L 3222 0 
L 194 0 
Q 188 203 259 391 
Q 375 700 629 1000 
Q 884 1300 1366 1694 
Q 2113 2306 2375 2664 
Q 2638 3022 2638 3341 
Q 2638 3675 2398 3904 
Q 2159 4134 1775 4134 
Q 1369 4134 1125 3890 
Q 881 3647 878 3216 
L 300 3275 
Q 359 3922 746 4261 
Q 1134 4600 1788 4600 
Q 2447 4600 2831 4234 
Q 3216 3869 3216 3328 
Q 3216 3053 3103 2787 
Q 2991 2522 2730 2228 
Q 2469 1934 1863 1422 
Q 1356 997 1212 845 
Q 1069 694 975 541 
L 3222 541 
z
" transform="scale(0.015625)"/>
       <path id="ArialMT-12" d="M 0 -78 
L 1328 4659 
L 1778 4659 
L 453 -78 
L 0 -78 
z
" transform="scale(0.015625)"/>
      </defs>
      <use xlink:href="#ArialMT-2b"/>
      <use xlink:href="#ArialMT-48" transform="translate(72.21875 0)"/>
      <use xlink:href="#ArialMT-44" transform="translate(127.828125 0)"/>
      <use xlink:href="#ArialMT-59" transform="translate(183.4375 0)"/>
      <use xlink:href="#ArialMT-5c" transform="translate(233.4375 0)"/>
      <use xlink:href="#ArialMT-3" transform="translate(283.4375 0)"/>
      <use xlink:href="#ArialMT-45" transform="translate(311.21875 0)"/>
      <use xlink:href="#ArialMT-44" transform="translate(366.828125 0)"/>
      <use xlink:href="#ArialMT-46" transform="translate(422.4375 0)"/>
      <use xlink:href="#ArialMT-4e" transform="translate(472.4375 0)"/>
      <use xlink:href="#ArialMT-45" transform="translate(522.4375 0)"/>
      <use xlink:href="#ArialMT-52" transform="translate(578.046875 0)"/>
      <use xlink:href="#ArialMT-51" transform="translate(633.65625 0)"/>
      <use xlink:href="#ArialMT-48" transform="translate(689.265625 0)"/>
      <use xlink:href="#ArialMT-56" transform="translate(744.875 0)"/>
      <use xlink:href="#ArialMT-3" transform="translate(794.875 0)"/>
      <use xlink:href="#ArialMT-b" transform="translate(822.65625 0)"/>
      <use xlink:href="#ArialMT-56" transform="translate(855.953125 0)"/>
      <use xlink:href="#ArialMT-5a" transform="translate(905.953125 0)"/>
      <use xlink:href="#ArialMT-4c" transform="translate(978.171875 0)"/>
      <use xlink:href="#ArialMT-51" transform="translate(1000.390625 0)"/>
      <use xlink:href="#ArialMT-59" transform="translate(1056 0)"/>
      <use xlink:href="#ArialMT-15" transform="translate(1106 0)"/>
      <use xlink:href="#ArialMT-3" transform="translate(1161.609375 0)"/>
      <use xlink:href="#ArialMT-12" transform="translate(1189.390625 0)"/>
      <use xlink:href="#ArialMT-3" transform="translate(1217.171875 0)"/>
      <use xlink:href="#ArialMT-48" transform="translate(1244.953125 0)"/>
      <use xlink:href="#ArialMT-59" transform="translate(1300.5625 0)"/>
      <use xlink:href="#ArialMT-44" transform="translate(1350.5625 0)"/>
      <use xlink:href="#ArialMT-13" transform="translate(1406.171875 0)"/>
      <use xlink:href="#ArialMT-15" transform="translate(1461.78125 0)"/>
      <use xlink:href="#ArialMT-c" transform="translate(1517.390625 0)"/>
     </g>
    </g>
    <g id="patch_19">
     <path d="M 308.016 228.484954 
L 464.8032 228.484954 
L 464.8032 203.802477 
L 308.016 203.802477 
z
" style="fill: #fbe9de; stroke: #000000; stroke-linejoin: miter"/>
    </g>
    <g id="text_18">
     <!-- 0.104 / 0.100 -->
     <g transform="translate(323.69472 219.249184) scale(0.12 -0.12)">
      <use xlink:href="#ArialMT-13"/>
      <use xlink:href="#ArialMT-11" transform="translate(55.609375 0)"/>
      <use xlink:href="#ArialMT-14" transform="translate(83.390625 0)"/>
      <use xlink:href="#ArialMT-13" transform="translate(139 0)"/>
      <use xlink:href="#ArialMT-17" transform="translate(194.609375 0)"/>
      <use xlink:href="#ArialMT-3" transform="translate(250.21875 0)"/>
      <use xlink:href="#ArialMT-12" transform="translate(278 0)"/>
      <use xlink:href="#ArialMT-3" transform="translate(305.78125 0)"/>
      <use xlink:href="#ArialMT-13" transform="translate(333.5625 0)"/>
      <use xlink:href="#ArialMT-11" transform="translate(389.171875 0)"/>
      <use xlink:href="#ArialMT-14" transform="translate(416.953125 0)"/>
      <use xlink:href="#ArialMT-13" transform="translate(472.5625 0)"/>
      <use xlink:href="#ArialMT-13" transform="translate(528.171875 0)"/>
     </g>
    </g>
    <g id="patch_20">
     <path d="M 464.8032 228.484954 
L 699.984 228.484954 
L 699.984 203.802477 
L 464.8032 203.802477 
z
" style="fill: #fbe9de; stroke: #000000; stroke-linejoin: miter"/>
    </g>
    <g id="text_19">
     <!-- 0.15821 (nano@224) -->
     <g transform="translate(488.32128 219.255278) scale(0.12 -0.12)">
      <defs>
       <path id="ArialMT-23" d="M 3628 509 
Q 3425 275 3173 133 
Q 2922 -9 2669 -9 
Q 2391 -9 2128 153 
Q 1866 316 1702 653 
Q 1538 991 1538 1394 
Q 1538 1891 1792 2389 
Q 2047 2888 2425 3138 
Q 2803 3388 3159 3388 
Q 3431 3388 3678 3245 
Q 3925 3103 4103 2813 
L 4209 3297 
L 4769 3297 
L 4319 1200 
Q 4225 763 4225 716 
Q 4225 631 4289 570 
Q 4353 509 4444 509 
Q 4609 509 4878 700 
Q 5234 950 5442 1370 
Q 5650 1791 5650 2238 
Q 5650 2759 5383 3212 
Q 5116 3666 4586 3937 
Q 4056 4209 3416 4209 
Q 2684 4209 2079 3867 
Q 1475 3525 1142 2886 
Q 809 2247 809 1516 
Q 809 750 1142 197 
Q 1475 -356 2104 -620 
Q 2734 -884 3500 -884 
Q 4319 -884 4872 -609 
Q 5425 -334 5700 59 
L 6266 59 
Q 6106 -269 5718 -609 
Q 5331 -950 4797 -1148 
Q 4263 -1347 3509 -1347 
Q 2816 -1347 2230 -1169 
Q 1644 -991 1231 -633 
Q 819 -275 609 191 
Q 347 781 347 1466 
Q 347 2228 659 2919 
Q 1041 3766 1742 4216 
Q 2444 4666 3444 4666 
Q 4219 4666 4836 4348 
Q 5453 4031 5809 3403 
Q 6113 2863 6113 2228 
Q 6113 1322 5475 619 
Q 4906 -13 4231 -13 
Q 4016 -13 3883 53 
Q 3750 119 3688 241 
Q 3647 319 3628 509 
z
M 2116 1356 
Q 2116 928 2319 690 
Q 2522 453 2784 453 
Q 2959 453 3153 558 
Q 3347 663 3523 869 
Q 3700 1075 3812 1392 
Q 3925 1709 3925 2028 
Q 3925 2453 3714 2687 
Q 3503 2922 3200 2922 
Q 3000 2922 2823 2820 
Q 2647 2719 2481 2494 
Q 2316 2269 2216 1947 
Q 2116 1625 2116 1356 
z
" transform="scale(0.015625)"/>
      </defs>
      <use xlink:href="#ArialMT-13"/>
      <use xlink:href="#ArialMT-11" transform="translate(55.609375 0)"/>
      <use xlink:href="#ArialMT-14" transform="translate(83.390625 0)"/>
      <use xlink:href="#ArialMT-18" transform="translate(139 0)"/>
      <use xlink:href="#ArialMT-1b" transform="translate(194.609375 0)"/>
      <use xlink:href="#ArialMT-15" transform="translate(250.21875 0)"/>
      <use xlink:href="#ArialMT-14" transform="translate(305.828125 0)"/>
      <use xlink:href="#ArialMT-3" transform="translate(361.4375 0)"/>
      <use xlink:href="#ArialMT-b" transform="translate(389.21875 0)"/>
      <use xlink:href="#ArialMT-51" transform="translate(422.515625 0)"/>
      <use xlink:href="#ArialMT-44" transform="translate(478.125 0)"/>
      <use xlink:href="#ArialMT-51" transform="translate(533.734375 0)"/>
      <use xlink:href="#ArialMT-52" transform="translate(589.34375 0)"/>
      <use xlink:href="#ArialMT-23" transform="translate(644.953125 0)"/>
      <use xlink:href="#ArialMT-15" transform="translate(746.46875 0)"/>
      <use xlink:href="#ArialMT-15" transform="translate(802.078125 0)"/>
      <use xlink:href="#ArialMT-17" transform="translate(857.6875 0)"/>
      <use xlink:href="#ArialMT-c" transform="translate(913.296875 0)"/>
     </g>
    </g>
    <g id="patch_21">
     <path d="M 699.984 228.484954 
L 993.96 228.484954 
L 993.96 203.802477 
L 699.984 203.802477 
z
" style="fill: #fbe9de; stroke: #000000; stroke-linejoin: miter"/>
    </g>
    <g id="text_20">
     <!-- dominated, overfit @393 pos -->
     <g transform="translate(729.3816 219.255278) scale(0.12 -0.12)">
      <defs>
       <path id="ArialMT-f" d="M 569 0 
L 569 641 
L 1209 641 
L 1209 0 
Q 1209 -353 1084 -570 
Q 959 -788 688 -906 
L 531 -666 
Q 709 -588 793 -436 
Q 878 -284 888 0 
L 569 0 
z
" transform="scale(0.015625)"/>
       <path id="ArialMT-49" d="M 556 0 
L 556 2881 
L 59 2881 
L 59 3319 
L 556 3319 
L 556 3672 
Q 556 4006 616 4169 
Q 697 4388 901 4523 
Q 1106 4659 1475 4659 
Q 1713 4659 2000 4603 
L 1916 4113 
Q 1741 4144 1584 4144 
Q 1328 4144 1222 4034 
Q 1116 3925 1116 3625 
L 1116 3319 
L 1763 3319 
L 1763 2881 
L 1116 2881 
L 1116 0 
L 556 0 
z
" transform="scale(0.015625)"/>
      </defs>
      <use xlink:href="#ArialMT-47"/>
      <use xlink:href="#ArialMT-52" transform="translate(55.609375 0)"/>
      <use xlink:href="#ArialMT-50" transform="translate(111.21875 0)"/>
      <use xlink:href="#ArialMT-4c" transform="translate(194.515625 0)"/>
      <use xlink:href="#ArialMT-51" transform="translate(216.734375 0)"/>
      <use xlink:href="#ArialMT-44" transform="translate(272.34375 0)"/>
      <use xlink:href="#ArialMT-57" transform="translate(327.953125 0)"/>
      <use xlink:href="#ArialMT-48" transform="translate(355.734375 0)"/>
      <use xlink:href="#ArialMT-47" transform="translate(411.34375 0)"/>
      <use xlink:href="#ArialMT-f" transform="translate(466.953125 0)"/>
      <use xlink:href="#ArialMT-3" transform="translate(494.734375 0)"/>
      <use xlink:href="#ArialMT-52" transform="translate(522.515625 0)"/>
      <use xlink:href="#ArialMT-59" transform="translate(578.125 0)"/>
      <use xlink:href="#ArialMT-48" transform="translate(628.125 0)"/>
      <use xlink:href="#ArialMT-55" transform="translate(683.734375 0)"/>
      <use xlink:href="#ArialMT-49" transform="translate(717.03125 0)"/>
      <use xlink:href="#ArialMT-4c" transform="translate(744.8125 0)"/>
      <use xlink:href="#ArialMT-57" transform="translate(767.03125 0)"/>
      <use xlink:href="#ArialMT-3" transform="translate(794.8125 0)"/>
      <use xlink:href="#ArialMT-23" transform="translate(822.59375 0)"/>
      <use xlink:href="#ArialMT-16" transform="translate(924.109375 0)"/>
      <use xlink:href="#ArialMT-1c" transform="translate(979.71875 0)"/>
      <use xlink:href="#ArialMT-16" transform="translate(1035.328125 0)"/>
      <use xlink:href="#ArialMT-3" transform="translate(1090.9375 0)"/>
      <use xlink:href="#ArialMT-53" transform="translate(1118.71875 0)"/>
      <use xlink:href="#ArialMT-52" transform="translate(1174.328125 0)"/>
      <use xlink:href="#ArialMT-56" transform="translate(1229.9375 0)"/>
     </g>
    </g>
    <g id="patch_22">
     <path d="M 14.04 253.167431 
L 308.016 253.167431 
L 308.016 228.484954 
L 14.04 228.484954 
z
" style="fill: #f6d6c6; stroke: #000000; stroke-linejoin: miter"/>
    </g>
    <g id="text_21">
     <!-- EMA 0.999 (over-smoothing) -->
     <g transform="translate(43.4376 243.931544) scale(0.12 -0.12)">
      <use xlink:href="#ArialMT-28"/>
      <use xlink:href="#ArialMT-30" transform="translate(66.703125 0)"/>
      <use xlink:href="#ArialMT-24" transform="translate(150 0)"/>
      <use xlink:href="#ArialMT-3" transform="translate(211.1875 0)"/>
      <use xlink:href="#ArialMT-13" transform="translate(238.96875 0)"/>
      <use xlink:href="#ArialMT-11" transform="translate(294.578125 0)"/>
      <use xlink:href="#ArialMT-1c" transform="translate(322.359375 0)"/>
      <use xlink:href="#ArialMT-1c" transform="translate(377.96875 0)"/>
      <use xlink:href="#ArialMT-1c" transform="translate(433.578125 0)"/>
      <use xlink:href="#ArialMT-3" transform="translate(489.1875 0)"/>
      <use xlink:href="#ArialMT-b" transform="translate(516.96875 0)"/>
      <use xlink:href="#ArialMT-52" transform="translate(550.265625 0)"/>
      <use xlink:href="#ArialMT-59" transform="translate(605.875 0)"/>
      <use xlink:href="#ArialMT-48" transform="translate(655.875 0)"/>
      <use xlink:href="#ArialMT-55" transform="translate(711.484375 0)"/>
      <use xlink:href="#ArialMT-10" transform="translate(744.78125 0)"/>
      <use xlink:href="#ArialMT-56" transform="translate(778.078125 0)"/>
      <use xlink:href="#ArialMT-50" transform="translate(828.078125 0)"/>
      <use xlink:href="#ArialMT-52" transform="translate(911.375 0)"/>
      <use xlink:href="#ArialMT-52" transform="translate(966.984375 0)"/>
      <use xlink:href="#ArialMT-57" transform="translate(1022.59375 0)"/>
      <use xlink:href="#ArialMT-4b" transform="translate(1050.375 0)"/>
      <use xlink:href="#ArialMT-4c" transform="translate(1105.984375 0)"/>
      <use xlink:href="#ArialMT-51" transform="translate(1128.203125 0)"/>
      <use xlink:href="#ArialMT-4a" transform="translate(1183.8125 0)"/>
      <use xlink:href="#ArialMT-c" transform="translate(1239.421875 0)"/>
     </g>
    </g>
    <g id="patch_23">
     <path d="M 308.016 253.167431 
L 464.8032 253.167431 
L 464.8032 228.484954 
L 308.016 228.484954 
z
" style="fill: #f6d6c6; stroke: #000000; stroke-linejoin: miter"/>
    </g>
    <g id="text_22">
     <!-- ~0.146 -->
     <g transform="translate(323.69472 243.931661) scale(0.12 -0.12)">
      <defs>
       <path id="ArialMT-61" d="M 272 1741 
L 272 2381 
Q 603 2756 1141 2756 
Q 1328 2756 1534 2701 
Q 1741 2647 2122 2484 
Q 2338 2394 2445 2366 
Q 2553 2338 2663 2338 
Q 2866 2338 3083 2459 
Q 3300 2581 3469 2766 
L 3469 2103 
Q 3269 1916 3064 1831 
Q 2859 1747 2603 1747 
Q 2416 1747 2245 1790 
Q 2075 1834 1704 2000 
Q 1334 2166 1088 2166 
Q 888 2166 711 2080 
Q 534 1994 272 1741 
z
" transform="scale(0.015625)"/>
      </defs>
      <use xlink:href="#ArialMT-61"/>
      <use xlink:href="#ArialMT-13" transform="translate(58.40625 0)"/>
      <use xlink:href="#ArialMT-11" transform="translate(114.015625 0)"/>
      <use xlink:href="#ArialMT-14" transform="translate(141.796875 0)"/>
      <use xlink:href="#ArialMT-17" transform="translate(197.40625 0)"/>
      <use xlink:href="#ArialMT-19" transform="translate(253.015625 0)"/>
     </g>
    </g>
    <g id="patch_24">
     <path d="M 464.8032 253.167431 
L 699.984 253.167431 
L 699.984 228.484954 
L 464.8032 228.484954 
z
" style="fill: #f6d6c6; stroke: #000000; stroke-linejoin: miter"/>
    </g>
    <g id="text_23">
     <!-- 0.15821 (EMA0.995) -->
     <g transform="translate(488.32128 243.931544) scale(0.12 -0.12)">
      <use xlink:href="#ArialMT-13"/>
      <use xlink:href="#ArialMT-11" transform="translate(55.609375 0)"/>
      <use xlink:href="#ArialMT-14" transform="translate(83.390625 0)"/>
      <use xlink:href="#ArialMT-18" transform="translate(139 0)"/>
      <use xlink:href="#ArialMT-1b" transform="translate(194.609375 0)"/>
      <use xlink:href="#ArialMT-15" transform="translate(250.21875 0)"/>
      <use xlink:href="#ArialMT-14" transform="translate(305.828125 0)"/>
      <use xlink:href="#ArialMT-3" transform="translate(361.4375 0)"/>
      <use xlink:href="#ArialMT-b" transform="translate(389.21875 0)"/>
      <use xlink:href="#ArialMT-28" transform="translate(422.515625 0)"/>
      <use xlink:href="#ArialMT-30" transform="translate(489.21875 0)"/>
      <use xlink:href="#ArialMT-24" transform="translate(572.515625 0)"/>
      <use xlink:href="#ArialMT-13" transform="translate(639.21875 0)"/>
      <use xlink:href="#ArialMT-11" transform="translate(694.828125 0)"/>
      <use xlink:href="#ArialMT-1c" transform="translate(722.609375 0)"/>
      <use xlink:href="#ArialMT-1c" transform="translate(778.21875 0)"/>
      <use xlink:href="#ArialMT-18" transform="translate(833.828125 0)"/>
      <use xlink:href="#ArialMT-c" transform="translate(889.4375 0)"/>
     </g>
    </g>
    <g id="patch_25">
     <path d="M 699.984 253.167431 
L 993.96 253.167431 
L 993.96 228.484954 
L 699.984 228.484954 
z
" style="fill: #f6d6c6; stroke: #000000; stroke-linejoin: miter"/>
    </g>
    <g id="text_24">
     <!-- stronger EMA hurts -->
     <g transform="translate(729.3816 243.931544) scale(0.12 -0.12)">
      <use xlink:href="#ArialMT-56"/>
      <use xlink:href="#ArialMT-57" transform="translate(50 0)"/>
      <use xlink:href="#ArialMT-55" transform="translate(77.78125 0)"/>
      <use xlink:href="#ArialMT-52" transform="translate(111.078125 0)"/>
      <use xlink:href="#ArialMT-51" transform="translate(166.6875 0)"/>
      <use xlink:href="#ArialMT-4a" transform="translate(222.296875 0)"/>
      <use xlink:href="#ArialMT-48" transform="translate(277.90625 0)"/>
      <use xlink:href="#ArialMT-55" transform="translate(333.515625 0)"/>
      <use xlink:href="#ArialMT-3" transform="translate(366.8125 0)"/>
      <use xlink:href="#ArialMT-28" transform="translate(394.59375 0)"/>
      <use xlink:href="#ArialMT-30" transform="translate(461.296875 0)"/>
      <use xlink:href="#ArialMT-24" transform="translate(544.59375 0)"/>
      <use xlink:href="#ArialMT-3" transform="translate(605.78125 0)"/>
      <use xlink:href="#ArialMT-4b" transform="translate(633.5625 0)"/>
      <use xlink:href="#ArialMT-58" transform="translate(689.171875 0)"/>
      <use xlink:href="#ArialMT-55" transform="translate(744.78125 0)"/>
      <use xlink:href="#ArialMT-57" transform="translate(778.078125 0)"/>
      <use xlink:href="#ArialMT-56" transform="translate(805.859375 0)"/>
     </g>
    </g>
   </g>
   <g id="text_25">
    <!-- Ablations that did not improve OOF pAUC (leak-verified) -->
    <g transform="translate(303.582422 25.08) scale(0.15 -0.15)">
     <defs>
      <path id="Arial-BoldMT-4f" d="M 459 0 
L 459 4581 
L 1338 4581 
L 1338 0 
L 459 0 
z
" transform="scale(0.015625)"/>
      <path id="Arial-BoldMT-4b" d="M 1334 4581 
L 1334 2897 
Q 1759 3394 2350 3394 
Q 2653 3394 2897 3281 
Q 3141 3169 3264 2994 
Q 3388 2819 3433 2606 
Q 3478 2394 3478 1947 
L 3478 0 
L 2600 0 
L 2600 1753 
Q 2600 2275 2550 2415 
Q 2500 2556 2373 2639 
Q 2247 2722 2056 2722 
Q 1838 2722 1666 2615 
Q 1494 2509 1414 2295 
Q 1334 2081 1334 1663 
L 1334 0 
L 456 0 
L 456 4581 
L 1334 4581 
z
" transform="scale(0.015625)"/>
      <path id="Arial-BoldMT-50" d="M 394 3319 
L 1203 3319 
L 1203 2866 
Q 1638 3394 2238 3394 
Q 2556 3394 2790 3262 
Q 3025 3131 3175 2866 
Q 3394 3131 3647 3262 
Q 3900 3394 4188 3394 
Q 4553 3394 4806 3245 
Q 5059 3097 5184 2809 
Q 5275 2597 5275 2122 
L 5275 0 
L 4397 0 
L 4397 1897 
Q 4397 2391 4306 2534 
Q 4184 2722 3931 2722 
Q 3747 2722 3584 2609 
Q 3422 2497 3350 2280 
Q 3278 2063 3278 1594 
L 3278 0 
L 2400 0 
L 2400 1819 
Q 2400 2303 2353 2443 
Q 2306 2584 2207 2653 
Q 2109 2722 1941 2722 
Q 1738 2722 1575 2612 
Q 1413 2503 1342 2297 
Q 1272 2091 1272 1613 
L 1272 0 
L 394 0 
L 394 3319 
z
" transform="scale(0.015625)"/>
      <path id="Arial-BoldMT-59" d="M 1372 0 
L 34 3319 
L 956 3319 
L 1581 1625 
L 1763 1059 
Q 1834 1275 1853 1344 
Q 1897 1484 1947 1625 
L 2578 3319 
L 3481 3319 
L 2163 0 
L 1372 0 
z
" transform="scale(0.015625)"/>
      <path id="Arial-BoldMT-32" d="M 278 2263 
Q 278 2963 488 3438 
Q 644 3788 914 4066 
Q 1184 4344 1506 4478 
Q 1934 4659 2494 4659 
Q 3506 4659 4114 4031 
Q 4722 3403 4722 2284 
Q 4722 1175 4119 548 
Q 3516 -78 2506 -78 
Q 1484 -78 881 545 
Q 278 1169 278 2263 
z
M 1231 2294 
Q 1231 1516 1590 1114 
Q 1950 713 2503 713 
Q 3056 713 3411 1111 
Q 3766 1509 3766 2306 
Q 3766 3094 3420 3481 
Q 3075 3869 2503 3869 
Q 1931 3869 1581 3476 
Q 1231 3084 1231 2294 
z
" transform="scale(0.015625)"/>
      <path id="Arial-BoldMT-29" d="M 472 0 
L 472 4581 
L 3613 4581 
L 3613 3806 
L 1397 3806 
L 1397 2722 
L 3309 2722 
L 3309 1947 
L 1397 1947 
L 1397 0 
L 472 0 
z
" transform="scale(0.015625)"/>
      <path id="Arial-BoldMT-b" d="M 1916 -1347 
L 1313 -1347 
Q 834 -625 584 153 
Q 334 931 334 1659 
Q 334 2563 644 3369 
Q 913 4069 1325 4659 
L 1925 4659 
Q 1497 3713 1336 3048 
Q 1175 2384 1175 1641 
Q 1175 1128 1270 590 
Q 1366 53 1531 -431 
Q 1641 -750 1916 -1347 
z
" transform="scale(0.015625)"/>
      <path id="Arial-BoldMT-4e" d="M 428 0 
L 428 4581 
L 1306 4581 
L 1306 2150 
L 2334 3319 
L 3416 3319 
L 2281 2106 
L 3497 0 
L 2550 0 
L 1716 1491 
L 1306 1063 
L 1306 0 
L 428 0 
z
" transform="scale(0.015625)"/>
      <path id="Arial-BoldMT-10" d="M 359 1222 
L 359 2100 
L 2084 2100 
L 2084 1222 
L 359 1222 
z
" transform="scale(0.015625)"/>
      <path id="Arial-BoldMT-c" d="M 216 -1347 
Q 475 -791 581 -494 
Q 688 -197 778 190 
Q 869 578 912 926 
Q 956 1275 956 1641 
Q 956 2384 797 3048 
Q 638 3713 209 4659 
L 806 4659 
Q 1278 3988 1539 3234 
Q 1800 2481 1800 1706 
Q 1800 1053 1594 306 
Q 1359 -531 822 -1347 
L 216 -1347 
z
" transform="scale(0.015625)"/>
     </defs>
     <use xlink:href="#Arial-BoldMT-24"/>
     <use xlink:href="#Arial-BoldMT-45" transform="translate(72.21875 0)"/>
     <use xlink:href="#Arial-BoldMT-4f" transform="translate(133.296875 0)"/>
     <use xlink:href="#Arial-BoldMT-44" transform="translate(161.078125 0)"/>
     <use xlink:href="#Arial-BoldMT-57" transform="translate(216.6875 0)"/>
     <use xlink:href="#Arial-BoldMT-4c" transform="translate(249.984375 0)"/>
     <use xlink:href="#Arial-BoldMT-52" transform="translate(277.765625 0)"/>
     <use xlink:href="#Arial-BoldMT-51" transform="translate(338.84375 0)"/>
     <use xlink:href="#Arial-BoldMT-56" transform="translate(399.921875 0)"/>
     <use xlink:href="#Arial-BoldMT-3" transform="translate(455.53125 0)"/>
     <use xlink:href="#Arial-BoldMT-57" transform="translate(483.3125 0)"/>
     <use xlink:href="#Arial-BoldMT-4b" transform="translate(516.609375 0)"/>
     <use xlink:href="#Arial-BoldMT-44" transform="translate(577.6875 0)"/>
     <use xlink:href="#Arial-BoldMT-57" transform="translate(633.296875 0)"/>
     <use xlink:href="#Arial-BoldMT-3" transform="translate(666.59375 0)"/>
     <use xlink:href="#Arial-BoldMT-47" transform="translate(694.375 0)"/>
     <use xlink:href="#Arial-BoldMT-4c" transform="translate(755.453125 0)"/>
     <use xlink:href="#Arial-BoldMT-47" transform="translate(783.234375 0)"/>
     <use xlink:href="#Arial-BoldMT-3" transform="translate(844.3125 0)"/>
     <use xlink:href="#Arial-BoldMT-51" transform="translate(872.09375 0)"/>
     <use xlink:href="#Arial-BoldMT-52" transform="translate(933.171875 0)"/>
     <use xlink:href="#Arial-BoldMT-57" transform="translate(994.25 0)"/>
     <use xlink:href="#Arial-BoldMT-3" transform="translate(1027.546875 0)"/>
     <use xlink:href="#Arial-BoldMT-4c" transform="translate(1055.328125 0)"/>
     <use xlink:href="#Arial-BoldMT-50" transform="translate(1083.109375 0)"/>
     <use xlink:href="#Arial-BoldMT-53" transform="translate(1172.03125 0)"/>
     <use xlink:href="#Arial-BoldMT-55" transform="translate(1233.109375 0)"/>
     <use xlink:href="#Arial-BoldMT-52" transform="translate(1272.03125 0)"/>
     <use xlink:href="#Arial-BoldMT-59" transform="translate(1333.109375 0)"/>
     <use xlink:href="#Arial-BoldMT-48" transform="translate(1388.71875 0)"/>
     <use xlink:href="#Arial-BoldMT-3" transform="translate(1444.328125 0)"/>
     <use xlink:href="#Arial-BoldMT-32" transform="translate(1472.109375 0)"/>
     <use xlink:href="#Arial-BoldMT-32" transform="translate(1549.890625 0)"/>
     <use xlink:href="#Arial-BoldMT-29" transform="translate(1627.671875 0)"/>
     <use xlink:href="#Arial-BoldMT-3" transform="translate(1688.75 0)"/>
     <use xlink:href="#Arial-BoldMT-53" transform="translate(1716.53125 0)"/>
     <use xlink:href="#Arial-BoldMT-24" transform="translate(1777.609375 0)"/>
     <use xlink:href="#Arial-BoldMT-38" transform="translate(1849.828125 0)"/>
     <use xlink:href="#Arial-BoldMT-26" transform="translate(1922.046875 0)"/>
     <use xlink:href="#Arial-BoldMT-3" transform="translate(1994.265625 0)"/>
     <use xlink:href="#Arial-BoldMT-b" transform="translate(2022.046875 0)"/>
     <use xlink:href="#Arial-BoldMT-4f" transform="translate(2055.34375 0)"/>
     <use xlink:href="#Arial-BoldMT-48" transform="translate(2083.125 0)"/>
     <use xlink:href="#Arial-BoldMT-44" transform="translate(2138.734375 0)"/>
     <use xlink:href="#Arial-BoldMT-4e" transform="translate(2194.34375 0)"/>
     <use xlink:href="#Arial-BoldMT-10" transform="translate(2249.953125 0)"/>
     <use xlink:href="#Arial-BoldMT-59" transform="translate(2283.25 0)"/>
     <use xlink:href="#Arial-BoldMT-48" transform="translate(2338.859375 0)"/>
     <use xlink:href="#Arial-BoldMT-55" transform="translate(2394.46875 0)"/>
     <use xlink:href="#Arial-BoldMT-4c" transform="translate(2433.390625 0)"/>
     <use xlink:href="#Arial-BoldMT-49" transform="translate(2461.171875 0)"/>
     <use xlink:href="#Arial-BoldMT-4c" transform="translate(2494.46875 0)"/>
     <use xlink:href="#Arial-BoldMT-48" transform="translate(2522.25 0)"/>
     <use xlink:href="#Arial-BoldMT-47" transform="translate(2577.859375 0)"/>
     <use xlink:href="#Arial-BoldMT-c" transform="translate(2638.9375 0)"/>
    </g>
   </g>
  </g>
 </g>
</svg>
