<?xml version="1.0" encoding="utf-8" standalone="no"?>
<!DOCTYPE svg PUBLIC "-//W3C//DTD SVG 1.1//EN"
  "http://www.w3.org/Graphics/SVG/1.1/DTD/svg11.dtd">
<svg xmlns:xlink="http://www.w3.org/1999/xlink" width="648pt" height="475.2pt" viewBox="0 0 648 475.2" xmlns="http://www.w3.org/2000/svg" version="1.1">
 <metadata>
  <rdf:RDF xmlns:dc="http://purl.org/dc/elements/1.1/" xmlns:cc="http://creativecommons.org/ns#" xmlns:rdf="http://www.w3.org/1999/02/22-rdf-syntax-ns#">
   <cc:Work>
    <dc:type rdf:resource="http://purl.org/dc/dcmitype/StillImage"/>
    <dc:date>2026-06-16T08:25:09.105540</dc:date>
    <dc:format>image/svg+xml</dc:format>
    <dc:creator>
     <cc:Agent>
      <dc:title>Matplotlib v3.11.0, https://matplotlib.org/</dc:title>
     </cc:Agent>
    </dc:creator>
   </cc:Work>
  </rdf:RDF>
 </metadata>
 <defs>
  <style type="text/css">*{stroke-linejoin: round; stroke-linecap: butt}</style>
 </defs>
 <g id="figure_1">
  <g id="patch_1">
   <path d="M 0 475.2 
L 648 475.2 
L 648 0 
L 0 0 
z
" style="fill: #ffffff"/>
  </g>
  <g id="axes_1">
   <g id="patch_2">
    <path d="M 49.567271 435.43392 
L 542.551177 435.43392 
L 542.551177 37.370894 
L 49.567271 37.370894 
z
" style="fill: #ffffff"/>
   </g>
   <g id="matplotlib.axis_1">
    <g id="xtick_1">
     <g id="line2d_1">
      <path d="M 341.515671 435.43392 
L 341.515671 37.370894 
" clip-path="url(#pccc2e21f66)" style="fill: none; stroke-dasharray: 0.8,1.32; stroke-dashoffset: 0; stroke: #b0b0b0; stroke-opacity: 0.35; stroke-width: 0.8"/>
     </g>
     <g id="line2d_2">
      <defs>
       <path id="m5b69c0c6be" d="M 0 0 
L 0 3.5 
" style="stroke: #000000; stroke-width: 0.8"/>
      </defs>
      <g>
       <use xlink:href="#m5b69c0c6be" x="341.515671" y="435.43392" style="stroke: #000000; stroke-width: 0.8"/>
      </g>
     </g>
     <g id="text_1">
      <!-- $\mathdefault{10^{1}}$ -->
      <g transform="translate(332.275671 453.47392) scale(0.12 -0.12)">
       <defs>
        <path id="ArialMT-14" d="M 2384 0 
L 1822 0 
L 1822 3584 
Q 1619 3391 1289 3197 
Q 959 3003 697 2906 
L 697 3450 
Q 1169 3672 1522 3987 
Q 1875 4303 2022 4600 
L 2384 4600 
L 2384 0 
z
" transform="scale(0.015625)"/>
        <path id="ArialMT-13" d="M 266 2259 
Q 266 3072 433 3567 
Q 600 4063 929 4331 
Q 1259 4600 1759 4600 
Q 2128 4600 2406 4451 
Q 2684 4303 2865 4023 
Q 3047 3744 3150 3342 
Q 3253 2941 3253 2259 
Q 3253 1453 3087 958 
Q 2922 463 2592 192 
Q 2263 -78 1759 -78 
Q 1097 -78 719 397 
Q 266 969 266 2259 
z
M 844 2259 
Q 844 1131 1108 757 
Q 1372 384 1759 384 
Q 2147 384 2411 759 
Q 2675 1134 2675 2259 
Q 2675 3391 2411 3762 
Q 2147 4134 1753 4134 
Q 1366 4134 1134 3806 
Q 844 3388 844 2259 
z
" transform="scale(0.015625)"/>
       </defs>
       <use xlink:href="#ArialMT-14" transform="translate(0 0.3875)"/>
       <use xlink:href="#ArialMT-13" transform="translate(55.615234 0.3875)"/>
       <use xlink:href="#ArialMT-14" transform="translate(112.1875 41.6875) scale(0.7)"/>
      </g>
     </g>
    </g>
    <g id="xtick_2">
     <g id="line2d_3">
      <path d="M 60.999468 435.43392 
L 60.999468 37.370894 
" clip-path="url(#pccc2e21f66)" style="fill: none; stroke-dasharray: 0.8,1.32; stroke-dashoffset: 0; stroke: #b0b0b0; stroke-opacity: 0.35; stroke-width: 0.8"/>
     </g>
     <g id="line2d_4">
      <defs>
       <path id="m0189f2ad0c" d="M 0 0 
L 0 2 
" style="stroke: #000000; stroke-width: 0.6"/>
      </defs>
      <g>
       <use xlink:href="#m0189f2ad0c" x="60.999468" y="435.43392" style="stroke: #000000; stroke-width: 0.6"/>
      </g>
     </g>
     <g id="text_2">
      <!-- $\mathdefault{2\times10^{0}}$ -->
      <g transform="translate(42.579468 451.87392) scale(0.12 -0.12)">
       <defs>
        <path id="ArialMT-15" d="M 3222 541 
L 3222 0 
L 194 0 
Q 188 203 259 391 
Q 375 700 629 1000 
Q 884 1300 1366 1694 
Q 2113 2306 2375 2664 
Q 2638 3022 2638 3341 
Q 2638 3675 2398 3904 
Q 2159 4134 1775 4134 
Q 1369 4134 1125 3890 
Q 881 3647 878 3216 
L 300 3275 
Q 359 3922 746 4261 
Q 1134 4600 1788 4600 
Q 2447 4600 2831 4234 
Q 3216 3869 3216 3328 
Q 3216 3053 3103 2787 
Q 2991 2522 2730 2228 
Q 2469 1934 1863 1422 
Q 1356 997 1212 845 
Q 1069 694 975 541 
L 3222 541 
z
" transform="scale(0.015625)"/>
        <path id="ArialMT-ee" d="M 503 1278 
L 1488 2263 
L 506 3244 
L 888 3625 
L 1869 2644 
L 2847 3622 
L 3222 3244 
L 2247 2266 
L 3228 1284 
L 2847 903 
L 1866 1884 
L 881 900 
L 503 1278 
z
" transform="scale(0.015625)"/>
       </defs>
       <use xlink:href="#ArialMT-15" transform="translate(0 0.3875)"/>
       <use xlink:href="#ArialMT-ee" transform="translate(75.097656 0.3875)"/>
       <use xlink:href="#ArialMT-14" transform="translate(152.978516 0.3875)"/>
       <use xlink:href="#ArialMT-13" transform="translate(208.59375 0.3875)"/>
       <use xlink:href="#ArialMT-13" transform="translate(265.166016 41.6875) scale(0.7)"/>
      </g>
     </g>
    </g>
    <g id="xtick_3">
     <g id="line2d_5">
      <path d="M 131.669813 435.43392 
L 131.669813 37.370894 
" clip-path="url(#pccc2e21f66)" style="fill: none; stroke-dasharray: 0.8,1.32; stroke-dashoffset: 0; stroke: #b0b0b0; stroke-opacity: 0.35; stroke-width: 0.8"/>
     </g>
     <g id="line2d_6">
      <g>
       <use xlink:href="#m0189f2ad0c" x="131.669813" y="435.43392" style="stroke: #000000; stroke-width: 0.6"/>
      </g>
     </g>
     <g id="text_3">
      <!-- $\mathdefault{3\times10^{0}}$ -->
      <g transform="translate(113.249813 451.87392) scale(0.12 -0.12)">
       <defs>
        <path id="ArialMT-16" d="M 269 1209 
L 831 1284 
Q 928 806 1161 595 
Q 1394 384 1728 384 
Q 2125 384 2398 659 
Q 2672 934 2672 1341 
Q 2672 1728 2419 1979 
Q 2166 2231 1775 2231 
Q 1616 2231 1378 2169 
L 1441 2663 
Q 1497 2656 1531 2656 
Q 1891 2656 2178 2843 
Q 2466 3031 2466 3422 
Q 2466 3731 2256 3934 
Q 2047 4138 1716 4138 
Q 1388 4138 1169 3931 
Q 950 3725 888 3313 
L 325 3413 
Q 428 3978 793 4289 
Q 1159 4600 1703 4600 
Q 2078 4600 2393 4439 
Q 2709 4278 2876 4000 
Q 3044 3722 3044 3409 
Q 3044 3113 2884 2869 
Q 2725 2625 2413 2481 
Q 2819 2388 3044 2092 
Q 3269 1797 3269 1353 
Q 3269 753 2831 336 
Q 2394 -81 1725 -81 
Q 1122 -81 723 278 
Q 325 638 269 1209 
z
" transform="scale(0.015625)"/>
       </defs>
       <use xlink:href="#ArialMT-16" transform="translate(0 0.3875)"/>
       <use xlink:href="#ArialMT-ee" transform="translate(75.097656 0.3875)"/>
       <use xlink:href="#ArialMT-14" transform="translate(152.978516 0.3875)"/>
       <use xlink:href="#ArialMT-13" transform="translate(208.59375 0.3875)"/>
       <use xlink:href="#ArialMT-13" transform="translate(265.166016 41.6875) scale(0.7)"/>
      </g>
     </g>
    </g>
    <g id="xtick_4">
     <g id="line2d_7">
      <path d="M 181.811221 435.43392 
L 181.811221 37.370894 
" clip-path="url(#pccc2e21f66)" style="fill: none; stroke-dasharray: 0.8,1.32; stroke-dashoffset: 0; stroke: #b0b0b0; stroke-opacity: 0.35; stroke-width: 0.8"/>
     </g>
     <g id="line2d_8">
      <g>
       <use xlink:href="#m0189f2ad0c" x="181.811221" y="435.43392" style="stroke: #000000; stroke-width: 0.6"/>
      </g>
     </g>
     <g id="text_4">
      <!-- $\mathdefault{4\times10^{0}}$ -->
      <g transform="translate(163.391221 451.87392) scale(0.12 -0.12)">
       <defs>
        <path id="ArialMT-17" d="M 2069 0 
L 2069 1097 
L 81 1097 
L 81 1613 
L 2172 4581 
L 2631 4581 
L 2631 1613 
L 3250 1613 
L 3250 1097 
L 2631 1097 
L 2631 0 
L 2069 0 
z
M 2069 1613 
L 2069 3678 
L 634 1613 
L 2069 1613 
z
" transform="scale(0.015625)"/>
       </defs>
       <use xlink:href="#ArialMT-17" transform="translate(0 0.3875)"/>
       <use xlink:href="#ArialMT-ee" transform="translate(75.097656 0.3875)"/>
       <use xlink:href="#ArialMT-14" transform="translate(152.978516 0.3875)"/>
       <use xlink:href="#ArialMT-13" transform="translate(208.59375 0.3875)"/>
       <use xlink:href="#ArialMT-13" transform="translate(265.166016 41.6875) scale(0.7)"/>
      </g>
     </g>
    </g>
    <g id="xtick_5">
     <g id="line2d_9">
      <path d="M 220.703918 435.43392 
L 220.703918 37.370894 
" clip-path="url(#pccc2e21f66)" style="fill: none; stroke-dasharray: 0.8,1.32; stroke-dashoffset: 0; stroke: #b0b0b0; stroke-opacity: 0.35; stroke-width: 0.8"/>
     </g>
     <g id="line2d_10">
      <g>
       <use xlink:href="#m0189f2ad0c" x="220.703918" y="435.43392" style="stroke: #000000; stroke-width: 0.6"/>
      </g>
     </g>
    </g>
    <g id="xtick_6">
     <g id="line2d_11">
      <path d="M 252.481566 435.43392 
L 252.481566 37.370894 
" clip-path="url(#pccc2e21f66)" style="fill: none; stroke-dasharray: 0.8,1.32; stroke-dashoffset: 0; stroke: #b0b0b0; stroke-opacity: 0.35; stroke-width: 0.8"/>
     </g>
     <g id="line2d_12">
      <g>
       <use xlink:href="#m0189f2ad0c" x="252.481566" y="435.43392" style="stroke: #000000; stroke-width: 0.6"/>
      </g>
     </g>
     <g id="text_5">
      <!-- $\mathdefault{6\times10^{0}}$ -->
      <g transform="translate(234.061566 451.87392) scale(0.12 -0.12)">
       <defs>
        <path id="ArialMT-19" d="M 3184 3459 
L 2625 3416 
Q 2550 3747 2413 3897 
Q 2184 4138 1850 4138 
Q 1581 4138 1378 3988 
Q 1113 3794 959 3422 
Q 806 3050 800 2363 
Q 1003 2672 1297 2822 
Q 1591 2972 1913 2972 
Q 2475 2972 2870 2558 
Q 3266 2144 3266 1488 
Q 3266 1056 3080 686 
Q 2894 316 2569 119 
Q 2244 -78 1831 -78 
Q 1128 -78 684 439 
Q 241 956 241 2144 
Q 241 3472 731 4075 
Q 1159 4600 1884 4600 
Q 2425 4600 2770 4297 
Q 3116 3994 3184 3459 
z
M 888 1484 
Q 888 1194 1011 928 
Q 1134 663 1356 523 
Q 1578 384 1822 384 
Q 2178 384 2434 671 
Q 2691 959 2691 1453 
Q 2691 1928 2437 2201 
Q 2184 2475 1800 2475 
Q 1419 2475 1153 2201 
Q 888 1928 888 1484 
z
" transform="scale(0.015625)"/>
       </defs>
       <use xlink:href="#ArialMT-19" transform="translate(0 0.3875)"/>
       <use xlink:href="#ArialMT-ee" transform="translate(75.097656 0.3875)"/>
       <use xlink:href="#ArialMT-14" transform="translate(152.978516 0.3875)"/>
       <use xlink:href="#ArialMT-13" transform="translate(208.59375 0.3875)"/>
       <use xlink:href="#ArialMT-13" transform="translate(265.166016 41.6875) scale(0.7)"/>
      </g>
     </g>
    </g>
    <g id="xtick_7">
     <g id="line2d_13">
      <path d="M 279.349184 435.43392 
L 279.349184 37.370894 
" clip-path="url(#pccc2e21f66)" style="fill: none; stroke-dasharray: 0.8,1.32; stroke-dashoffset: 0; stroke: #b0b0b0; stroke-opacity: 0.35; stroke-width: 0.8"/>
     </g>
     <g id="line2d_14">
      <g>
       <use xlink:href="#m0189f2ad0c" x="279.349184" y="435.43392" style="stroke: #000000; stroke-width: 0.6"/>
      </g>
     </g>
    </g>
    <g id="xtick_8">
     <g id="line2d_15">
      <path d="M 302.622973 435.43392 
L 302.622973 37.370894 
" clip-path="url(#pccc2e21f66)" style="fill: none; stroke-dasharray: 0.8,1.32; stroke-dashoffset: 0; stroke: #b0b0b0; stroke-opacity: 0.35; stroke-width: 0.8"/>
     </g>
     <g id="line2d_16">
      <g>
       <use xlink:href="#m0189f2ad0c" x="302.622973" y="435.43392" style="stroke: #000000; stroke-width: 0.6"/>
      </g>
     </g>
    </g>
    <g id="xtick_9">
     <g id="line2d_17">
      <path d="M 323.151911 435.43392 
L 323.151911 37.370894 
" clip-path="url(#pccc2e21f66)" style="fill: none; stroke-dasharray: 0.8,1.32; stroke-dashoffset: 0; stroke: #b0b0b0; stroke-opacity: 0.35; stroke-width: 0.8"/>
     </g>
     <g id="line2d_18">
      <g>
       <use xlink:href="#m0189f2ad0c" x="323.151911" y="435.43392" style="stroke: #000000; stroke-width: 0.6"/>
      </g>
     </g>
    </g>
    <g id="xtick_10">
     <g id="line2d_19">
      <path d="M 462.327423 435.43392 
L 462.327423 37.370894 
" clip-path="url(#pccc2e21f66)" style="fill: none; stroke-dasharray: 0.8,1.32; stroke-dashoffset: 0; stroke: #b0b0b0; stroke-opacity: 0.35; stroke-width: 0.8"/>
     </g>
     <g id="line2d_20">
      <g>
       <use xlink:href="#m0189f2ad0c" x="462.327423" y="435.43392" style="stroke: #000000; stroke-width: 0.6"/>
      </g>
     </g>
     <g id="text_6">
      <!-- $\mathdefault{2\times10^{1}}$ -->
      <g transform="translate(443.907423 451.87392) scale(0.12 -0.12)">
       <use xlink:href="#ArialMT-15" transform="translate(0 0.3875)"/>
       <use xlink:href="#ArialMT-ee" transform="translate(75.097656 0.3875)"/>
       <use xlink:href="#ArialMT-14" transform="translate(152.978516 0.3875)"/>
       <use xlink:href="#ArialMT-13" transform="translate(208.59375 0.3875)"/>
       <use xlink:href="#ArialMT-14" transform="translate(265.166016 41.6875) scale(0.7)"/>
      </g>
     </g>
    </g>
    <g id="xtick_11">
     <g id="line2d_21">
      <path d="M 532.997768 435.43392 
L 532.997768 37.370894 
" clip-path="url(#pccc2e21f66)" style="fill: none; stroke-dasharray: 0.8,1.32; stroke-dashoffset: 0; stroke: #b0b0b0; stroke-opacity: 0.35; stroke-width: 0.8"/>
     </g>
     <g id="line2d_22">
      <g>
       <use xlink:href="#m0189f2ad0c" x="532.997768" y="435.43392" style="stroke: #000000; stroke-width: 0.6"/>
      </g>
     </g>
     <g id="text_7">
      <!-- $\mathdefault{3\times10^{1}}$ -->
      <g transform="translate(514.577768 451.87392) scale(0.12 -0.12)">
       <use xlink:href="#ArialMT-16" transform="translate(0 0.3875)"/>
       <use xlink:href="#ArialMT-ee" transform="translate(75.097656 0.3875)"/>
       <use xlink:href="#ArialMT-14" transform="translate(152.978516 0.3875)"/>
       <use xlink:href="#ArialMT-13" transform="translate(208.59375 0.3875)"/>
       <use xlink:href="#ArialMT-14" transform="translate(265.166016 41.6875) scale(0.7)"/>
      </g>
     </g>
    </g>
    <g id="text_8">
     <!-- Parameters (M) (log scale) -->
     <g transform="translate(219.130708 469.463666) scale(0.13 -0.13)">
      <defs>
       <path id="ArialMT-33" d="M 494 0 
L 494 4581 
L 2222 4581 
Q 2678 4581 2919 4538 
Q 3256 4481 3484 4323 
Q 3713 4166 3852 3881 
Q 3991 3597 3991 3256 
Q 3991 2672 3619 2267 
Q 3247 1863 2275 1863 
L 1100 1863 
L 1100 0 
L 494 0 
z
M 1100 2403 
L 2284 2403 
Q 2872 2403 3119 2622 
Q 3366 2841 3366 3238 
Q 3366 3525 3220 3729 
Q 3075 3934 2838 4000 
Q 2684 4041 2272 4041 
L 1100 4041 
L 1100 2403 
z
" transform="scale(0.015625)"/>
       <path id="ArialMT-44" d="M 2588 409 
Q 2275 144 1986 34 
Q 1697 -75 1366 -75 
Q 819 -75 525 192 
Q 231 459 231 875 
Q 231 1119 342 1320 
Q 453 1522 633 1644 
Q 813 1766 1038 1828 
Q 1203 1872 1538 1913 
Q 2219 1994 2541 2106 
Q 2544 2222 2544 2253 
Q 2544 2597 2384 2738 
Q 2169 2928 1744 2928 
Q 1347 2928 1158 2789 
Q 969 2650 878 2297 
L 328 2372 
Q 403 2725 575 2942 
Q 747 3159 1072 3276 
Q 1397 3394 1825 3394 
Q 2250 3394 2515 3294 
Q 2781 3194 2906 3042 
Q 3031 2891 3081 2659 
Q 3109 2516 3109 2141 
L 3109 1391 
Q 3109 606 3145 398 
Q 3181 191 3288 0 
L 2700 0 
Q 2613 175 2588 409 
z
M 2541 1666 
Q 2234 1541 1622 1453 
Q 1275 1403 1131 1340 
Q 988 1278 909 1158 
Q 831 1038 831 891 
Q 831 666 1001 516 
Q 1172 366 1500 366 
Q 1825 366 2078 508 
Q 2331 650 2450 897 
Q 2541 1088 2541 1459 
L 2541 1666 
z
" transform="scale(0.015625)"/>
       <path id="ArialMT-55" d="M 416 0 
L 416 3319 
L 922 3319 
L 922 2816 
Q 1116 3169 1280 3281 
Q 1444 3394 1641 3394 
Q 1925 3394 2219 3213 
L 2025 2691 
Q 1819 2813 1613 2813 
Q 1428 2813 1281 2702 
Q 1134 2591 1072 2394 
Q 978 2094 978 1738 
L 978 0 
L 416 0 
z
" transform="scale(0.015625)"/>
       <path id="ArialMT-50" d="M 422 0 
L 422 3319 
L 925 3319 
L 925 2853 
Q 1081 3097 1340 3245 
Q 1600 3394 1931 3394 
Q 2300 3394 2536 3241 
Q 2772 3088 2869 2813 
Q 3263 3394 3894 3394 
Q 4388 3394 4653 3120 
Q 4919 2847 4919 2278 
L 4919 0 
L 4359 0 
L 4359 2091 
Q 4359 2428 4304 2576 
Q 4250 2725 4106 2815 
Q 3963 2906 3769 2906 
Q 3419 2906 3187 2673 
Q 2956 2441 2956 1928 
L 2956 0 
L 2394 0 
L 2394 2156 
Q 2394 2531 2256 2718 
Q 2119 2906 1806 2906 
Q 1569 2906 1367 2781 
Q 1166 2656 1075 2415 
Q 984 2175 984 1722 
L 984 0 
L 422 0 
z
" transform="scale(0.015625)"/>
       <path id="ArialMT-48" d="M 2694 1069 
L 3275 997 
Q 3138 488 2766 206 
Q 2394 -75 1816 -75 
Q 1088 -75 661 373 
Q 234 822 234 1631 
Q 234 2469 665 2931 
Q 1097 3394 1784 3394 
Q 2450 3394 2872 2941 
Q 3294 2488 3294 1666 
Q 3294 1616 3291 1516 
L 816 1516 
Q 847 969 1125 678 
Q 1403 388 1819 388 
Q 2128 388 2347 550 
Q 2566 713 2694 1069 
z
M 847 1978 
L 2700 1978 
Q 2663 2397 2488 2606 
Q 2219 2931 1791 2931 
Q 1403 2931 1139 2672 
Q 875 2413 847 1978 
z
" transform="scale(0.015625)"/>
       <path id="ArialMT-57" d="M 1650 503 
L 1731 6 
Q 1494 -44 1306 -44 
Q 1000 -44 831 53 
Q 663 150 594 308 
Q 525 466 525 972 
L 525 2881 
L 113 2881 
L 113 3319 
L 525 3319 
L 525 4141 
L 1084 4478 
L 1084 3319 
L 1650 3319 
L 1650 2881 
L 1084 2881 
L 1084 941 
Q 1084 700 1114 631 
Q 1144 563 1211 522 
Q 1278 481 1403 481 
Q 1497 481 1650 503 
z
" transform="scale(0.015625)"/>
       <path id="ArialMT-56" d="M 197 991 
L 753 1078 
Q 800 744 1014 566 
Q 1228 388 1613 388 
Q 2000 388 2187 545 
Q 2375 703 2375 916 
Q 2375 1106 2209 1216 
Q 2094 1291 1634 1406 
Q 1016 1563 777 1677 
Q 538 1791 414 1992 
Q 291 2194 291 2438 
Q 291 2659 392 2848 
Q 494 3038 669 3163 
Q 800 3259 1026 3326 
Q 1253 3394 1513 3394 
Q 1903 3394 2198 3281 
Q 2494 3169 2634 2976 
Q 2775 2784 2828 2463 
L 2278 2388 
Q 2241 2644 2061 2787 
Q 1881 2931 1553 2931 
Q 1166 2931 1000 2803 
Q 834 2675 834 2503 
Q 834 2394 903 2306 
Q 972 2216 1119 2156 
Q 1203 2125 1616 2013 
Q 2213 1853 2448 1751 
Q 2684 1650 2818 1456 
Q 2953 1263 2953 975 
Q 2953 694 2789 445 
Q 2625 197 2315 61 
Q 2006 -75 1616 -75 
Q 969 -75 630 194 
Q 291 463 197 991 
z
" transform="scale(0.015625)"/>
       <path id="ArialMT-3" transform="scale(0.015625)"/>
       <path id="ArialMT-b" d="M 1497 -1347 
Q 1031 -759 709 28 
Q 388 816 388 1659 
Q 388 2403 628 3084 
Q 909 3875 1497 4659 
L 1900 4659 
Q 1522 4009 1400 3731 
Q 1209 3300 1100 2831 
Q 966 2247 966 1656 
Q 966 153 1900 -1347 
L 1497 -1347 
z
" transform="scale(0.015625)"/>
       <path id="ArialMT-30" d="M 475 0 
L 475 4581 
L 1388 4581 
L 2472 1338 
Q 2622 884 2691 659 
Q 2769 909 2934 1394 
L 4031 4581 
L 4847 4581 
L 4847 0 
L 4263 0 
L 4263 3834 
L 2931 0 
L 2384 0 
L 1059 3900 
L 1059 0 
L 475 0 
z
" transform="scale(0.015625)"/>
       <path id="ArialMT-c" d="M 791 -1347 
L 388 -1347 
Q 1322 153 1322 1656 
Q 1322 2244 1188 2822 
Q 1081 3291 891 3722 
Q 769 4003 388 4659 
L 791 4659 
Q 1378 3875 1659 3084 
Q 1900 2403 1900 1659 
Q 1900 816 1576 28 
Q 1253 -759 791 -1347 
z
" transform="scale(0.015625)"/>
       <path id="ArialMT-4f" d="M 409 0 
L 409 4581 
L 972 4581 
L 972 0 
L 409 0 
z
" transform="scale(0.015625)"/>
       <path id="ArialMT-52" d="M 213 1659 
Q 213 2581 725 3025 
Q 1153 3394 1769 3394 
Q 2453 3394 2887 2945 
Q 3322 2497 3322 1706 
Q 3322 1066 3130 698 
Q 2938 331 2570 128 
Q 2203 -75 1769 -75 
Q 1072 -75 642 372 
Q 213 819 213 1659 
z
M 791 1659 
Q 791 1022 1069 705 
Q 1347 388 1769 388 
Q 2188 388 2466 706 
Q 2744 1025 2744 1678 
Q 2744 2294 2464 2611 
Q 2184 2928 1769 2928 
Q 1347 2928 1069 2612 
Q 791 2297 791 1659 
z
" transform="scale(0.015625)"/>
       <path id="ArialMT-4a" d="M 319 -275 
L 866 -356 
Q 900 -609 1056 -725 
Q 1266 -881 1628 -881 
Q 2019 -881 2231 -725 
Q 2444 -569 2519 -288 
Q 2563 -116 2559 434 
Q 2191 0 1641 0 
Q 956 0 581 494 
Q 206 988 206 1678 
Q 206 2153 378 2554 
Q 550 2956 876 3175 
Q 1203 3394 1644 3394 
Q 2231 3394 2613 2919 
L 2613 3319 
L 3131 3319 
L 3131 450 
Q 3131 -325 2973 -648 
Q 2816 -972 2473 -1159 
Q 2131 -1347 1631 -1347 
Q 1038 -1347 672 -1080 
Q 306 -813 319 -275 
z
M 784 1719 
Q 784 1066 1043 766 
Q 1303 466 1694 466 
Q 2081 466 2343 764 
Q 2606 1063 2606 1700 
Q 2606 2309 2336 2618 
Q 2066 2928 1684 2928 
Q 1309 2928 1046 2623 
Q 784 2319 784 1719 
z
" transform="scale(0.015625)"/>
       <path id="ArialMT-46" d="M 2588 1216 
L 3141 1144 
Q 3050 572 2676 248 
Q 2303 -75 1759 -75 
Q 1078 -75 664 370 
Q 250 816 250 1647 
Q 250 2184 428 2587 
Q 606 2991 970 3192 
Q 1334 3394 1763 3394 
Q 2303 3394 2647 3120 
Q 2991 2847 3088 2344 
L 2541 2259 
Q 2463 2594 2264 2762 
Q 2066 2931 1784 2931 
Q 1359 2931 1093 2626 
Q 828 2322 828 1663 
Q 828 994 1084 691 
Q 1341 388 1753 388 
Q 2084 388 2306 591 
Q 2528 794 2588 1216 
z
" transform="scale(0.015625)"/>
      </defs>
      <use xlink:href="#ArialMT-33"/>
      <use xlink:href="#ArialMT-44" transform="translate(66.703125 0)"/>
      <use xlink:href="#ArialMT-55" transform="translate(122.3125 0)"/>
      <use xlink:href="#ArialMT-44" transform="translate(155.609375 0)"/>
      <use xlink:href="#ArialMT-50" transform="translate(211.21875 0)"/>
      <use xlink:href="#ArialMT-48" transform="translate(294.515625 0)"/>
      <use xlink:href="#ArialMT-57" transform="translate(350.125 0)"/>
      <use xlink:href="#ArialMT-48" transform="translate(377.90625 0)"/>
      <use xlink:href="#ArialMT-55" transform="translate(433.515625 0)"/>
      <use xlink:href="#ArialMT-56" transform="translate(466.8125 0)"/>
      <use xlink:href="#ArialMT-3" transform="translate(516.8125 0)"/>
      <use xlink:href="#ArialMT-b" transform="translate(544.59375 0)"/>
      <use xlink:href="#ArialMT-30" transform="translate(577.890625 0)"/>
      <use xlink:href="#ArialMT-c" transform="translate(661.1875 0)"/>
      <use xlink:href="#ArialMT-3" transform="translate(694.484375 0)"/>
      <use xlink:href="#ArialMT-b" transform="translate(722.265625 0)"/>
      <use xlink:href="#ArialMT-4f" transform="translate(755.5625 0)"/>
      <use xlink:href="#ArialMT-52" transform="translate(777.78125 0)"/>
      <use xlink:href="#ArialMT-4a" transform="translate(833.390625 0)"/>
      <use xlink:href="#ArialMT-3" transform="translate(889 0)"/>
      <use xlink:href="#ArialMT-56" transform="translate(916.78125 0)"/>
      <use xlink:href="#ArialMT-46" transform="translate(966.78125 0)"/>
      <use xlink:href="#ArialMT-44" transform="translate(1016.78125 0)"/>
      <use xlink:href="#ArialMT-4f" transform="translate(1072.390625 0)"/>
      <use xlink:href="#ArialMT-48" transform="translate(1094.609375 0)"/>
      <use xlink:href="#ArialMT-c" transform="translate(1150.21875 0)"/>
     </g>
    </g>
   </g>
   <g id="matplotlib.axis_2">
    <g id="ytick_1">
     <g id="line2d_23">
      <path d="M 49.567271 374.020397 
L 542.551177 374.020397 
" clip-path="url(#pccc2e21f66)" style="fill: none; stroke-dasharray: 0.8,1.32; stroke-dashoffset: 0; stroke: #b0b0b0; stroke-opacity: 0.35; stroke-width: 0.8"/>
     </g>
     <g id="line2d_24">
      <defs>
       <path id="m93e140a928" d="M 0 0 
L -3.5 0 
" style="stroke: #000000; stroke-width: 0.8"/>
      </defs>
      <g>
       <use xlink:href="#m93e140a928" x="49.567271" y="374.020397" style="stroke: #000000; stroke-width: 0.8"/>
      </g>
     </g>
     <g id="text_9">
      <!-- 0.10 -->
      <g transform="translate(19.214146 378.388561) scale(0.12 -0.12)">
       <defs>
        <path id="ArialMT-11" d="M 581 0 
L 581 641 
L 1222 641 
L 1222 0 
L 581 0 
z
" transform="scale(0.015625)"/>
       </defs>
       <use xlink:href="#ArialMT-13"/>
       <use xlink:href="#ArialMT-11" transform="translate(55.609375 0)"/>
       <use xlink:href="#ArialMT-14" transform="translate(83.390625 0)"/>
       <use xlink:href="#ArialMT-13" transform="translate(139 0)"/>
      </g>
     </g>
    </g>
    <g id="ytick_2">
     <g id="line2d_25">
      <path d="M 49.567271 299.228011 
L 542.551177 299.228011 
" clip-path="url(#pccc2e21f66)" style="fill: none; stroke-dasharray: 0.8,1.32; stroke-dashoffset: 0; stroke: #b0b0b0; stroke-opacity: 0.35; stroke-width: 0.8"/>
     </g>
     <g id="line2d_26">
      <g>
       <use xlink:href="#m93e140a928" x="49.567271" y="299.228011" style="stroke: #000000; stroke-width: 0.8"/>
      </g>
     </g>
     <g id="text_10">
      <!-- 0.12 -->
      <g transform="translate(19.214146 303.596175) scale(0.12 -0.12)">
       <use xlink:href="#ArialMT-13"/>
       <use xlink:href="#ArialMT-11" transform="translate(55.609375 0)"/>
       <use xlink:href="#ArialMT-14" transform="translate(83.390625 0)"/>
       <use xlink:href="#ArialMT-15" transform="translate(139 0)"/>
      </g>
     </g>
    </g>
    <g id="ytick_3">
     <g id="line2d_27">
      <path d="M 49.567271 224.435626 
L 542.551177 224.435626 
" clip-path="url(#pccc2e21f66)" style="fill: none; stroke-dasharray: 0.8,1.32; stroke-dashoffset: 0; stroke: #b0b0b0; stroke-opacity: 0.35; stroke-width: 0.8"/>
     </g>
     <g id="line2d_28">
      <g>
       <use xlink:href="#m93e140a928" x="49.567271" y="224.435626" style="stroke: #000000; stroke-width: 0.8"/>
      </g>
     </g>
     <g id="text_11">
      <!-- 0.14 -->
      <g transform="translate(19.214146 228.80379) scale(0.12 -0.12)">
       <use xlink:href="#ArialMT-13"/>
       <use xlink:href="#ArialMT-11" transform="translate(55.609375 0)"/>
       <use xlink:href="#ArialMT-14" transform="translate(83.390625 0)"/>
       <use xlink:href="#ArialMT-17" transform="translate(139 0)"/>
      </g>
     </g>
    </g>
    <g id="ytick_4">
     <g id="line2d_29">
      <path d="M 49.567271 149.64324 
L 542.551177 149.64324 
" clip-path="url(#pccc2e21f66)" style="fill: none; stroke-dasharray: 0.8,1.32; stroke-dashoffset: 0; stroke: #b0b0b0; stroke-opacity: 0.35; stroke-width: 0.8"/>
     </g>
     <g id="line2d_30">
      <g>
       <use xlink:href="#m93e140a928" x="49.567271" y="149.64324" style="stroke: #000000; stroke-width: 0.8"/>
      </g>
     </g>
     <g id="text_12">
      <!-- 0.16 -->
      <g transform="translate(19.214146 154.011404) scale(0.12 -0.12)">
       <use xlink:href="#ArialMT-13"/>
       <use xlink:href="#ArialMT-11" transform="translate(55.609375 0)"/>
       <use xlink:href="#ArialMT-14" transform="translate(83.390625 0)"/>
       <use xlink:href="#ArialMT-19" transform="translate(139 0)"/>
      </g>
     </g>
    </g>
    <g id="ytick_5">
     <g id="line2d_31">
      <path d="M 49.567271 74.850855 
L 542.551177 74.850855 
" clip-path="url(#pccc2e21f66)" style="fill: none; stroke-dasharray: 0.8,1.32; stroke-dashoffset: 0; stroke: #b0b0b0; stroke-opacity: 0.35; stroke-width: 0.8"/>
     </g>
     <g id="line2d_32">
      <g>
       <use xlink:href="#m93e140a928" x="49.567271" y="74.850855" style="stroke: #000000; stroke-width: 0.8"/>
      </g>
     </g>
     <g id="text_13">
      <!-- 0.18 -->
      <g transform="translate(19.214146 79.219019) scale(0.12 -0.12)">
       <defs>
        <path id="ArialMT-1b" d="M 1131 2484 
Q 781 2613 612 2850 
Q 444 3088 444 3419 
Q 444 3919 803 4259 
Q 1163 4600 1759 4600 
Q 2359 4600 2725 4251 
Q 3091 3903 3091 3403 
Q 3091 3084 2923 2848 
Q 2756 2613 2416 2484 
Q 2838 2347 3058 2040 
Q 3278 1734 3278 1309 
Q 3278 722 2862 322 
Q 2447 -78 1769 -78 
Q 1091 -78 675 323 
Q 259 725 259 1325 
Q 259 1772 486 2073 
Q 713 2375 1131 2484 
z
M 1019 3438 
Q 1019 3113 1228 2906 
Q 1438 2700 1772 2700 
Q 2097 2700 2305 2904 
Q 2513 3109 2513 3406 
Q 2513 3716 2298 3927 
Q 2084 4138 1766 4138 
Q 1444 4138 1231 3931 
Q 1019 3725 1019 3438 
z
M 838 1322 
Q 838 1081 952 856 
Q 1066 631 1291 507 
Q 1516 384 1775 384 
Q 2178 384 2440 643 
Q 2703 903 2703 1303 
Q 2703 1709 2433 1975 
Q 2163 2241 1756 2241 
Q 1359 2241 1098 1978 
Q 838 1716 838 1322 
z
" transform="scale(0.015625)"/>
       </defs>
       <use xlink:href="#ArialMT-13"/>
       <use xlink:href="#ArialMT-11" transform="translate(55.609375 0)"/>
       <use xlink:href="#ArialMT-14" transform="translate(83.390625 0)"/>
       <use xlink:href="#ArialMT-1b" transform="translate(139 0)"/>
      </g>
     </g>
    </g>
    <g id="text_14">
     <!-- OOF pAUC @ 80% TPR -->
     <g transform="translate(12.478052 307.535767) rotate(-90) scale(0.13 -0.13)">
      <defs>
       <path id="ArialMT-32" d="M 309 2231 
Q 309 3372 921 4017 
Q 1534 4663 2503 4663 
Q 3138 4663 3647 4359 
Q 4156 4056 4423 3514 
Q 4691 2972 4691 2284 
Q 4691 1588 4409 1038 
Q 4128 488 3612 205 
Q 3097 -78 2500 -78 
Q 1853 -78 1343 234 
Q 834 547 571 1087 
Q 309 1628 309 2231 
z
M 934 2222 
Q 934 1394 1379 917 
Q 1825 441 2497 441 
Q 3181 441 3623 922 
Q 4066 1403 4066 2288 
Q 4066 2847 3877 3264 
Q 3688 3681 3323 3911 
Q 2959 4141 2506 4141 
Q 1863 4141 1398 3698 
Q 934 3256 934 2222 
z
" transform="scale(0.015625)"/>
       <path id="ArialMT-29" d="M 525 0 
L 525 4581 
L 3616 4581 
L 3616 4041 
L 1131 4041 
L 1131 2622 
L 3281 2622 
L 3281 2081 
L 1131 2081 
L 1131 0 
L 525 0 
z
" transform="scale(0.015625)"/>
       <path id="ArialMT-53" d="M 422 -1272 
L 422 3319 
L 934 3319 
L 934 2888 
Q 1116 3141 1344 3267 
Q 1572 3394 1897 3394 
Q 2322 3394 2647 3175 
Q 2972 2956 3137 2557 
Q 3303 2159 3303 1684 
Q 3303 1175 3120 767 
Q 2938 359 2589 142 
Q 2241 -75 1856 -75 
Q 1575 -75 1351 44 
Q 1128 163 984 344 
L 984 -1272 
L 422 -1272 
z
M 931 1641 
Q 931 1000 1190 694 
Q 1450 388 1819 388 
Q 2194 388 2461 705 
Q 2728 1022 2728 1688 
Q 2728 2322 2467 2637 
Q 2206 2953 1844 2953 
Q 1484 2953 1207 2617 
Q 931 2281 931 1641 
z
" transform="scale(0.015625)"/>
       <path id="ArialMT-24" d="M -9 0 
L 1750 4581 
L 2403 4581 
L 4278 0 
L 3588 0 
L 3053 1388 
L 1138 1388 
L 634 0 
L -9 0 
z
M 1313 1881 
L 2866 1881 
L 2388 3150 
Q 2169 3728 2063 4100 
Q 1975 3659 1816 3225 
L 1313 1881 
z
" transform="scale(0.015625)"/>
       <path id="ArialMT-38" d="M 3500 4581 
L 4106 4581 
L 4106 1934 
Q 4106 1244 3950 837 
Q 3794 431 3386 176 
Q 2978 -78 2316 -78 
Q 1672 -78 1262 144 
Q 853 366 678 786 
Q 503 1206 503 1934 
L 503 4581 
L 1109 4581 
L 1109 1938 
Q 1109 1341 1220 1058 
Q 1331 775 1601 622 
Q 1872 469 2263 469 
Q 2931 469 3215 772 
Q 3500 1075 3500 1938 
L 3500 4581 
z
" transform="scale(0.015625)"/>
       <path id="ArialMT-26" d="M 3763 1606 
L 4369 1453 
Q 4178 706 3683 314 
Q 3188 -78 2472 -78 
Q 1731 -78 1267 223 
Q 803 525 561 1097 
Q 319 1669 319 2325 
Q 319 3041 592 3573 
Q 866 4106 1370 4382 
Q 1875 4659 2481 4659 
Q 3169 4659 3637 4309 
Q 4106 3959 4291 3325 
L 3694 3184 
Q 3534 3684 3231 3912 
Q 2928 4141 2469 4141 
Q 1941 4141 1586 3887 
Q 1231 3634 1087 3207 
Q 944 2781 944 2328 
Q 944 1744 1114 1308 
Q 1284 872 1643 656 
Q 2003 441 2422 441 
Q 2931 441 3284 734 
Q 3638 1028 3763 1606 
z
" transform="scale(0.015625)"/>
       <path id="ArialMT-23" d="M 3628 509 
Q 3425 275 3173 133 
Q 2922 -9 2669 -9 
Q 2391 -9 2128 153 
Q 1866 316 1702 653 
Q 1538 991 1538 1394 
Q 1538 1891 1792 2389 
Q 2047 2888 2425 3138 
Q 2803 3388 3159 3388 
Q 3431 3388 3678 3245 
Q 3925 3103 4103 2813 
L 4209 3297 
L 4769 3297 
L 4319 1200 
Q 4225 763 4225 716 
Q 4225 631 4289 570 
Q 4353 509 4444 509 
Q 4609 509 4878 700 
Q 5234 950 5442 1370 
Q 5650 1791 5650 2238 
Q 5650 2759 5383 3212 
Q 5116 3666 4586 3937 
Q 4056 4209 3416 4209 
Q 2684 4209 2079 3867 
Q 1475 3525 1142 2886 
Q 809 2247 809 1516 
Q 809 750 1142 197 
Q 1475 -356 2104 -620 
Q 2734 -884 3500 -884 
Q 4319 -884 4872 -609 
Q 5425 -334 5700 59 
L 6266 59 
Q 6106 -269 5718 -609 
Q 5331 -950 4797 -1148 
Q 4263 -1347 3509 -1347 
Q 2816 -1347 2230 -1169 
Q 1644 -991 1231 -633 
Q 819 -275 609 191 
Q 347 781 347 1466 
Q 347 2228 659 2919 
Q 1041 3766 1742 4216 
Q 2444 4666 3444 4666 
Q 4219 4666 4836 4348 
Q 5453 4031 5809 3403 
Q 6113 2863 6113 2228 
Q 6113 1322 5475 619 
Q 4906 -13 4231 -13 
Q 4016 -13 3883 53 
Q 3750 119 3688 241 
Q 3647 319 3628 509 
z
M 2116 1356 
Q 2116 928 2319 690 
Q 2522 453 2784 453 
Q 2959 453 3153 558 
Q 3347 663 3523 869 
Q 3700 1075 3812 1392 
Q 3925 1709 3925 2028 
Q 3925 2453 3714 2687 
Q 3503 2922 3200 2922 
Q 3000 2922 2823 2820 
Q 2647 2719 2481 2494 
Q 2316 2269 2216 1947 
Q 2116 1625 2116 1356 
z
" transform="scale(0.015625)"/>
       <path id="ArialMT-8" d="M 372 3481 
Q 372 3972 619 4315 
Q 866 4659 1334 4659 
Q 1766 4659 2048 4351 
Q 2331 4044 2331 3447 
Q 2331 2866 2045 2552 
Q 1759 2238 1341 2238 
Q 925 2238 648 2547 
Q 372 2856 372 3481 
z
M 1350 4272 
Q 1141 4272 1002 4090 
Q 863 3909 863 3425 
Q 863 2984 1003 2804 
Q 1144 2625 1350 2625 
Q 1563 2625 1702 2806 
Q 1841 2988 1841 3469 
Q 1841 3913 1700 4092 
Q 1559 4272 1350 4272 
z
M 1353 -169 
L 3859 4659 
L 4316 4659 
L 1819 -169 
L 1353 -169 
z
M 3334 1075 
Q 3334 1569 3581 1911 
Q 3828 2253 4300 2253 
Q 4731 2253 5014 1945 
Q 5297 1638 5297 1041 
Q 5297 459 5011 145 
Q 4725 -169 4303 -169 
Q 3888 -169 3611 142 
Q 3334 453 3334 1075 
z
M 4316 1866 
Q 4103 1866 3964 1684 
Q 3825 1503 3825 1019 
Q 3825 581 3965 400 
Q 4106 219 4313 219 
Q 4528 219 4667 400 
Q 4806 581 4806 1063 
Q 4806 1506 4665 1686 
Q 4525 1866 4316 1866 
z
" transform="scale(0.015625)"/>
       <path id="ArialMT-37" d="M 1659 0 
L 1659 4041 
L 150 4041 
L 150 4581 
L 3781 4581 
L 3781 4041 
L 2266 4041 
L 2266 0 
L 1659 0 
z
" transform="scale(0.015625)"/>
       <path id="ArialMT-35" d="M 503 0 
L 503 4581 
L 2534 4581 
Q 3147 4581 3465 4457 
Q 3784 4334 3975 4021 
Q 4166 3709 4166 3331 
Q 4166 2844 3850 2509 
Q 3534 2175 2875 2084 
Q 3116 1969 3241 1856 
Q 3506 1613 3744 1247 
L 4541 0 
L 3778 0 
L 3172 953 
Q 2906 1366 2734 1584 
Q 2563 1803 2427 1890 
Q 2291 1978 2150 2013 
Q 2047 2034 1813 2034 
L 1109 2034 
L 1109 0 
L 503 0 
z
M 1109 2559 
L 2413 2559 
Q 2828 2559 3062 2645 
Q 3297 2731 3419 2920 
Q 3541 3109 3541 3331 
Q 3541 3656 3305 3865 
Q 3069 4075 2559 4075 
L 1109 4075 
L 1109 2559 
z
" transform="scale(0.015625)"/>
      </defs>
      <use xlink:href="#ArialMT-32"/>
      <use xlink:href="#ArialMT-32" transform="translate(77.78125 0)"/>
      <use xlink:href="#ArialMT-29" transform="translate(155.5625 0)"/>
      <use xlink:href="#ArialMT-3" transform="translate(216.640625 0)"/>
      <use xlink:href="#ArialMT-53" transform="translate(244.421875 0)"/>
      <use xlink:href="#ArialMT-24" transform="translate(300.03125 0)"/>
      <use xlink:href="#ArialMT-38" transform="translate(366.734375 0)"/>
      <use xlink:href="#ArialMT-26" transform="translate(438.953125 0)"/>
      <use xlink:href="#ArialMT-3" transform="translate(511.171875 0)"/>
      <use xlink:href="#ArialMT-23" transform="translate(538.953125 0)"/>
      <use xlink:href="#ArialMT-3" transform="translate(640.46875 0)"/>
      <use xlink:href="#ArialMT-1b" transform="translate(668.25 0)"/>
      <use xlink:href="#ArialMT-13" transform="translate(723.859375 0)"/>
      <use xlink:href="#ArialMT-8" transform="translate(779.46875 0)"/>
      <use xlink:href="#ArialMT-3" transform="translate(868.390625 0)"/>
      <use xlink:href="#ArialMT-37" transform="translate(894.359375 0)"/>
      <use xlink:href="#ArialMT-33" transform="translate(955.4375 0)"/>
      <use xlink:href="#ArialMT-35" transform="translate(1022.140625 0)"/>
     </g>
    </g>
   </g>
   <g id="line2d_33">
    <path d="M 49.567271 116.360628 
L 542.551177 116.360628 
" clip-path="url(#pccc2e21f66)" style="fill: none; stroke-dasharray: 5.92,2.56; stroke-dashoffset: 0; stroke: #009e73; stroke-opacity: 0.95; stroke-width: 1.6"/>
   </g>
   <g id="PathCollection_1">
    <defs>
     <path id="meec817cc0c" d="M 0 4.1833 
C 1.109424 4.1833 2.173559 3.742521 2.95804 2.95804 
C 3.742521 2.173559 4.1833 1.109424 4.1833 0 
C 4.1833 -1.109424 3.742521 -2.173559 2.95804 -2.95804 
C 2.173559 -3.742521 1.109424 -4.1833 0 -4.1833 
C -1.109424 -4.1833 -2.173559 -3.742521 -2.95804 -2.95804 
C -3.742521 -2.173559 -4.1833 -1.109424 -4.1833 0 
C -4.1833 1.109424 -3.742521 2.173559 -2.95804 2.95804 
C -2.173559 3.742521 -1.109424 4.1833 0 4.1833 
z
" style="stroke: #0072b2; stroke-opacity: 0.85"/>
    </defs>
    <g clip-path="url(#pccc2e21f66)">
     <use xlink:href="#meec817cc0c" x="411.98837" y="175.409217" style="fill: #0072b2; fill-opacity: 0.85; stroke: #0072b2; stroke-opacity: 0.85"/>
     <use xlink:href="#meec817cc0c" x="411.98837" y="156.337159" style="fill: #0072b2; fill-opacity: 0.85; stroke: #0072b2; stroke-opacity: 0.85"/>
     <use xlink:href="#meec817cc0c" x="520.142817" y="156.22497" style="fill: #0072b2; fill-opacity: 0.85; stroke: #0072b2; stroke-opacity: 0.85"/>
     <use xlink:href="#meec817cc0c" x="71.975631" y="235.430106" style="fill: #0072b2; fill-opacity: 0.85; stroke: #0072b2; stroke-opacity: 0.85"/>
     <use xlink:href="#meec817cc0c" x="476.899418" y="374.618736" style="fill: #0072b2; fill-opacity: 0.85; stroke: #0072b2; stroke-opacity: 0.85"/>
     <use xlink:href="#meec817cc0c" x="99.473356" y="327.574325" style="fill: #0072b2; fill-opacity: 0.85; stroke: #0072b2; stroke-opacity: 0.85"/>
     <use xlink:href="#meec817cc0c" x="518.332145" y="358.239203" style="fill: #0072b2; fill-opacity: 0.85; stroke: #0072b2; stroke-opacity: 0.85"/>
     <use xlink:href="#meec817cc0c" x="237.284267" y="237.374708" style="fill: #0072b2; fill-opacity: 0.85; stroke: #0072b2; stroke-opacity: 0.85"/>
    </g>
   </g>
   <g id="patch_3">
    <path d="M 49.567271 435.43392 
L 49.567271 37.370894 
" style="fill: none; stroke: #000000; stroke-width: 0.8; stroke-linejoin: miter; stroke-linecap: square"/>
   </g>
   <g id="patch_4">
    <path d="M 49.567271 435.43392 
L 542.551177 435.43392 
" style="fill: none; stroke: #000000; stroke-width: 0.8; stroke-linejoin: miter; stroke-linecap: square"/>
   </g>
   <g id="PathCollection_2">
    <defs>
     <path id="m24238f1983" d="M -0 7.745967 
L 7.745967 0 
L 0 -7.745967 
L -7.745967 -0 
z
" style="stroke: #e69f00; stroke-opacity: 0.9"/>
    </defs>
    <g clip-path="url(#pccc2e21f66)">
     <use xlink:href="#m24238f1983" x="421.716015" y="98.186079" style="fill: #e69f00; fill-opacity: 0.9; stroke: #e69f00; stroke-opacity: 0.9"/>
     <use xlink:href="#m24238f1983" x="492.939217" y="107.871693" style="fill: #e69f00; fill-opacity: 0.9; stroke: #e69f00; stroke-opacity: 0.9"/>
    </g>
   </g>
   <g id="text_15">
    <!-- SLICE-3D: pAUC vs Parameters (M) -->
    <g transform="translate(169.782661 15.044918) scale(0.15 -0.15)">
     <defs>
      <path id="Arial-BoldMT-36" d="M 231 1491 
L 1131 1578 
Q 1213 1125 1461 912 
Q 1709 700 2131 700 
Q 2578 700 2804 889 
Q 3031 1078 3031 1331 
Q 3031 1494 2936 1608 
Q 2841 1722 2603 1806 
Q 2441 1863 1863 2006 
Q 1119 2191 819 2459 
Q 397 2838 397 3381 
Q 397 3731 595 4036 
Q 794 4341 1167 4500 
Q 1541 4659 2069 4659 
Q 2931 4659 3367 4281 
Q 3803 3903 3825 3272 
L 2900 3231 
Q 2841 3584 2645 3739 
Q 2450 3894 2059 3894 
Q 1656 3894 1428 3728 
Q 1281 3622 1281 3444 
Q 1281 3281 1419 3166 
Q 1594 3019 2269 2859 
Q 2944 2700 3267 2529 
Q 3591 2359 3773 2064 
Q 3956 1769 3956 1334 
Q 3956 941 3737 597 
Q 3519 253 3119 86 
Q 2719 -81 2122 -81 
Q 1253 -81 787 320 
Q 322 722 231 1491 
z
" transform="scale(0.015625)"/>
      <path id="Arial-BoldMT-2f" d="M 491 0 
L 491 4544 
L 1416 4544 
L 1416 772 
L 3716 772 
L 3716 0 
L 491 0 
z
" transform="scale(0.015625)"/>
      <path id="Arial-BoldMT-2c" d="M 438 0 
L 438 4581 
L 1363 4581 
L 1363 0 
L 438 0 
z
" transform="scale(0.015625)"/>
      <path id="Arial-BoldMT-26" d="M 3397 1684 
L 4294 1400 
Q 4088 650 3608 286 
Q 3128 -78 2391 -78 
Q 1478 -78 890 545 
Q 303 1169 303 2250 
Q 303 3394 893 4026 
Q 1484 4659 2447 4659 
Q 3288 4659 3813 4163 
Q 4125 3869 4281 3319 
L 3366 3100 
Q 3284 3456 3026 3662 
Q 2769 3869 2400 3869 
Q 1891 3869 1573 3503 
Q 1256 3138 1256 2319 
Q 1256 1450 1568 1081 
Q 1881 713 2381 713 
Q 2750 713 3015 947 
Q 3281 1181 3397 1684 
z
" transform="scale(0.015625)"/>
      <path id="Arial-BoldMT-28" d="M 466 0 
L 466 4581 
L 3863 4581 
L 3863 3806 
L 1391 3806 
L 1391 2791 
L 3691 2791 
L 3691 2019 
L 1391 2019 
L 1391 772 
L 3950 772 
L 3950 0 
L 466 0 
z
" transform="scale(0.015625)"/>
      <path id="Arial-BoldMT-10" d="M 359 1222 
L 359 2100 
L 2084 2100 
L 2084 1222 
L 359 1222 
z
" transform="scale(0.015625)"/>
      <path id="Arial-BoldMT-16" d="M 241 1216 
L 1091 1319 
Q 1131 994 1309 822 
Q 1488 650 1741 650 
Q 2013 650 2198 856 
Q 2384 1063 2384 1413 
Q 2384 1744 2206 1937 
Q 2028 2131 1772 2131 
Q 1603 2131 1369 2066 
L 1466 2781 
Q 1822 2772 2009 2936 
Q 2197 3100 2197 3372 
Q 2197 3603 2059 3740 
Q 1922 3878 1694 3878 
Q 1469 3878 1309 3722 
Q 1150 3566 1116 3266 
L 306 3403 
Q 391 3819 561 4067 
Q 731 4316 1036 4458 
Q 1341 4600 1719 4600 
Q 2366 4600 2756 4188 
Q 3078 3850 3078 3425 
Q 3078 2822 2419 2463 
Q 2813 2378 3048 2084 
Q 3284 1791 3284 1375 
Q 3284 772 2843 347 
Q 2403 -78 1747 -78 
Q 1125 -78 715 280 
Q 306 638 241 1216 
z
" transform="scale(0.015625)"/>
      <path id="Arial-BoldMT-27" d="M 463 4581 
L 2153 4581 
Q 2725 4581 3025 4494 
Q 3428 4375 3715 4072 
Q 4003 3769 4153 3330 
Q 4303 2891 4303 2247 
Q 4303 1681 4163 1272 
Q 3991 772 3672 463 
Q 3431 228 3022 97 
Q 2716 0 2203 0 
L 463 0 
L 463 4581 
z
M 1388 3806 
L 1388 772 
L 2078 772 
Q 2466 772 2638 816 
Q 2863 872 3011 1006 
Q 3159 1141 3253 1448 
Q 3347 1756 3347 2288 
Q 3347 2819 3253 3103 
Q 3159 3388 2990 3547 
Q 2822 3706 2563 3763 
Q 2369 3806 1803 3806 
L 1388 3806 
z
" transform="scale(0.015625)"/>
      <path id="Arial-BoldMT-1d" d="M 628 2441 
L 628 3319 
L 1506 3319 
L 1506 2441 
L 628 2441 
z
M 628 0 
L 628 878 
L 1506 878 
L 1506 0 
L 628 0 
z
" transform="scale(0.015625)"/>
      <path id="Arial-BoldMT-3" transform="scale(0.015625)"/>
      <path id="Arial-BoldMT-53" d="M 434 3319 
L 1253 3319 
L 1253 2831 
Q 1413 3081 1684 3237 
Q 1956 3394 2288 3394 
Q 2866 3394 3269 2941 
Q 3672 2488 3672 1678 
Q 3672 847 3265 386 
Q 2859 -75 2281 -75 
Q 2006 -75 1782 34 
Q 1559 144 1313 409 
L 1313 -1263 
L 434 -1263 
L 434 3319 
z
M 1303 1716 
Q 1303 1156 1525 889 
Q 1747 622 2066 622 
Q 2372 622 2575 867 
Q 2778 1113 2778 1672 
Q 2778 2194 2568 2447 
Q 2359 2700 2050 2700 
Q 1728 2700 1515 2451 
Q 1303 2203 1303 1716 
z
" transform="scale(0.015625)"/>
      <path id="Arial-BoldMT-24" d="M 4597 0 
L 3591 0 
L 3191 1041 
L 1359 1041 
L 981 0 
L 0 0 
L 1784 4581 
L 2763 4581 
L 4597 0 
z
M 2894 1813 
L 2263 3513 
L 1644 1813 
L 2894 1813 
z
" transform="scale(0.015625)"/>
      <path id="Arial-BoldMT-38" d="M 459 4581 
L 1384 4581 
L 1384 2100 
Q 1384 1509 1419 1334 
Q 1478 1053 1701 883 
Q 1925 713 2313 713 
Q 2706 713 2906 873 
Q 3106 1034 3147 1268 
Q 3188 1503 3188 2047 
L 3188 4581 
L 4113 4581 
L 4113 2175 
Q 4113 1350 4038 1009 
Q 3963 669 3761 434 
Q 3559 200 3221 61 
Q 2884 -78 2341 -78 
Q 1684 -78 1345 73 
Q 1006 225 809 467 
Q 613 709 550 975 
Q 459 1369 459 2138 
L 459 4581 
z
" transform="scale(0.015625)"/>
      <path id="Arial-BoldMT-59" d="M 1372 0 
L 34 3319 
L 956 3319 
L 1581 1625 
L 1763 1059 
Q 1834 1275 1853 1344 
Q 1897 1484 1947 1625 
L 2578 3319 
L 3481 3319 
L 2163 0 
L 1372 0 
z
" transform="scale(0.015625)"/>
      <path id="Arial-BoldMT-56" d="M 150 947 
L 1031 1081 
Q 1088 825 1259 692 
Q 1431 559 1741 559 
Q 2081 559 2253 684 
Q 2369 772 2369 919 
Q 2369 1019 2306 1084 
Q 2241 1147 2013 1200 
Q 950 1434 666 1628 
Q 272 1897 272 2375 
Q 272 2806 612 3100 
Q 953 3394 1669 3394 
Q 2350 3394 2681 3172 
Q 3013 2950 3138 2516 
L 2309 2363 
Q 2256 2556 2107 2659 
Q 1959 2763 1684 2763 
Q 1338 2763 1188 2666 
Q 1088 2597 1088 2488 
Q 1088 2394 1175 2328 
Q 1294 2241 1995 2081 
Q 2697 1922 2975 1691 
Q 3250 1456 3250 1038 
Q 3250 581 2869 253 
Q 2488 -75 1741 -75 
Q 1063 -75 667 200 
Q 272 475 150 947 
z
" transform="scale(0.015625)"/>
      <path id="Arial-BoldMT-33" d="M 466 0 
L 466 4581 
L 1950 4581 
Q 2794 4581 3050 4513 
Q 3444 4409 3709 4064 
Q 3975 3719 3975 3172 
Q 3975 2750 3822 2462 
Q 3669 2175 3433 2011 
Q 3197 1847 2953 1794 
Q 2622 1728 1994 1728 
L 1391 1728 
L 1391 0 
L 466 0 
z
M 1391 3806 
L 1391 2506 
L 1897 2506 
Q 2444 2506 2628 2578 
Q 2813 2650 2917 2803 
Q 3022 2956 3022 3159 
Q 3022 3409 2875 3571 
Q 2728 3734 2503 3775 
Q 2338 3806 1838 3806 
L 1391 3806 
z
" transform="scale(0.015625)"/>
      <path id="Arial-BoldMT-44" d="M 1116 2306 
L 319 2450 
Q 453 2931 781 3162 
Q 1109 3394 1756 3394 
Q 2344 3394 2631 3255 
Q 2919 3116 3036 2902 
Q 3153 2688 3153 2116 
L 3144 1091 
Q 3144 653 3186 445 
Q 3228 238 3344 0 
L 2475 0 
Q 2441 88 2391 259 
Q 2369 338 2359 363 
Q 2134 144 1878 34 
Q 1622 -75 1331 -75 
Q 819 -75 523 203 
Q 228 481 228 906 
Q 228 1188 362 1408 
Q 497 1628 739 1745 
Q 981 1863 1438 1950 
Q 2053 2066 2291 2166 
L 2291 2253 
Q 2291 2506 2166 2614 
Q 2041 2722 1694 2722 
Q 1459 2722 1328 2630 
Q 1197 2538 1116 2306 
z
M 2291 1594 
Q 2122 1538 1756 1459 
Q 1391 1381 1278 1306 
Q 1106 1184 1106 997 
Q 1106 813 1243 678 
Q 1381 544 1594 544 
Q 1831 544 2047 700 
Q 2206 819 2256 991 
Q 2291 1103 2291 1419 
L 2291 1594 
z
" transform="scale(0.015625)"/>
      <path id="Arial-BoldMT-55" d="M 1300 0 
L 422 0 
L 422 3319 
L 1238 3319 
L 1238 2847 
Q 1447 3181 1614 3287 
Q 1781 3394 1994 3394 
Q 2294 3394 2572 3228 
L 2300 2463 
Q 2078 2606 1888 2606 
Q 1703 2606 1575 2504 
Q 1447 2403 1373 2137 
Q 1300 1872 1300 1025 
L 1300 0 
z
" transform="scale(0.015625)"/>
      <path id="Arial-BoldMT-50" d="M 394 3319 
L 1203 3319 
L 1203 2866 
Q 1638 3394 2238 3394 
Q 2556 3394 2790 3262 
Q 3025 3131 3175 2866 
Q 3394 3131 3647 3262 
Q 3900 3394 4188 3394 
Q 4553 3394 4806 3245 
Q 5059 3097 5184 2809 
Q 5275 2597 5275 2122 
L 5275 0 
L 4397 0 
L 4397 1897 
Q 4397 2391 4306 2534 
Q 4184 2722 3931 2722 
Q 3747 2722 3584 2609 
Q 3422 2497 3350 2280 
Q 3278 2063 3278 1594 
L 3278 0 
L 2400 0 
L 2400 1819 
Q 2400 2303 2353 2443 
Q 2306 2584 2207 2653 
Q 2109 2722 1941 2722 
Q 1738 2722 1575 2612 
Q 1413 2503 1342 2297 
Q 1272 2091 1272 1613 
L 1272 0 
L 394 0 
L 394 3319 
z
" transform="scale(0.015625)"/>
      <path id="Arial-BoldMT-48" d="M 2381 1056 
L 3256 909 
Q 3088 428 2723 176 
Q 2359 -75 1813 -75 
Q 947 -75 531 491 
Q 203 944 203 1634 
Q 203 2459 634 2926 
Q 1066 3394 1725 3394 
Q 2466 3394 2894 2905 
Q 3322 2416 3303 1406 
L 1103 1406 
Q 1113 1016 1316 798 
Q 1519 581 1822 581 
Q 2028 581 2168 693 
Q 2309 806 2381 1056 
z
M 2431 1944 
Q 2422 2325 2234 2523 
Q 2047 2722 1778 2722 
Q 1491 2722 1303 2513 
Q 1116 2303 1119 1944 
L 2431 1944 
z
" transform="scale(0.015625)"/>
      <path id="Arial-BoldMT-57" d="M 1981 3319 
L 1981 2619 
L 1381 2619 
L 1381 1281 
Q 1381 875 1398 808 
Q 1416 741 1477 697 
Q 1538 653 1625 653 
Q 1747 653 1978 738 
L 2053 56 
Q 1747 -75 1359 -75 
Q 1122 -75 931 4 
Q 741 84 652 211 
Q 563 338 528 553 
Q 500 706 500 1172 
L 500 2619 
L 97 2619 
L 97 3319 
L 500 3319 
L 500 3978 
L 1381 4491 
L 1381 3319 
L 1981 3319 
z
" transform="scale(0.015625)"/>
      <path id="Arial-BoldMT-b" d="M 1916 -1347 
L 1313 -1347 
Q 834 -625 584 153 
Q 334 931 334 1659 
Q 334 2563 644 3369 
Q 913 4069 1325 4659 
L 1925 4659 
Q 1497 3713 1336 3048 
Q 1175 2384 1175 1641 
Q 1175 1128 1270 590 
Q 1366 53 1531 -431 
Q 1641 -750 1916 -1347 
z
" transform="scale(0.015625)"/>
      <path id="Arial-BoldMT-30" d="M 453 0 
L 453 4581 
L 1838 4581 
L 2669 1456 
L 3491 4581 
L 4878 4581 
L 4878 0 
L 4019 0 
L 4019 3606 
L 3109 0 
L 2219 0 
L 1313 3606 
L 1313 0 
L 453 0 
z
" transform="scale(0.015625)"/>
      <path id="Arial-BoldMT-c" d="M 216 -1347 
Q 475 -791 581 -494 
Q 688 -197 778 190 
Q 869 578 912 926 
Q 956 1275 956 1641 
Q 956 2384 797 3048 
Q 638 3713 209 4659 
L 806 4659 
Q 1278 3988 1539 3234 
Q 1800 2481 1800 1706 
Q 1800 1053 1594 306 
Q 1359 -531 822 -1347 
L 216 -1347 
z
" transform="scale(0.015625)"/>
     </defs>
     <use xlink:href="#Arial-BoldMT-36"/>
     <use xlink:href="#Arial-BoldMT-2f" transform="translate(66.703125 0)"/>
     <use xlink:href="#Arial-BoldMT-2c" transform="translate(127.78125 0)"/>
     <use xlink:href="#Arial-BoldMT-26" transform="translate(155.5625 0)"/>
     <use xlink:href="#Arial-BoldMT-28" transform="translate(227.78125 0)"/>
     <use xlink:href="#Arial-BoldMT-10" transform="translate(294.484375 0)"/>
     <use xlink:href="#Arial-BoldMT-16" transform="translate(327.78125 0)"/>
     <use xlink:href="#Arial-BoldMT-27" transform="translate(383.390625 0)"/>
     <use xlink:href="#Arial-BoldMT-1d" transform="translate(455.609375 0)"/>
     <use xlink:href="#Arial-BoldMT-3" transform="translate(488.90625 0)"/>
     <use xlink:href="#Arial-BoldMT-53" transform="translate(516.6875 0)"/>
     <use xlink:href="#Arial-BoldMT-24" transform="translate(577.765625 0)"/>
     <use xlink:href="#Arial-BoldMT-38" transform="translate(649.984375 0)"/>
     <use xlink:href="#Arial-BoldMT-26" transform="translate(722.203125 0)"/>
     <use xlink:href="#Arial-BoldMT-3" transform="translate(794.421875 0)"/>
     <use xlink:href="#Arial-BoldMT-59" transform="translate(822.203125 0)"/>
     <use xlink:href="#Arial-BoldMT-56" transform="translate(877.8125 0)"/>
     <use xlink:href="#Arial-BoldMT-3" transform="translate(933.421875 0)"/>
     <use xlink:href="#Arial-BoldMT-33" transform="translate(961.203125 0)"/>
     <use xlink:href="#Arial-BoldMT-44" transform="translate(1027.90625 0)"/>
     <use xlink:href="#Arial-BoldMT-55" transform="translate(1083.515625 0)"/>
     <use xlink:href="#Arial-BoldMT-44" transform="translate(1122.4375 0)"/>
     <use xlink:href="#Arial-BoldMT-50" transform="translate(1178.046875 0)"/>
     <use xlink:href="#Arial-BoldMT-48" transform="translate(1266.96875 0)"/>
     <use xlink:href="#Arial-BoldMT-57" transform="translate(1322.578125 0)"/>
     <use xlink:href="#Arial-BoldMT-48" transform="translate(1355.875 0)"/>
     <use xlink:href="#Arial-BoldMT-55" transform="translate(1411.484375 0)"/>
     <use xlink:href="#Arial-BoldMT-56" transform="translate(1450.40625 0)"/>
     <use xlink:href="#Arial-BoldMT-3" transform="translate(1506.015625 0)"/>
     <use xlink:href="#Arial-BoldMT-b" transform="translate(1533.796875 0)"/>
     <use xlink:href="#Arial-BoldMT-30" transform="translate(1567.09375 0)"/>
     <use xlink:href="#Arial-BoldMT-c" transform="translate(1650.390625 0)"/>
    </g>
    <!-- (single-dataset, no external data) -->
    <g transform="translate(178.959615 31.370894) scale(0.15 -0.15)">
     <defs>
      <path id="Arial-BoldMT-4c" d="M 459 3769 
L 459 4581 
L 1338 4581 
L 1338 3769 
L 459 3769 
z
M 459 0 
L 459 3319 
L 1338 3319 
L 1338 0 
L 459 0 
z
" transform="scale(0.015625)"/>
      <path id="Arial-BoldMT-51" d="M 3478 0 
L 2600 0 
L 2600 1694 
Q 2600 2231 2544 2389 
Q 2488 2547 2361 2634 
Q 2234 2722 2056 2722 
Q 1828 2722 1647 2597 
Q 1466 2472 1398 2265 
Q 1331 2059 1331 1503 
L 1331 0 
L 453 0 
L 453 3319 
L 1269 3319 
L 1269 2831 
Q 1703 3394 2363 3394 
Q 2653 3394 2893 3289 
Q 3134 3184 3257 3021 
Q 3381 2859 3429 2653 
Q 3478 2447 3478 2063 
L 3478 0 
z
" transform="scale(0.015625)"/>
      <path id="Arial-BoldMT-4a" d="M 378 -219 
L 1381 -341 
Q 1406 -516 1497 -581 
Q 1622 -675 1891 -675 
Q 2234 -675 2406 -572 
Q 2522 -503 2581 -350 
Q 2622 -241 2622 53 
L 2622 538 
Q 2228 0 1628 0 
Q 959 0 569 566 
Q 263 1013 263 1678 
Q 263 2513 664 2953 
Q 1066 3394 1663 3394 
Q 2278 3394 2678 2853 
L 2678 3319 
L 3500 3319 
L 3500 341 
Q 3500 -247 3403 -537 
Q 3306 -828 3131 -993 
Q 2956 -1159 2664 -1253 
Q 2372 -1347 1925 -1347 
Q 1081 -1347 728 -1058 
Q 375 -769 375 -325 
Q 375 -281 378 -219 
z
M 1163 1728 
Q 1163 1200 1367 954 
Q 1572 709 1872 709 
Q 2194 709 2416 961 
Q 2638 1213 2638 1706 
Q 2638 2222 2425 2472 
Q 2213 2722 1888 2722 
Q 1572 2722 1367 2476 
Q 1163 2231 1163 1728 
z
" transform="scale(0.015625)"/>
      <path id="Arial-BoldMT-4f" d="M 459 0 
L 459 4581 
L 1338 4581 
L 1338 0 
L 459 0 
z
" transform="scale(0.015625)"/>
      <path id="Arial-BoldMT-47" d="M 3503 0 
L 2688 0 
L 2688 488 
Q 2484 203 2207 64 
Q 1931 -75 1650 -75 
Q 1078 -75 670 386 
Q 263 847 263 1672 
Q 263 2516 659 2955 
Q 1056 3394 1663 3394 
Q 2219 3394 2625 2931 
L 2625 4581 
L 3503 4581 
L 3503 0 
z
M 1159 1731 
Q 1159 1200 1306 963 
Q 1519 619 1900 619 
Q 2203 619 2415 876 
Q 2628 1134 2628 1647 
Q 2628 2219 2422 2470 
Q 2216 2722 1894 2722 
Q 1581 2722 1370 2473 
Q 1159 2225 1159 1731 
z
" transform="scale(0.015625)"/>
      <path id="Arial-BoldMT-f" d="M 438 878 
L 1316 878 
L 1316 250 
Q 1316 -131 1250 -351 
Q 1184 -572 1001 -747 
Q 819 -922 538 -1022 
L 366 -659 
Q 631 -572 743 -419 
Q 856 -266 863 0 
L 438 0 
L 438 878 
z
" transform="scale(0.015625)"/>
      <path id="Arial-BoldMT-52" d="M 256 1706 
Q 256 2144 472 2553 
Q 688 2963 1083 3178 
Q 1478 3394 1966 3394 
Q 2719 3394 3200 2905 
Q 3681 2416 3681 1669 
Q 3681 916 3195 420 
Q 2709 -75 1972 -75 
Q 1516 -75 1102 131 
Q 688 338 472 736 
Q 256 1134 256 1706 
z
M 1156 1659 
Q 1156 1166 1390 903 
Q 1625 641 1969 641 
Q 2313 641 2545 903 
Q 2778 1166 2778 1666 
Q 2778 2153 2545 2415 
Q 2313 2678 1969 2678 
Q 1625 2678 1390 2415 
Q 1156 2153 1156 1659 
z
" transform="scale(0.015625)"/>
      <path id="Arial-BoldMT-5b" d="M 38 0 
L 1234 1709 
L 88 3319 
L 1159 3319 
L 1747 2406 
L 2366 3319 
L 3397 3319 
L 2272 1747 
L 3500 0 
L 2422 0 
L 1747 1028 
L 1066 0 
L 38 0 
z
" transform="scale(0.015625)"/>
     </defs>
     <use xlink:href="#Arial-BoldMT-b"/>
     <use xlink:href="#Arial-BoldMT-56" transform="translate(33.296875 0)"/>
     <use xlink:href="#Arial-BoldMT-4c" transform="translate(88.90625 0)"/>
     <use xlink:href="#Arial-BoldMT-51" transform="translate(116.6875 0)"/>
     <use xlink:href="#Arial-BoldMT-4a" transform="translate(177.765625 0)"/>
     <use xlink:href="#Arial-BoldMT-4f" transform="translate(238.84375 0)"/>
     <use xlink:href="#Arial-BoldMT-48" transform="translate(266.625 0)"/>
     <use xlink:href="#Arial-BoldMT-10" transform="translate(322.234375 0)"/>
     <use xlink:href="#Arial-BoldMT-47" transform="translate(355.53125 0)"/>
     <use xlink:href="#Arial-BoldMT-44" transform="translate(416.609375 0)"/>
     <use xlink:href="#Arial-BoldMT-57" transform="translate(472.21875 0)"/>
     <use xlink:href="#Arial-BoldMT-44" transform="translate(505.515625 0)"/>
     <use xlink:href="#Arial-BoldMT-56" transform="translate(561.125 0)"/>
     <use xlink:href="#Arial-BoldMT-48" transform="translate(616.734375 0)"/>
     <use xlink:href="#Arial-BoldMT-57" transform="translate(672.34375 0)"/>
     <use xlink:href="#Arial-BoldMT-f" transform="translate(705.640625 0)"/>
     <use xlink:href="#Arial-BoldMT-3" transform="translate(733.421875 0)"/>
     <use xlink:href="#Arial-BoldMT-51" transform="translate(761.203125 0)"/>
     <use xlink:href="#Arial-BoldMT-52" transform="translate(822.28125 0)"/>
     <use xlink:href="#Arial-BoldMT-3" transform="translate(883.359375 0)"/>
     <use xlink:href="#Arial-BoldMT-48" transform="translate(911.140625 0)"/>
     <use xlink:href="#Arial-BoldMT-5b" transform="translate(966.75 0)"/>
     <use xlink:href="#Arial-BoldMT-57" transform="translate(1022.359375 0)"/>
     <use xlink:href="#Arial-BoldMT-48" transform="translate(1055.65625 0)"/>
     <use xlink:href="#Arial-BoldMT-55" transform="translate(1111.265625 0)"/>
     <use xlink:href="#Arial-BoldMT-51" transform="translate(1150.1875 0)"/>
     <use xlink:href="#Arial-BoldMT-44" transform="translate(1211.265625 0)"/>
     <use xlink:href="#Arial-BoldMT-4f" transform="translate(1266.875 0)"/>
     <use xlink:href="#Arial-BoldMT-3" transform="translate(1294.65625 0)"/>
     <use xlink:href="#Arial-BoldMT-47" transform="translate(1322.4375 0)"/>
     <use xlink:href="#Arial-BoldMT-44" transform="translate(1383.515625 0)"/>
     <use xlink:href="#Arial-BoldMT-57" transform="translate(1439.125 0)"/>
     <use xlink:href="#Arial-BoldMT-44" transform="translate(1472.421875 0)"/>
     <use xlink:href="#Arial-BoldMT-c" transform="translate(1528.03125 0)"/>
    </g>
   </g>
   <g id="line2d_34">
    <path d="M 71.975631 235.430106 
L 411.98837 156.337159 
L 421.716015 98.186079 
" clip-path="url(#pccc2e21f66)" style="fill: none; stroke: #d55e00; stroke-width: 2; stroke-linecap: square"/>
   </g>
   <g id="PathCollection_3">
    <defs>
     <path id="C0_0_63b27ebdf9" d="M 0 7.071068 
C 1.875269 7.071068 3.673985 6.326016 5 5 
C 6.326016 3.673985 7.071068 1.875269 7.071068 -0 
C 7.071068 -1.875269 6.326016 -3.673985 5 -5 
C 3.673985 -6.326016 1.875269 -7.071068 0 -7.071068 
C -1.875269 -7.071068 -3.673985 -6.326016 -5 -5 
C -6.326016 -3.673985 -7.071068 -1.875269 -7.071068 0 
C -7.071068 1.875269 -6.326016 3.673985 -5 5 
C -3.673985 6.326016 -1.875269 7.071068 0 7.071068 
z
"/>
    </defs>
    <g clip-path="url(#pccc2e21f66)">
     <use xlink:href="#C0_0_63b27ebdf9" x="411.98837" y="156.337159" style="fill: none; stroke: #d55e00; stroke-width: 2"/>
    </g>
    <g clip-path="url(#pccc2e21f66)">
     <use xlink:href="#C0_0_63b27ebdf9" x="71.975631" y="235.430106" style="fill: none; stroke: #d55e00; stroke-width: 2"/>
    </g>
    <g clip-path="url(#pccc2e21f66)">
     <use xlink:href="#C0_0_63b27ebdf9" x="421.716015" y="98.186079" style="fill: none; stroke: #d55e00; stroke-width: 2"/>
    </g>
   </g>
   <g id="legend_1">
    <g id="line2d_35">
     <path d="M 60.367271 52.707222 
L 72.367271 52.707222 
L 84.367271 52.707222 
" style="fill: none; stroke-dasharray: 5.92,2.56; stroke-dashoffset: 0; stroke: #009e73; stroke-opacity: 0.95; stroke-width: 1.6"/>
    </g>
    <g id="text_16">
     <!-- LightGBM tabular: 0.1689 -->
     <g transform="translate(93.967271 56.907222) scale(0.12 -0.12)">
      <defs>
       <path id="ArialMT-2f" d="M 469 0 
L 469 4581 
L 1075 4581 
L 1075 541 
L 3331 541 
L 3331 0 
L 469 0 
z
" transform="scale(0.015625)"/>
       <path id="ArialMT-4c" d="M 425 3934 
L 425 4581 
L 988 4581 
L 988 3934 
L 425 3934 
z
M 425 0 
L 425 3319 
L 988 3319 
L 988 0 
L 425 0 
z
" transform="scale(0.015625)"/>
       <path id="ArialMT-4b" d="M 422 0 
L 422 4581 
L 984 4581 
L 984 2938 
Q 1378 3394 1978 3394 
Q 2347 3394 2619 3248 
Q 2891 3103 3008 2847 
Q 3125 2591 3125 2103 
L 3125 0 
L 2563 0 
L 2563 2103 
Q 2563 2525 2380 2717 
Q 2197 2909 1863 2909 
Q 1613 2909 1392 2779 
Q 1172 2650 1078 2428 
Q 984 2206 984 1816 
L 984 0 
L 422 0 
z
" transform="scale(0.015625)"/>
       <path id="ArialMT-2a" d="M 2638 1797 
L 2638 2334 
L 4578 2338 
L 4578 638 
Q 4131 281 3656 101 
Q 3181 -78 2681 -78 
Q 2006 -78 1454 211 
Q 903 500 622 1047 
Q 341 1594 341 2269 
Q 341 2938 620 3517 
Q 900 4097 1425 4378 
Q 1950 4659 2634 4659 
Q 3131 4659 3532 4498 
Q 3934 4338 4162 4050 
Q 4391 3763 4509 3300 
L 3963 3150 
Q 3859 3500 3706 3700 
Q 3553 3900 3268 4020 
Q 2984 4141 2638 4141 
Q 2222 4141 1919 4014 
Q 1616 3888 1430 3681 
Q 1244 3475 1141 3228 
Q 966 2803 966 2306 
Q 966 1694 1177 1281 
Q 1388 869 1791 669 
Q 2194 469 2647 469 
Q 3041 469 3416 620 
Q 3791 772 3984 944 
L 3984 1797 
L 2638 1797 
z
" transform="scale(0.015625)"/>
       <path id="ArialMT-25" d="M 469 0 
L 469 4581 
L 2188 4581 
Q 2713 4581 3030 4442 
Q 3347 4303 3526 4014 
Q 3706 3725 3706 3409 
Q 3706 3116 3547 2856 
Q 3388 2597 3066 2438 
Q 3481 2316 3704 2022 
Q 3928 1728 3928 1328 
Q 3928 1006 3792 729 
Q 3656 453 3456 303 
Q 3256 153 2954 76 
Q 2653 0 2216 0 
L 469 0 
z
M 1075 2656 
L 2066 2656 
Q 2469 2656 2644 2709 
Q 2875 2778 2992 2937 
Q 3109 3097 3109 3338 
Q 3109 3566 3000 3739 
Q 2891 3913 2687 3977 
Q 2484 4041 1991 4041 
L 1075 4041 
L 1075 2656 
z
M 1075 541 
L 2216 541 
Q 2509 541 2628 563 
Q 2838 600 2978 687 
Q 3119 775 3209 942 
Q 3300 1109 3300 1328 
Q 3300 1584 3169 1773 
Q 3038 1963 2805 2039 
Q 2572 2116 2134 2116 
L 1075 2116 
L 1075 541 
z
" transform="scale(0.015625)"/>
       <path id="ArialMT-45" d="M 941 0 
L 419 0 
L 419 4581 
L 981 4581 
L 981 2947 
Q 1338 3394 1891 3394 
Q 2197 3394 2470 3270 
Q 2744 3147 2920 2923 
Q 3097 2700 3197 2384 
Q 3297 2069 3297 1709 
Q 3297 856 2875 390 
Q 2453 -75 1863 -75 
Q 1275 -75 941 416 
L 941 0 
z
M 934 1684 
Q 934 1088 1097 822 
Q 1363 388 1816 388 
Q 2184 388 2453 708 
Q 2722 1028 2722 1663 
Q 2722 2313 2464 2622 
Q 2206 2931 1841 2931 
Q 1472 2931 1203 2611 
Q 934 2291 934 1684 
z
" transform="scale(0.015625)"/>
       <path id="ArialMT-58" d="M 2597 0 
L 2597 488 
Q 2209 -75 1544 -75 
Q 1250 -75 995 37 
Q 741 150 617 320 
Q 494 491 444 738 
Q 409 903 409 1263 
L 409 3319 
L 972 3319 
L 972 1478 
Q 972 1038 1006 884 
Q 1059 663 1231 536 
Q 1403 409 1656 409 
Q 1909 409 2131 539 
Q 2353 669 2445 892 
Q 2538 1116 2538 1541 
L 2538 3319 
L 3100 3319 
L 3100 0 
L 2597 0 
z
" transform="scale(0.015625)"/>
       <path id="ArialMT-1d" d="M 578 2678 
L 578 3319 
L 1219 3319 
L 1219 2678 
L 578 2678 
z
M 578 0 
L 578 641 
L 1219 641 
L 1219 0 
L 578 0 
z
" transform="scale(0.015625)"/>
       <path id="ArialMT-1c" d="M 350 1059 
L 891 1109 
Q 959 728 1153 556 
Q 1347 384 1650 384 
Q 1909 384 2104 503 
Q 2300 622 2425 820 
Q 2550 1019 2634 1356 
Q 2719 1694 2719 2044 
Q 2719 2081 2716 2156 
Q 2547 1888 2255 1720 
Q 1963 1553 1622 1553 
Q 1053 1553 659 1965 
Q 266 2378 266 3053 
Q 266 3750 677 4175 
Q 1088 4600 1706 4600 
Q 2153 4600 2523 4359 
Q 2894 4119 3086 3673 
Q 3278 3228 3278 2384 
Q 3278 1506 3087 986 
Q 2897 466 2520 194 
Q 2144 -78 1638 -78 
Q 1100 -78 759 220 
Q 419 519 350 1059 
z
M 2653 3081 
Q 2653 3566 2395 3850 
Q 2138 4134 1775 4134 
Q 1400 4134 1122 3828 
Q 844 3522 844 3034 
Q 844 2597 1108 2323 
Q 1372 2050 1759 2050 
Q 2150 2050 2401 2323 
Q 2653 2597 2653 3081 
z
" transform="scale(0.015625)"/>
      </defs>
      <use xlink:href="#ArialMT-2f"/>
      <use xlink:href="#ArialMT-4c" transform="translate(55.609375 0)"/>
      <use xlink:href="#ArialMT-4a" transform="translate(77.828125 0)"/>
      <use xlink:href="#ArialMT-4b" transform="translate(133.4375 0)"/>
      <use xlink:href="#ArialMT-57" transform="translate(189.046875 0)"/>
      <use xlink:href="#ArialMT-2a" transform="translate(216.828125 0)"/>
      <use xlink:href="#ArialMT-25" transform="translate(294.609375 0)"/>
      <use xlink:href="#ArialMT-30" transform="translate(361.3125 0)"/>
      <use xlink:href="#ArialMT-3" transform="translate(444.609375 0)"/>
      <use xlink:href="#ArialMT-57" transform="translate(472.390625 0)"/>
      <use xlink:href="#ArialMT-44" transform="translate(500.171875 0)"/>
      <use xlink:href="#ArialMT-45" transform="translate(555.78125 0)"/>
      <use xlink:href="#ArialMT-58" transform="translate(611.390625 0)"/>
      <use xlink:href="#ArialMT-4f" transform="translate(667 0)"/>
      <use xlink:href="#ArialMT-44" transform="translate(689.21875 0)"/>
      <use xlink:href="#ArialMT-55" transform="translate(744.828125 0)"/>
      <use xlink:href="#ArialMT-1d" transform="translate(778.125 0)"/>
      <use xlink:href="#ArialMT-3" transform="translate(805.90625 0)"/>
      <use xlink:href="#ArialMT-13" transform="translate(833.6875 0)"/>
      <use xlink:href="#ArialMT-11" transform="translate(889.296875 0)"/>
      <use xlink:href="#ArialMT-14" transform="translate(917.078125 0)"/>
      <use xlink:href="#ArialMT-19" transform="translate(972.6875 0)"/>
      <use xlink:href="#ArialMT-1b" transform="translate(1028.296875 0)"/>
      <use xlink:href="#ArialMT-1c" transform="translate(1083.90625 0)"/>
     </g>
    </g>
    <g id="PathCollection_4">
     <g>
      <use xlink:href="#meec817cc0c" x="72.367271" y="71.019176" style="fill: #0072b2; fill-opacity: 0.85; stroke: #0072b2; stroke-opacity: 0.85"/>
     </g>
    </g>
    <g id="text_17">
     <!-- image expert -->
     <g transform="translate(93.967271 74.169176) scale(0.12 -0.12)">
      <defs>
       <path id="ArialMT-5b" d="M 47 0 
L 1259 1725 
L 138 3319 
L 841 3319 
L 1350 2541 
Q 1494 2319 1581 2169 
Q 1719 2375 1834 2534 
L 2394 3319 
L 3066 3319 
L 1919 1756 
L 3153 0 
L 2463 0 
L 1781 1031 
L 1600 1309 
L 728 0 
L 47 0 
z
" transform="scale(0.015625)"/>
      </defs>
      <use xlink:href="#ArialMT-4c"/>
      <use xlink:href="#ArialMT-50" transform="translate(22.21875 0)"/>
      <use xlink:href="#ArialMT-44" transform="translate(105.515625 0)"/>
      <use xlink:href="#ArialMT-4a" transform="translate(161.125 0)"/>
      <use xlink:href="#ArialMT-48" transform="translate(216.734375 0)"/>
      <use xlink:href="#ArialMT-3" transform="translate(272.34375 0)"/>
      <use xlink:href="#ArialMT-48" transform="translate(300.125 0)"/>
      <use xlink:href="#ArialMT-5b" transform="translate(355.734375 0)"/>
      <use xlink:href="#ArialMT-53" transform="translate(405.734375 0)"/>
      <use xlink:href="#ArialMT-48" transform="translate(461.34375 0)"/>
      <use xlink:href="#ArialMT-55" transform="translate(516.953125 0)"/>
      <use xlink:href="#ArialMT-57" transform="translate(550.25 0)"/>
     </g>
    </g>
    <g id="PathCollection_5">
     <g>
      <use xlink:href="#m24238f1983" x="72.367271" y="88.281129" style="fill: #e69f00; fill-opacity: 0.9; stroke: #e69f00; stroke-opacity: 0.9"/>
     </g>
    </g>
    <g id="text_18">
     <!-- stacked ensemble -->
     <g transform="translate(93.967271 91.431129) scale(0.12 -0.12)">
      <defs>
       <path id="ArialMT-4e" d="M 425 0 
L 425 4581 
L 988 4581 
L 988 1969 
L 2319 3319 
L 3047 3319 
L 1778 2088 
L 3175 0 
L 2481 0 
L 1384 1697 
L 988 1316 
L 988 0 
L 425 0 
z
" transform="scale(0.015625)"/>
       <path id="ArialMT-47" d="M 2575 0 
L 2575 419 
Q 2259 -75 1647 -75 
Q 1250 -75 917 144 
Q 584 363 401 755 
Q 219 1147 219 1656 
Q 219 2153 384 2558 
Q 550 2963 881 3178 
Q 1213 3394 1622 3394 
Q 1922 3394 2156 3267 
Q 2391 3141 2538 2938 
L 2538 4581 
L 3097 4581 
L 3097 0 
L 2575 0 
z
M 797 1656 
Q 797 1019 1065 703 
Q 1334 388 1700 388 
Q 2069 388 2326 689 
Q 2584 991 2584 1609 
Q 2584 2291 2321 2609 
Q 2059 2928 1675 2928 
Q 1300 2928 1048 2622 
Q 797 2316 797 1656 
z
" transform="scale(0.015625)"/>
       <path id="ArialMT-51" d="M 422 0 
L 422 3319 
L 928 3319 
L 928 2847 
Q 1294 3394 1984 3394 
Q 2284 3394 2536 3286 
Q 2788 3178 2913 3003 
Q 3038 2828 3088 2588 
Q 3119 2431 3119 2041 
L 3119 0 
L 2556 0 
L 2556 2019 
Q 2556 2363 2490 2533 
Q 2425 2703 2258 2804 
Q 2091 2906 1866 2906 
Q 1506 2906 1245 2678 
Q 984 2450 984 1813 
L 984 0 
L 422 0 
z
" transform="scale(0.015625)"/>
      </defs>
      <use xlink:href="#ArialMT-56"/>
      <use xlink:href="#ArialMT-57" transform="translate(50 0)"/>
      <use xlink:href="#ArialMT-44" transform="translate(77.78125 0)"/>
      <use xlink:href="#ArialMT-46" transform="translate(133.390625 0)"/>
      <use xlink:href="#ArialMT-4e" transform="translate(183.390625 0)"/>
      <use xlink:href="#ArialMT-48" transform="translate(233.390625 0)"/>
      <use xlink:href="#ArialMT-47" transform="translate(289 0)"/>
      <use xlink:href="#ArialMT-3" transform="translate(344.609375 0)"/>
      <use xlink:href="#ArialMT-48" transform="translate(372.390625 0)"/>
      <use xlink:href="#ArialMT-51" transform="translate(428 0)"/>
      <use xlink:href="#ArialMT-56" transform="translate(483.609375 0)"/>
      <use xlink:href="#ArialMT-48" transform="translate(533.609375 0)"/>
      <use xlink:href="#ArialMT-50" transform="translate(589.21875 0)"/>
      <use xlink:href="#ArialMT-45" transform="translate(672.515625 0)"/>
      <use xlink:href="#ArialMT-4f" transform="translate(728.125 0)"/>
      <use xlink:href="#ArialMT-48" transform="translate(750.34375 0)"/>
     </g>
    </g>
    <g id="line2d_36">
     <path d="M 60.367271 104.492847 
L 72.367271 104.492847 
L 84.367271 104.492847 
" style="fill: none; stroke: #d55e00; stroke-width: 2; stroke-linecap: square"/>
    </g>
    <g id="text_19">
     <!-- Pareto front -->
     <g transform="translate(93.967271 108.692847) scale(0.12 -0.12)">
      <defs>
       <path id="ArialMT-49" d="M 556 0 
L 556 2881 
L 59 2881 
L 59 3319 
L 556 3319 
L 556 3672 
Q 556 4006 616 4169 
Q 697 4388 901 4523 
Q 1106 4659 1475 4659 
Q 1713 4659 2000 4603 
L 1916 4113 
Q 1741 4144 1584 4144 
Q 1328 4144 1222 4034 
Q 1116 3925 1116 3625 
L 1116 3319 
L 1763 3319 
L 1763 2881 
L 1116 2881 
L 1116 0 
L 556 0 
z
" transform="scale(0.015625)"/>
      </defs>
      <use xlink:href="#ArialMT-33"/>
      <use xlink:href="#ArialMT-44" transform="translate(66.703125 0)"/>
      <use xlink:href="#ArialMT-55" transform="translate(122.3125 0)"/>
      <use xlink:href="#ArialMT-48" transform="translate(155.609375 0)"/>
      <use xlink:href="#ArialMT-57" transform="translate(211.21875 0)"/>
      <use xlink:href="#ArialMT-52" transform="translate(239 0)"/>
      <use xlink:href="#ArialMT-3" transform="translate(294.609375 0)"/>
      <use xlink:href="#ArialMT-49" transform="translate(322.390625 0)"/>
      <use xlink:href="#ArialMT-55" transform="translate(350.171875 0)"/>
      <use xlink:href="#ArialMT-52" transform="translate(383.46875 0)"/>
      <use xlink:href="#ArialMT-51" transform="translate(439.078125 0)"/>
      <use xlink:href="#ArialMT-57" transform="translate(494.6875 0)"/>
     </g>
    </g>
   </g>
   <g id="patch_5">
    <path d="M 350.426669 159.408557 
Q 379.755273 167.03143 409.083878 174.654303 
" style="fill: none; stroke: #888888; stroke-width: 0.7; stroke-linecap: round"/>
   </g>
   <g id="text_20">
    <!-- convnextv2_nano -->
    <g transform="translate(279.76212 155.094275) scale(0.11 -0.11)">
     <defs>
      <path id="ArialMT-59" d="M 1344 0 
L 81 3319 
L 675 3319 
L 1388 1331 
Q 1503 1009 1600 663 
Q 1675 925 1809 1294 
L 2547 3319 
L 3125 3319 
L 1869 0 
L 1344 0 
z
" transform="scale(0.015625)"/>
      <path id="ArialMT-42" d="M -97 -1272 
L -97 -866 
L 3631 -866 
L 3631 -1272 
L -97 -1272 
z
" transform="scale(0.015625)"/>
     </defs>
     <use xlink:href="#ArialMT-46"/>
     <use xlink:href="#ArialMT-52" transform="translate(50 0)"/>
     <use xlink:href="#ArialMT-51" transform="translate(105.609375 0)"/>
     <use xlink:href="#ArialMT-59" transform="translate(161.21875 0)"/>
     <use xlink:href="#ArialMT-51" transform="translate(211.21875 0)"/>
     <use xlink:href="#ArialMT-48" transform="translate(266.828125 0)"/>
     <use xlink:href="#ArialMT-5b" transform="translate(322.4375 0)"/>
     <use xlink:href="#ArialMT-57" transform="translate(372.4375 0)"/>
     <use xlink:href="#ArialMT-59" transform="translate(400.21875 0)"/>
     <use xlink:href="#ArialMT-15" transform="translate(450.21875 0)"/>
     <use xlink:href="#ArialMT-42" transform="translate(505.828125 0)"/>
     <use xlink:href="#ArialMT-51" transform="translate(561.4375 0)"/>
     <use xlink:href="#ArialMT-44" transform="translate(617.046875 0)"/>
     <use xlink:href="#ArialMT-51" transform="translate(672.65625 0)"/>
     <use xlink:href="#ArialMT-52" transform="translate(728.265625 0)"/>
    </g>
   </g>
   <g id="patch_6">
    <path d="M 411.98837 174.339144 
Q 411.98837 166.839049 411.98837 159.338954 
" style="fill: none; stroke: #888888; stroke-width: 0.7; stroke-linecap: round"/>
   </g>
   <g id="text_21">
    <!-- convnextv2_nano_r224 -->
    <g transform="translate(354.809854 184.345459) scale(0.11 -0.11)">
     <use xlink:href="#ArialMT-46"/>
     <use xlink:href="#ArialMT-52" transform="translate(50 0)"/>
     <use xlink:href="#ArialMT-51" transform="translate(105.609375 0)"/>
     <use xlink:href="#ArialMT-59" transform="translate(161.21875 0)"/>
     <use xlink:href="#ArialMT-51" transform="translate(211.21875 0)"/>
     <use xlink:href="#ArialMT-48" transform="translate(266.828125 0)"/>
     <use xlink:href="#ArialMT-5b" transform="translate(322.4375 0)"/>
     <use xlink:href="#ArialMT-57" transform="translate(372.4375 0)"/>
     <use xlink:href="#ArialMT-59" transform="translate(400.21875 0)"/>
     <use xlink:href="#ArialMT-15" transform="translate(450.21875 0)"/>
     <use xlink:href="#ArialMT-42" transform="translate(505.828125 0)"/>
     <use xlink:href="#ArialMT-51" transform="translate(561.4375 0)"/>
     <use xlink:href="#ArialMT-44" transform="translate(617.046875 0)"/>
     <use xlink:href="#ArialMT-51" transform="translate(672.65625 0)"/>
     <use xlink:href="#ArialMT-52" transform="translate(728.265625 0)"/>
     <use xlink:href="#ArialMT-42" transform="translate(783.875 0)"/>
     <use xlink:href="#ArialMT-55" transform="translate(839.484375 0)"/>
     <use xlink:href="#ArialMT-15" transform="translate(872.78125 0)"/>
     <use xlink:href="#ArialMT-15" transform="translate(928.390625 0)"/>
     <use xlink:href="#ArialMT-17" transform="translate(984 0)"/>
    </g>
   </g>
   <g id="patch_7">
    <path d="M 564.141814 153.135065 
Q 543.639474 154.574877 523.137134 156.014689 
" style="fill: none; stroke: #888888; stroke-width: 0.7; stroke-linecap: round"/>
   </g>
   <g id="text_22">
    <!-- convnextv2_tiny -->
    <g transform="translate(566.142817 153.071542) scale(0.11 -0.11)">
     <defs>
      <path id="ArialMT-5c" d="M 397 -1278 
L 334 -750 
Q 519 -800 656 -800 
Q 844 -800 956 -737 
Q 1069 -675 1141 -563 
Q 1194 -478 1313 -144 
Q 1328 -97 1363 -6 
L 103 3319 
L 709 3319 
L 1400 1397 
Q 1534 1031 1641 628 
Q 1738 1016 1872 1384 
L 2581 3319 
L 3144 3319 
L 1881 -56 
Q 1678 -603 1566 -809 
Q 1416 -1088 1222 -1217 
Q 1028 -1347 759 -1347 
Q 597 -1347 397 -1278 
z
" transform="scale(0.015625)"/>
     </defs>
     <use xlink:href="#ArialMT-46"/>
     <use xlink:href="#ArialMT-52" transform="translate(50 0)"/>
     <use xlink:href="#ArialMT-51" transform="translate(105.609375 0)"/>
     <use xlink:href="#ArialMT-59" transform="translate(161.21875 0)"/>
     <use xlink:href="#ArialMT-51" transform="translate(211.21875 0)"/>
     <use xlink:href="#ArialMT-48" transform="translate(266.828125 0)"/>
     <use xlink:href="#ArialMT-5b" transform="translate(322.4375 0)"/>
     <use xlink:href="#ArialMT-57" transform="translate(372.4375 0)"/>
     <use xlink:href="#ArialMT-59" transform="translate(400.21875 0)"/>
     <use xlink:href="#ArialMT-15" transform="translate(450.21875 0)"/>
     <use xlink:href="#ArialMT-42" transform="translate(505.828125 0)"/>
     <use xlink:href="#ArialMT-57" transform="translate(561.4375 0)"/>
     <use xlink:href="#ArialMT-4c" transform="translate(589.21875 0)"/>
     <use xlink:href="#ArialMT-51" transform="translate(611.4375 0)"/>
     <use xlink:href="#ArialMT-5c" transform="translate(667.046875 0)"/>
    </g>
   </g>
   <g id="patch_8">
    <path d="M 71.975631 219.430153 
Q 71.975631 225.928181 71.975631 232.426209 
" style="fill: none; stroke: #888888; stroke-width: 0.7; stroke-linecap: round"/>
   </g>
   <g id="text_23">
    <!-- effvit_b0 -->
    <g transform="translate(51.285318 215.115165) scale(0.11 -0.11)">
     <use xlink:href="#ArialMT-48"/>
     <use xlink:href="#ArialMT-49" transform="translate(55.609375 0)"/>
     <use xlink:href="#ArialMT-49" transform="translate(81.578125 0)"/>
     <use xlink:href="#ArialMT-59" transform="translate(109.359375 0)"/>
     <use xlink:href="#ArialMT-4c" transform="translate(159.359375 0)"/>
     <use xlink:href="#ArialMT-57" transform="translate(181.578125 0)"/>
     <use xlink:href="#ArialMT-42" transform="translate(209.359375 0)"/>
     <use xlink:href="#ArialMT-45" transform="translate(264.96875 0)"/>
     <use xlink:href="#ArialMT-13" transform="translate(320.578125 0)"/>
    </g>
   </g>
   <g id="patch_9">
    <path d="M 476.899418 358.618783 
Q 476.899418 365.116811 476.899418 371.614838 
" style="fill: none; stroke: #888888; stroke-width: 0.7; stroke-linecap: round"/>
   </g>
   <g id="text_24">
    <!-- eva02_small -->
    <g transform="translate(446.022934 354.303794) scale(0.11 -0.11)">
     <use xlink:href="#ArialMT-48"/>
     <use xlink:href="#ArialMT-59" transform="translate(55.609375 0)"/>
     <use xlink:href="#ArialMT-44" transform="translate(105.609375 0)"/>
     <use xlink:href="#ArialMT-13" transform="translate(161.21875 0)"/>
     <use xlink:href="#ArialMT-15" transform="translate(216.828125 0)"/>
     <use xlink:href="#ArialMT-42" transform="translate(272.4375 0)"/>
     <use xlink:href="#ArialMT-56" transform="translate(328.046875 0)"/>
     <use xlink:href="#ArialMT-50" transform="translate(378.046875 0)"/>
     <use xlink:href="#ArialMT-44" transform="translate(461.34375 0)"/>
     <use xlink:href="#ArialMT-4f" transform="translate(516.953125 0)"/>
     <use xlink:href="#ArialMT-4f" transform="translate(539.171875 0)"/>
    </g>
   </g>
   <g id="patch_10">
    <path d="M 99.473356 345.57631 
Q 99.473356 338.076216 99.473356 330.576121 
" style="fill: none; stroke: #888888; stroke-width: 0.7; stroke-linecap: round"/>
   </g>
   <g id="text_25">
    <!-- mnv4_small -->
    <g transform="translate(70.132575 355.582626) scale(0.11 -0.11)">
     <use xlink:href="#ArialMT-50"/>
     <use xlink:href="#ArialMT-51" transform="translate(83.296875 0)"/>
     <use xlink:href="#ArialMT-59" transform="translate(138.90625 0)"/>
     <use xlink:href="#ArialMT-17" transform="translate(188.90625 0)"/>
     <use xlink:href="#ArialMT-42" transform="translate(244.515625 0)"/>
     <use xlink:href="#ArialMT-56" transform="translate(300.125 0)"/>
     <use xlink:href="#ArialMT-50" transform="translate(350.125 0)"/>
     <use xlink:href="#ArialMT-44" transform="translate(433.421875 0)"/>
     <use xlink:href="#ArialMT-4f" transform="translate(489.03125 0)"/>
     <use xlink:href="#ArialMT-4f" transform="translate(511.25 0)"/>
    </g>
   </g>
   <g id="patch_11">
    <path d="M 394.992452 78.184555 
Q 407.15213 87.28559 419.311807 96.386625 
" style="fill: none; stroke: #888888; stroke-width: 0.7; stroke-linecap: round"/>
   </g>
   <g id="text_26">
    <!-- stack_best -->
    <g transform="translate(359.136015 73.871137) scale(0.11 -0.11)">
     <use xlink:href="#ArialMT-56"/>
     <use xlink:href="#ArialMT-57" transform="translate(50 0)"/>
     <use xlink:href="#ArialMT-44" transform="translate(77.78125 0)"/>
     <use xlink:href="#ArialMT-46" transform="translate(133.390625 0)"/>
     <use xlink:href="#ArialMT-4e" transform="translate(183.390625 0)"/>
     <use xlink:href="#ArialMT-42" transform="translate(233.390625 0)"/>
     <use xlink:href="#ArialMT-45" transform="translate(289 0)"/>
     <use xlink:href="#ArialMT-48" transform="translate(344.609375 0)"/>
     <use xlink:href="#ArialMT-56" transform="translate(400.21875 0)"/>
     <use xlink:href="#ArialMT-57" transform="translate(450.21875 0)"/>
    </g>
   </g>
   <g id="patch_12">
    <path d="M 555.003442 121.872093 
Q 525.43543 115.202163 495.867418 108.532234 
" style="fill: none; stroke: #888888; stroke-width: 0.7; stroke-linecap: round"/>
   </g>
   <g id="text_27">
    <!-- stack_gbdt+3img+udk -->
    <g transform="translate(532.939217 131.879994) scale(0.11 -0.11)">
     <defs>
      <path id="ArialMT-e" d="M 1603 741 
L 1603 1997 
L 356 1997 
L 356 2522 
L 1603 2522 
L 1603 3769 
L 2134 3769 
L 2134 2522 
L 3381 2522 
L 3381 1997 
L 2134 1997 
L 2134 741 
L 1603 741 
z
" transform="scale(0.015625)"/>
     </defs>
     <use xlink:href="#ArialMT-56"/>
     <use xlink:href="#ArialMT-57" transform="translate(50 0)"/>
     <use xlink:href="#ArialMT-44" transform="translate(77.78125 0)"/>
     <use xlink:href="#ArialMT-46" transform="translate(133.390625 0)"/>
     <use xlink:href="#ArialMT-4e" transform="translate(183.390625 0)"/>
     <use xlink:href="#ArialMT-42" transform="translate(233.390625 0)"/>
     <use xlink:href="#ArialMT-4a" transform="translate(289 0)"/>
     <use xlink:href="#ArialMT-45" transform="translate(344.609375 0)"/>
     <use xlink:href="#ArialMT-47" transform="translate(400.21875 0)"/>
     <use xlink:href="#ArialMT-57" transform="translate(455.828125 0)"/>
     <use xlink:href="#ArialMT-e" transform="translate(483.609375 0)"/>
     <use xlink:href="#ArialMT-16" transform="translate(542.015625 0)"/>
     <use xlink:href="#ArialMT-4c" transform="translate(597.625 0)"/>
     <use xlink:href="#ArialMT-50" transform="translate(619.84375 0)"/>
     <use xlink:href="#ArialMT-4a" transform="translate(703.140625 0)"/>
     <use xlink:href="#ArialMT-e" transform="translate(758.75 0)"/>
     <use xlink:href="#ArialMT-58" transform="translate(817.15625 0)"/>
     <use xlink:href="#ArialMT-47" transform="translate(872.765625 0)"/>
     <use xlink:href="#ArialMT-4e" transform="translate(928.375 0)"/>
    </g>
   </g>
   <g id="patch_13">
    <path d="M 518.332145 342.239176 
Q 518.332145 348.74114 518.332145 355.243104 
" style="fill: none; stroke: #888888; stroke-width: 0.7; stroke-linecap: round"/>
   </g>
   <g id="text_28">
    <!-- swinv2_tiny -->
    <g transform="translate(489.90402 337.924047) scale(0.11 -0.11)">
     <defs>
      <path id="ArialMT-5a" d="M 1034 0 
L 19 3319 
L 600 3319 
L 1128 1403 
L 1325 691 
Q 1338 744 1497 1375 
L 2025 3319 
L 2603 3319 
L 3100 1394 
L 3266 759 
L 3456 1400 
L 4025 3319 
L 4572 3319 
L 3534 0 
L 2950 0 
L 2422 1988 
L 2294 2553 
L 1622 0 
L 1034 0 
z
" transform="scale(0.015625)"/>
     </defs>
     <use xlink:href="#ArialMT-56"/>
     <use xlink:href="#ArialMT-5a" transform="translate(50 0)"/>
     <use xlink:href="#ArialMT-4c" transform="translate(122.21875 0)"/>
     <use xlink:href="#ArialMT-51" transform="translate(144.4375 0)"/>
     <use xlink:href="#ArialMT-59" transform="translate(200.046875 0)"/>
     <use xlink:href="#ArialMT-15" transform="translate(250.046875 0)"/>
     <use xlink:href="#ArialMT-42" transform="translate(305.65625 0)"/>
     <use xlink:href="#ArialMT-57" transform="translate(361.265625 0)"/>
     <use xlink:href="#ArialMT-4c" transform="translate(389.046875 0)"/>
     <use xlink:href="#ArialMT-51" transform="translate(411.265625 0)"/>
     <use xlink:href="#ArialMT-5c" transform="translate(466.875 0)"/>
    </g>
   </g>
   <g id="patch_14">
    <path d="M 237.284267 219.372646 
Q 237.284267 226.872773 237.284267 234.3729 
" style="fill: none; stroke: #888888; stroke-width: 0.7; stroke-linecap: round"/>
   </g>
   <g id="text_29">
    <!-- vit_tiny -->
    <g transform="translate(220.167236 215.059552) scale(0.11 -0.11)">
     <use xlink:href="#ArialMT-59"/>
     <use xlink:href="#ArialMT-4c" transform="translate(50 0)"/>
     <use xlink:href="#ArialMT-57" transform="translate(72.21875 0)"/>
     <use xlink:href="#ArialMT-42" transform="translate(100 0)"/>
     <use xlink:href="#ArialMT-57" transform="translate(155.609375 0)"/>
     <use xlink:href="#ArialMT-4c" transform="translate(183.390625 0)"/>
     <use xlink:href="#ArialMT-51" transform="translate(205.609375 0)"/>
     <use xlink:href="#ArialMT-5c" transform="translate(261.21875 0)"/>
    </g>
   </g>
  </g>
 </g>
 <defs>
  <clipPath id="pccc2e21f66">
   <rect x="49.567271" y="37.370894" width="492.983905" height="398.063026"/>
  </clipPath>
 </defs>
</svg>
