<?xml version="1.0" encoding="utf-8" standalone="no"?>
<!DOCTYPE svg PUBLIC "-//W3C//DTD SVG 1.1//EN"
  "http://www.w3.org/Graphics/SVG/1.1/DTD/svg11.dtd">
<svg xmlns:xlink="http://www.w3.org/1999/xlink" width="475.2pt" height="403.2pt" viewBox="0 0 475.2 403.2" xmlns="http://www.w3.org/2000/svg" version="1.1">
 <metadata>
  <rdf:RDF xmlns:dc="http://purl.org/dc/elements/1.1/" xmlns:cc="http://creativecommons.org/ns#" xmlns:rdf="http://www.w3.org/1999/02/22-rdf-syntax-ns#">
   <cc:Work>
    <dc:type rdf:resource="http://purl.org/dc/dcmitype/StillImage"/>
    <dc:date>2026-06-16T08:22:56.332605</dc:date>
    <dc:format>image/svg+xml</dc:format>
    <dc:creator>
     <cc:Agent>
      <dc:title>Matplotlib v3.11.0, https://matplotlib.org/</dc:title>
     </cc:Agent>
    </dc:creator>
   </cc:Work>
  </rdf:RDF>
 </metadata>
 <defs>
  <style type="text/css">*{stroke-linejoin: round; stroke-linecap: butt}</style>
 </defs>
 <g id="figure_1">
  <g id="patch_1">
   <path d="M 0 403.2 
L 475.2 403.2 
L 475.2 0 
L 0 0 
z
" style="fill: #ffffff"/>
  </g>
  <g id="axes_1">
   <g id="patch_2">
    <path d="M 42.880435 365.737592 
L 472.19976 365.737592 
L 472.19976 19.92065 
L 42.880435 19.92065 
z
" style="fill: #ffffff"/>
   </g>
   <g id="matplotlib.axis_1">
    <g id="xtick_1">
     <g id="line2d_1">
      <path d="M 62.39495 365.737592 
L 62.39495 19.92065 
" clip-path="url(#pb0e0cc169e)" style="fill: none; stroke: #b0b0b0; stroke-opacity: 0.25; stroke-width: 0.8; stroke-linecap: square"/>
     </g>
     <g id="line2d_2">
      <defs>
       <path id="m51c03d42b8" d="M 0 0 
L 0 3.5 
" style="stroke: #000000; stroke-width: 0.8"/>
      </defs>
      <g>
       <use xlink:href="#m51c03d42b8" x="62.39495" y="365.737592" style="stroke: #000000; stroke-width: 0.8"/>
      </g>
     </g>
     <g id="text_1">
      <!-- 0.0 -->
      <g transform="translate(54.05495 381.47392) scale(0.12 -0.12)">
       <defs>
        <path id="ArialMT-13" d="M 266 2259 
Q 266 3072 433 3567 
Q 600 4063 929 4331 
Q 1259 4600 1759 4600 
Q 2128 4600 2406 4451 
Q 2684 4303 2865 4023 
Q 3047 3744 3150 3342 
Q 3253 2941 3253 2259 
Q 3253 1453 3087 958 
Q 2922 463 2592 192 
Q 2263 -78 1759 -78 
Q 1097 -78 719 397 
Q 266 969 266 2259 
z
M 844 2259 
Q 844 1131 1108 757 
Q 1372 384 1759 384 
Q 2147 384 2411 759 
Q 2675 1134 2675 2259 
Q 2675 3391 2411 3762 
Q 2147 4134 1753 4134 
Q 1366 4134 1134 3806 
Q 844 3388 844 2259 
z
" transform="scale(0.015625)"/>
        <path id="ArialMT-11" d="M 581 0 
L 581 641 
L 1222 641 
L 1222 0 
L 581 0 
z
" transform="scale(0.015625)"/>
       </defs>
       <use xlink:href="#ArialMT-13"/>
       <use xlink:href="#ArialMT-11" transform="translate(55.609375 0)"/>
       <use xlink:href="#ArialMT-13" transform="translate(83.390625 0)"/>
      </g>
     </g>
    </g>
    <g id="xtick_2">
     <g id="line2d_3">
      <path d="M 140.453009 365.737592 
L 140.453009 19.92065 
" clip-path="url(#pb0e0cc169e)" style="fill: none; stroke: #b0b0b0; stroke-opacity: 0.25; stroke-width: 0.8; stroke-linecap: square"/>
     </g>
     <g id="line2d_4">
      <g>
       <use xlink:href="#m51c03d42b8" x="140.453009" y="365.737592" style="stroke: #000000; stroke-width: 0.8"/>
      </g>
     </g>
     <g id="text_2">
      <!-- 0.2 -->
      <g transform="translate(132.113009 381.47392) scale(0.12 -0.12)">
       <defs>
        <path id="ArialMT-15" d="M 3222 541 
L 3222 0 
L 194 0 
Q 188 203 259 391 
Q 375 700 629 1000 
Q 884 1300 1366 1694 
Q 2113 2306 2375 2664 
Q 2638 3022 2638 3341 
Q 2638 3675 2398 3904 
Q 2159 4134 1775 4134 
Q 1369 4134 1125 3890 
Q 881 3647 878 3216 
L 300 3275 
Q 359 3922 746 4261 
Q 1134 4600 1788 4600 
Q 2447 4600 2831 4234 
Q 3216 3869 3216 3328 
Q 3216 3053 3103 2787 
Q 2991 2522 2730 2228 
Q 2469 1934 1863 1422 
Q 1356 997 1212 845 
Q 1069 694 975 541 
L 3222 541 
z
" transform="scale(0.015625)"/>
       </defs>
       <use xlink:href="#ArialMT-13"/>
       <use xlink:href="#ArialMT-11" transform="translate(55.609375 0)"/>
       <use xlink:href="#ArialMT-15" transform="translate(83.390625 0)"/>
      </g>
     </g>
    </g>
    <g id="xtick_3">
     <g id="line2d_5">
      <path d="M 218.511068 365.737592 
L 218.511068 19.92065 
" clip-path="url(#pb0e0cc169e)" style="fill: none; stroke: #b0b0b0; stroke-opacity: 0.25; stroke-width: 0.8; stroke-linecap: square"/>
     </g>
     <g id="line2d_6">
      <g>
       <use xlink:href="#m51c03d42b8" x="218.511068" y="365.737592" style="stroke: #000000; stroke-width: 0.8"/>
      </g>
     </g>
     <g id="text_3">
      <!-- 0.4 -->
      <g transform="translate(210.171068 381.47392) scale(0.12 -0.12)">
       <defs>
        <path id="ArialMT-17" d="M 2069 0 
L 2069 1097 
L 81 1097 
L 81 1613 
L 2172 4581 
L 2631 4581 
L 2631 1613 
L 3250 1613 
L 3250 1097 
L 2631 1097 
L 2631 0 
L 2069 0 
z
M 2069 1613 
L 2069 3678 
L 634 1613 
L 2069 1613 
z
" transform="scale(0.015625)"/>
       </defs>
       <use xlink:href="#ArialMT-13"/>
       <use xlink:href="#ArialMT-11" transform="translate(55.609375 0)"/>
       <use xlink:href="#ArialMT-17" transform="translate(83.390625 0)"/>
      </g>
     </g>
    </g>
    <g id="xtick_4">
     <g id="line2d_7">
      <path d="M 296.569127 365.737592 
L 296.569127 19.92065 
" clip-path="url(#pb0e0cc169e)" style="fill: none; stroke: #b0b0b0; stroke-opacity: 0.25; stroke-width: 0.8; stroke-linecap: square"/>
     </g>
     <g id="line2d_8">
      <g>
       <use xlink:href="#m51c03d42b8" x="296.569127" y="365.737592" style="stroke: #000000; stroke-width: 0.8"/>
      </g>
     </g>
     <g id="text_4">
      <!-- 0.6 -->
      <g transform="translate(288.229127 381.47392) scale(0.12 -0.12)">
       <defs>
        <path id="ArialMT-19" d="M 3184 3459 
L 2625 3416 
Q 2550 3747 2413 3897 
Q 2184 4138 1850 4138 
Q 1581 4138 1378 3988 
Q 1113 3794 959 3422 
Q 806 3050 800 2363 
Q 1003 2672 1297 2822 
Q 1591 2972 1913 2972 
Q 2475 2972 2870 2558 
Q 3266 2144 3266 1488 
Q 3266 1056 3080 686 
Q 2894 316 2569 119 
Q 2244 -78 1831 -78 
Q 1128 -78 684 439 
Q 241 956 241 2144 
Q 241 3472 731 4075 
Q 1159 4600 1884 4600 
Q 2425 4600 2770 4297 
Q 3116 3994 3184 3459 
z
M 888 1484 
Q 888 1194 1011 928 
Q 1134 663 1356 523 
Q 1578 384 1822 384 
Q 2178 384 2434 671 
Q 2691 959 2691 1453 
Q 2691 1928 2437 2201 
Q 2184 2475 1800 2475 
Q 1419 2475 1153 2201 
Q 888 1928 888 1484 
z
" transform="scale(0.015625)"/>
       </defs>
       <use xlink:href="#ArialMT-13"/>
       <use xlink:href="#ArialMT-11" transform="translate(55.609375 0)"/>
       <use xlink:href="#ArialMT-19" transform="translate(83.390625 0)"/>
      </g>
     </g>
    </g>
    <g id="xtick_5">
     <g id="line2d_9">
      <path d="M 374.627186 365.737592 
L 374.627186 19.92065 
" clip-path="url(#pb0e0cc169e)" style="fill: none; stroke: #b0b0b0; stroke-opacity: 0.25; stroke-width: 0.8; stroke-linecap: square"/>
     </g>
     <g id="line2d_10">
      <g>
       <use xlink:href="#m51c03d42b8" x="374.627186" y="365.737592" style="stroke: #000000; stroke-width: 0.8"/>
      </g>
     </g>
     <g id="text_5">
      <!-- 0.8 -->
      <g transform="translate(366.287186 381.47392) scale(0.12 -0.12)">
       <defs>
        <path id="ArialMT-1b" d="M 1131 2484 
Q 781 2613 612 2850 
Q 444 3088 444 3419 
Q 444 3919 803 4259 
Q 1163 4600 1759 4600 
Q 2359 4600 2725 4251 
Q 3091 3903 3091 3403 
Q 3091 3084 2923 2848 
Q 2756 2613 2416 2484 
Q 2838 2347 3058 2040 
Q 3278 1734 3278 1309 
Q 3278 722 2862 322 
Q 2447 -78 1769 -78 
Q 1091 -78 675 323 
Q 259 725 259 1325 
Q 259 1772 486 2073 
Q 713 2375 1131 2484 
z
M 1019 3438 
Q 1019 3113 1228 2906 
Q 1438 2700 1772 2700 
Q 2097 2700 2305 2904 
Q 2513 3109 2513 3406 
Q 2513 3716 2298 3927 
Q 2084 4138 1766 4138 
Q 1444 4138 1231 3931 
Q 1019 3725 1019 3438 
z
M 838 1322 
Q 838 1081 952 856 
Q 1066 631 1291 507 
Q 1516 384 1775 384 
Q 2178 384 2440 643 
Q 2703 903 2703 1303 
Q 2703 1709 2433 1975 
Q 2163 2241 1756 2241 
Q 1359 2241 1098 1978 
Q 838 1716 838 1322 
z
" transform="scale(0.015625)"/>
       </defs>
       <use xlink:href="#ArialMT-13"/>
       <use xlink:href="#ArialMT-11" transform="translate(55.609375 0)"/>
       <use xlink:href="#ArialMT-1b" transform="translate(83.390625 0)"/>
      </g>
     </g>
    </g>
    <g id="xtick_6">
     <g id="line2d_11">
      <path d="M 452.685245 365.737592 
L 452.685245 19.92065 
" clip-path="url(#pb0e0cc169e)" style="fill: none; stroke: #b0b0b0; stroke-opacity: 0.25; stroke-width: 0.8; stroke-linecap: square"/>
     </g>
     <g id="line2d_12">
      <g>
       <use xlink:href="#m51c03d42b8" x="452.685245" y="365.737592" style="stroke: #000000; stroke-width: 0.8"/>
      </g>
     </g>
     <g id="text_6">
      <!-- 1.0 -->
      <g transform="translate(444.345245 381.47392) scale(0.12 -0.12)">
       <defs>
        <path id="ArialMT-14" d="M 2384 0 
L 1822 0 
L 1822 3584 
Q 1619 3391 1289 3197 
Q 959 3003 697 2906 
L 697 3450 
Q 1169 3672 1522 3987 
Q 1875 4303 2022 4600 
L 2384 4600 
L 2384 0 
z
" transform="scale(0.015625)"/>
       </defs>
       <use xlink:href="#ArialMT-14"/>
       <use xlink:href="#ArialMT-11" transform="translate(55.609375 0)"/>
       <use xlink:href="#ArialMT-13" transform="translate(83.390625 0)"/>
      </g>
     </g>
    </g>
    <g id="text_7">
     <!-- Recall (sensitivity) -->
     <g transform="translate(205.17041 397.463666) scale(0.13 -0.13)">
      <defs>
       <path id="ArialMT-35" d="M 503 0 
L 503 4581 
L 2534 4581 
Q 3147 4581 3465 4457 
Q 3784 4334 3975 4021 
Q 4166 3709 4166 3331 
Q 4166 2844 3850 2509 
Q 3534 2175 2875 2084 
Q 3116 1969 3241 1856 
Q 3506 1613 3744 1247 
L 4541 0 
L 3778 0 
L 3172 953 
Q 2906 1366 2734 1584 
Q 2563 1803 2427 1890 
Q 2291 1978 2150 2013 
Q 2047 2034 1813 2034 
L 1109 2034 
L 1109 0 
L 503 0 
z
M 1109 2559 
L 2413 2559 
Q 2828 2559 3062 2645 
Q 3297 2731 3419 2920 
Q 3541 3109 3541 3331 
Q 3541 3656 3305 3865 
Q 3069 4075 2559 4075 
L 1109 4075 
L 1109 2559 
z
" transform="scale(0.015625)"/>
       <path id="ArialMT-48" d="M 2694 1069 
L 3275 997 
Q 3138 488 2766 206 
Q 2394 -75 1816 -75 
Q 1088 -75 661 373 
Q 234 822 234 1631 
Q 234 2469 665 2931 
Q 1097 3394 1784 3394 
Q 2450 3394 2872 2941 
Q 3294 2488 3294 1666 
Q 3294 1616 3291 1516 
L 816 1516 
Q 847 969 1125 678 
Q 1403 388 1819 388 
Q 2128 388 2347 550 
Q 2566 713 2694 1069 
z
M 847 1978 
L 2700 1978 
Q 2663 2397 2488 2606 
Q 2219 2931 1791 2931 
Q 1403 2931 1139 2672 
Q 875 2413 847 1978 
z
" transform="scale(0.015625)"/>
       <path id="ArialMT-46" d="M 2588 1216 
L 3141 1144 
Q 3050 572 2676 248 
Q 2303 -75 1759 -75 
Q 1078 -75 664 370 
Q 250 816 250 1647 
Q 250 2184 428 2587 
Q 606 2991 970 3192 
Q 1334 3394 1763 3394 
Q 2303 3394 2647 3120 
Q 2991 2847 3088 2344 
L 2541 2259 
Q 2463 2594 2264 2762 
Q 2066 2931 1784 2931 
Q 1359 2931 1093 2626 
Q 828 2322 828 1663 
Q 828 994 1084 691 
Q 1341 388 1753 388 
Q 2084 388 2306 591 
Q 2528 794 2588 1216 
z
" transform="scale(0.015625)"/>
       <path id="ArialMT-44" d="M 2588 409 
Q 2275 144 1986 34 
Q 1697 -75 1366 -75 
Q 819 -75 525 192 
Q 231 459 231 875 
Q 231 1119 342 1320 
Q 453 1522 633 1644 
Q 813 1766 1038 1828 
Q 1203 1872 1538 1913 
Q 2219 1994 2541 2106 
Q 2544 2222 2544 2253 
Q 2544 2597 2384 2738 
Q 2169 2928 1744 2928 
Q 1347 2928 1158 2789 
Q 969 2650 878 2297 
L 328 2372 
Q 403 2725 575 2942 
Q 747 3159 1072 3276 
Q 1397 3394 1825 3394 
Q 2250 3394 2515 3294 
Q 2781 3194 2906 3042 
Q 3031 2891 3081 2659 
Q 3109 2516 3109 2141 
L 3109 1391 
Q 3109 606 3145 398 
Q 3181 191 3288 0 
L 2700 0 
Q 2613 175 2588 409 
z
M 2541 1666 
Q 2234 1541 1622 1453 
Q 1275 1403 1131 1340 
Q 988 1278 909 1158 
Q 831 1038 831 891 
Q 831 666 1001 516 
Q 1172 366 1500 366 
Q 1825 366 2078 508 
Q 2331 650 2450 897 
Q 2541 1088 2541 1459 
L 2541 1666 
z
" transform="scale(0.015625)"/>
       <path id="ArialMT-4f" d="M 409 0 
L 409 4581 
L 972 4581 
L 972 0 
L 409 0 
z
" transform="scale(0.015625)"/>
       <path id="ArialMT-3" transform="scale(0.015625)"/>
       <path id="ArialMT-b" d="M 1497 -1347 
Q 1031 -759 709 28 
Q 388 816 388 1659 
Q 388 2403 628 3084 
Q 909 3875 1497 4659 
L 1900 4659 
Q 1522 4009 1400 3731 
Q 1209 3300 1100 2831 
Q 966 2247 966 1656 
Q 966 153 1900 -1347 
L 1497 -1347 
z
" transform="scale(0.015625)"/>
       <path id="ArialMT-56" d="M 197 991 
L 753 1078 
Q 800 744 1014 566 
Q 1228 388 1613 388 
Q 2000 388 2187 545 
Q 2375 703 2375 916 
Q 2375 1106 2209 1216 
Q 2094 1291 1634 1406 
Q 1016 1563 777 1677 
Q 538 1791 414 1992 
Q 291 2194 291 2438 
Q 291 2659 392 2848 
Q 494 3038 669 3163 
Q 800 3259 1026 3326 
Q 1253 3394 1513 3394 
Q 1903 3394 2198 3281 
Q 2494 3169 2634 2976 
Q 2775 2784 2828 2463 
L 2278 2388 
Q 2241 2644 2061 2787 
Q 1881 2931 1553 2931 
Q 1166 2931 1000 2803 
Q 834 2675 834 2503 
Q 834 2394 903 2306 
Q 972 2216 1119 2156 
Q 1203 2125 1616 2013 
Q 2213 1853 2448 1751 
Q 2684 1650 2818 1456 
Q 2953 1263 2953 975 
Q 2953 694 2789 445 
Q 2625 197 2315 61 
Q 2006 -75 1616 -75 
Q 969 -75 630 194 
Q 291 463 197 991 
z
" transform="scale(0.015625)"/>
       <path id="ArialMT-51" d="M 422 0 
L 422 3319 
L 928 3319 
L 928 2847 
Q 1294 3394 1984 3394 
Q 2284 3394 2536 3286 
Q 2788 3178 2913 3003 
Q 3038 2828 3088 2588 
Q 3119 2431 3119 2041 
L 3119 0 
L 2556 0 
L 2556 2019 
Q 2556 2363 2490 2533 
Q 2425 2703 2258 2804 
Q 2091 2906 1866 2906 
Q 1506 2906 1245 2678 
Q 984 2450 984 1813 
L 984 0 
L 422 0 
z
" transform="scale(0.015625)"/>
       <path id="ArialMT-4c" d="M 425 3934 
L 425 4581 
L 988 4581 
L 988 3934 
L 425 3934 
z
M 425 0 
L 425 3319 
L 988 3319 
L 988 0 
L 425 0 
z
" transform="scale(0.015625)"/>
       <path id="ArialMT-57" d="M 1650 503 
L 1731 6 
Q 1494 -44 1306 -44 
Q 1000 -44 831 53 
Q 663 150 594 308 
Q 525 466 525 972 
L 525 2881 
L 113 2881 
L 113 3319 
L 525 3319 
L 525 4141 
L 1084 4478 
L 1084 3319 
L 1650 3319 
L 1650 2881 
L 1084 2881 
L 1084 941 
Q 1084 700 1114 631 
Q 1144 563 1211 522 
Q 1278 481 1403 481 
Q 1497 481 1650 503 
z
" transform="scale(0.015625)"/>
       <path id="ArialMT-59" d="M 1344 0 
L 81 3319 
L 675 3319 
L 1388 1331 
Q 1503 1009 1600 663 
Q 1675 925 1809 1294 
L 2547 3319 
L 3125 3319 
L 1869 0 
L 1344 0 
z
" transform="scale(0.015625)"/>
       <path id="ArialMT-5c" d="M 397 -1278 
L 334 -750 
Q 519 -800 656 -800 
Q 844 -800 956 -737 
Q 1069 -675 1141 -563 
Q 1194 -478 1313 -144 
Q 1328 -97 1363 -6 
L 103 3319 
L 709 3319 
L 1400 1397 
Q 1534 1031 1641 628 
Q 1738 1016 1872 1384 
L 2581 3319 
L 3144 3319 
L 1881 -56 
Q 1678 -603 1566 -809 
Q 1416 -1088 1222 -1217 
Q 1028 -1347 759 -1347 
Q 597 -1347 397 -1278 
z
" transform="scale(0.015625)"/>
       <path id="ArialMT-c" d="M 791 -1347 
L 388 -1347 
Q 1322 153 1322 1656 
Q 1322 2244 1188 2822 
Q 1081 3291 891 3722 
Q 769 4003 388 4659 
L 791 4659 
Q 1378 3875 1659 3084 
Q 1900 2403 1900 1659 
Q 1900 816 1576 28 
Q 1253 -759 791 -1347 
z
" transform="scale(0.015625)"/>
      </defs>
      <use xlink:href="#ArialMT-35"/>
      <use xlink:href="#ArialMT-48" transform="translate(72.21875 0)"/>
      <use xlink:href="#ArialMT-46" transform="translate(127.828125 0)"/>
      <use xlink:href="#ArialMT-44" transform="translate(177.828125 0)"/>
      <use xlink:href="#ArialMT-4f" transform="translate(233.4375 0)"/>
      <use xlink:href="#ArialMT-4f" transform="translate(255.65625 0)"/>
      <use xlink:href="#ArialMT-3" transform="translate(277.875 0)"/>
      <use xlink:href="#ArialMT-b" transform="translate(305.65625 0)"/>
      <use xlink:href="#ArialMT-56" transform="translate(338.953125 0)"/>
      <use xlink:href="#ArialMT-48" transform="translate(388.953125 0)"/>
      <use xlink:href="#ArialMT-51" transform="translate(444.5625 0)"/>
      <use xlink:href="#ArialMT-56" transform="translate(500.171875 0)"/>
      <use xlink:href="#ArialMT-4c" transform="translate(550.171875 0)"/>
      <use xlink:href="#ArialMT-57" transform="translate(572.390625 0)"/>
      <use xlink:href="#ArialMT-4c" transform="translate(600.171875 0)"/>
      <use xlink:href="#ArialMT-59" transform="translate(622.390625 0)"/>
      <use xlink:href="#ArialMT-4c" transform="translate(672.390625 0)"/>
      <use xlink:href="#ArialMT-57" transform="translate(694.609375 0)"/>
      <use xlink:href="#ArialMT-5c" transform="translate(722.390625 0)"/>
      <use xlink:href="#ArialMT-c" transform="translate(772.390625 0)"/>
     </g>
    </g>
   </g>
   <g id="matplotlib.axis_2">
    <g id="ytick_1">
     <g id="line2d_13">
      <path d="M 42.880435 350.01864 
L 472.19976 350.01864 
" clip-path="url(#pb0e0cc169e)" style="fill: none; stroke: #b0b0b0; stroke-opacity: 0.25; stroke-width: 0.8; stroke-linecap: square"/>
     </g>
     <g id="line2d_14">
      <defs>
       <path id="ma955edc6dd" d="M 0 0 
L -3.5 0 
" style="stroke: #000000; stroke-width: 0.8"/>
      </defs>
      <g>
       <use xlink:href="#ma955edc6dd" x="42.880435" y="350.01864" style="stroke: #000000; stroke-width: 0.8"/>
      </g>
     </g>
     <g id="text_8">
      <!-- 0.0 -->
      <g transform="translate(19.200435 354.386804) scale(0.12 -0.12)">
       <use xlink:href="#ArialMT-13"/>
       <use xlink:href="#ArialMT-11" transform="translate(55.609375 0)"/>
       <use xlink:href="#ArialMT-13" transform="translate(83.390625 0)"/>
      </g>
     </g>
    </g>
    <g id="ytick_2">
     <g id="line2d_15">
      <path d="M 42.880435 287.142833 
L 472.19976 287.142833 
" clip-path="url(#pb0e0cc169e)" style="fill: none; stroke: #b0b0b0; stroke-opacity: 0.25; stroke-width: 0.8; stroke-linecap: square"/>
     </g>
     <g id="line2d_16">
      <g>
       <use xlink:href="#ma955edc6dd" x="42.880435" y="287.142833" style="stroke: #000000; stroke-width: 0.8"/>
      </g>
     </g>
     <g id="text_9">
      <!-- 0.2 -->
      <g transform="translate(19.200435 291.510997) scale(0.12 -0.12)">
       <use xlink:href="#ArialMT-13"/>
       <use xlink:href="#ArialMT-11" transform="translate(55.609375 0)"/>
       <use xlink:href="#ArialMT-15" transform="translate(83.390625 0)"/>
      </g>
     </g>
    </g>
    <g id="ytick_3">
     <g id="line2d_17">
      <path d="M 42.880435 224.267025 
L 472.19976 224.267025 
" clip-path="url(#pb0e0cc169e)" style="fill: none; stroke: #b0b0b0; stroke-opacity: 0.25; stroke-width: 0.8; stroke-linecap: square"/>
     </g>
     <g id="line2d_18">
      <g>
       <use xlink:href="#ma955edc6dd" x="42.880435" y="224.267025" style="stroke: #000000; stroke-width: 0.8"/>
      </g>
     </g>
     <g id="text_10">
      <!-- 0.4 -->
      <g transform="translate(19.200435 228.635189) scale(0.12 -0.12)">
       <use xlink:href="#ArialMT-13"/>
       <use xlink:href="#ArialMT-11" transform="translate(55.609375 0)"/>
       <use xlink:href="#ArialMT-17" transform="translate(83.390625 0)"/>
      </g>
     </g>
    </g>
    <g id="ytick_4">
     <g id="line2d_19">
      <path d="M 42.880435 161.391217 
L 472.19976 161.391217 
" clip-path="url(#pb0e0cc169e)" style="fill: none; stroke: #b0b0b0; stroke-opacity: 0.25; stroke-width: 0.8; stroke-linecap: square"/>
     </g>
     <g id="line2d_20">
      <g>
       <use xlink:href="#ma955edc6dd" x="42.880435" y="161.391217" style="stroke: #000000; stroke-width: 0.8"/>
      </g>
     </g>
     <g id="text_11">
      <!-- 0.6 -->
      <g transform="translate(19.200435 165.759381) scale(0.12 -0.12)">
       <use xlink:href="#ArialMT-13"/>
       <use xlink:href="#ArialMT-11" transform="translate(55.609375 0)"/>
       <use xlink:href="#ArialMT-19" transform="translate(83.390625 0)"/>
      </g>
     </g>
    </g>
    <g id="ytick_5">
     <g id="line2d_21">
      <path d="M 42.880435 98.51541 
L 472.19976 98.51541 
" clip-path="url(#pb0e0cc169e)" style="fill: none; stroke: #b0b0b0; stroke-opacity: 0.25; stroke-width: 0.8; stroke-linecap: square"/>
     </g>
     <g id="line2d_22">
      <g>
       <use xlink:href="#ma955edc6dd" x="42.880435" y="98.51541" style="stroke: #000000; stroke-width: 0.8"/>
      </g>
     </g>
     <g id="text_12">
      <!-- 0.8 -->
      <g transform="translate(19.200435 102.883574) scale(0.12 -0.12)">
       <use xlink:href="#ArialMT-13"/>
       <use xlink:href="#ArialMT-11" transform="translate(55.609375 0)"/>
       <use xlink:href="#ArialMT-1b" transform="translate(83.390625 0)"/>
      </g>
     </g>
    </g>
    <g id="ytick_6">
     <g id="line2d_23">
      <path d="M 42.880435 35.639602 
L 472.19976 35.639602 
" clip-path="url(#pb0e0cc169e)" style="fill: none; stroke: #b0b0b0; stroke-opacity: 0.25; stroke-width: 0.8; stroke-linecap: square"/>
     </g>
     <g id="line2d_24">
      <g>
       <use xlink:href="#ma955edc6dd" x="42.880435" y="35.639602" style="stroke: #000000; stroke-width: 0.8"/>
      </g>
     </g>
     <g id="text_13">
      <!-- 1.0 -->
      <g transform="translate(19.200435 40.007766) scale(0.12 -0.12)">
       <use xlink:href="#ArialMT-14"/>
       <use xlink:href="#ArialMT-11" transform="translate(55.609375 0)"/>
       <use xlink:href="#ArialMT-13" transform="translate(83.390625 0)"/>
      </g>
     </g>
    </g>
    <g id="text_14">
     <!-- Precision -->
     <g transform="translate(12.464595 219.561387) rotate(-90) scale(0.13 -0.13)">
      <defs>
       <path id="ArialMT-33" d="M 494 0 
L 494 4581 
L 2222 4581 
Q 2678 4581 2919 4538 
Q 3256 4481 3484 4323 
Q 3713 4166 3852 3881 
Q 3991 3597 3991 3256 
Q 3991 2672 3619 2267 
Q 3247 1863 2275 1863 
L 1100 1863 
L 1100 0 
L 494 0 
z
M 1100 2403 
L 2284 2403 
Q 2872 2403 3119 2622 
Q 3366 2841 3366 3238 
Q 3366 3525 3220 3729 
Q 3075 3934 2838 4000 
Q 2684 4041 2272 4041 
L 1100 4041 
L 1100 2403 
z
" transform="scale(0.015625)"/>
       <path id="ArialMT-55" d="M 416 0 
L 416 3319 
L 922 3319 
L 922 2816 
Q 1116 3169 1280 3281 
Q 1444 3394 1641 3394 
Q 1925 3394 2219 3213 
L 2025 2691 
Q 1819 2813 1613 2813 
Q 1428 2813 1281 2702 
Q 1134 2591 1072 2394 
Q 978 2094 978 1738 
L 978 0 
L 416 0 
z
" transform="scale(0.015625)"/>
       <path id="ArialMT-52" d="M 213 1659 
Q 213 2581 725 3025 
Q 1153 3394 1769 3394 
Q 2453 3394 2887 2945 
Q 3322 2497 3322 1706 
Q 3322 1066 3130 698 
Q 2938 331 2570 128 
Q 2203 -75 1769 -75 
Q 1072 -75 642 372 
Q 213 819 213 1659 
z
M 791 1659 
Q 791 1022 1069 705 
Q 1347 388 1769 388 
Q 2188 388 2466 706 
Q 2744 1025 2744 1678 
Q 2744 2294 2464 2611 
Q 2184 2928 1769 2928 
Q 1347 2928 1069 2612 
Q 791 2297 791 1659 
z
" transform="scale(0.015625)"/>
      </defs>
      <use xlink:href="#ArialMT-33"/>
      <use xlink:href="#ArialMT-55" transform="translate(66.703125 0)"/>
      <use xlink:href="#ArialMT-48" transform="translate(100 0)"/>
      <use xlink:href="#ArialMT-46" transform="translate(155.609375 0)"/>
      <use xlink:href="#ArialMT-4c" transform="translate(205.609375 0)"/>
      <use xlink:href="#ArialMT-56" transform="translate(227.828125 0)"/>
      <use xlink:href="#ArialMT-4c" transform="translate(277.828125 0)"/>
      <use xlink:href="#ArialMT-52" transform="translate(300.046875 0)"/>
      <use xlink:href="#ArialMT-51" transform="translate(355.65625 0)"/>
     </g>
    </g>
   </g>
   <g id="line2d_25">
    <path d="M 452.685245 349.710578 
L 452.685245 349.586724 
L 451.69214 349.587821 
L 451.69214 349.476712 
L 451.69214 349.407884 
L 448.712825 349.324446 
L 448.712825 349.30144 
L 448.712825 349.269371 
L 447.71972 349.271293 
L 447.71972 349.160183 
L 447.71972 348.835503 
L 445.73351 348.803472 
L 445.73351 348.730475 
L 445.73351 348.659125 
L 442.754194 348.574996 
L 442.754194 348.55854 
L 442.754194 348.403412 
L 437.788669 348.324309 
L 437.788669 348.313295 
L 437.788669 348.305279 
L 435.802459 348.310305 
L 435.802459 348.203206 
L 435.802459 348.195366 
L 432.823144 348.102728 
L 432.823144 348.098745 
L 432.823144 348.052223 
L 431.830039 348.057462 
L 431.830039 347.946362 
L 431.830039 347.851112 
L 429.843828 347.760082 
L 429.843828 347.751587 
L 429.843828 347.739415 
L 426.864513 347.68986 
L 426.864513 347.646675 
L 426.864513 347.587396 
L 421.898988 347.531638 
L 421.898988 347.509154 
L 421.898988 347.395735 
L 418.919673 347.314385 
L 418.919673 347.306001 
L 418.919673 347.279336 
L 415.940357 347.232716 
L 415.940357 347.191119 
L 415.940357 347.19069 
L 414.947252 347.198563 
L 414.947252 347.087463 
L 414.947252 347.043946 
L 411.967937 347.029407 
L 411.967937 346.957805 
L 411.967937 346.957297 
L 408.988622 346.911794 
L 408.988622 346.872055 
L 408.988622 346.836371 
L 404.023096 346.817054 
L 404.023096 346.770416 
L 404.023096 346.705941 
L 401.043781 346.628921 
L 401.043781 346.623446 
L 401.043781 346.521209 
L 400.050676 346.531352 
L 400.050676 346.420294 
L 400.050676 346.408505 
L 395.085151 346.37647 
L 395.085151 346.349954 
L 395.085151 346.348675 
L 391.11273 346.291582 
L 391.11273 346.280872 
L 391.11273 345.995775 
L 387.14031 345.976571 
L 387.14031 345.932712 
L 387.14031 345.871394 
L 384.160995 345.812727 
L 384.160995 345.797913 
L 384.160995 345.76655 
L 381.18168 345.697695 
L 381.18168 345.694362 
L 381.18168 345.501781 
L 379.19547 345.464491 
L 379.19547 345.418112 
L 379.19547 345.287009 
L 377.209259 345.290126 
L 377.209259 345.205167 
L 377.209259 345.1811 
L 375.223049 345.157824 
L 375.223049 345.100124 
L 375.223049 344.900842 
L 374.229944 344.916825 
L 374.229944 344.805828 
L 374.229944 344.790644 
L 372.243734 344.809875 
L 372.243734 344.712378 
L 372.243734 344.595915 
L 369.264419 344.537141 
L 369.264419 344.536213 
L 369.264419 344.45648 
L 367.278209 344.397536 
L 367.278209 344.38079 
L 367.278209 344.238298 
L 365.291998 344.230544 
L 365.291998 344.164461 
L 365.291998 343.98734 
L 363.305788 343.943586 
L 363.305788 343.915171 
L 363.305788 343.791481 
L 362.312683 343.811627 
L 362.312683 343.700515 
L 362.312683 343.185789 
L 360.326473 343.123355 
L 360.326473 343.11831 
L 360.326473 343.109211 
L 358.340263 343.136113 
L 358.340263 343.043363 
L 358.340263 342.953943 
L 353.374738 342.9812 
L 353.374738 342.959086 
L 353.374738 342.936289 
L 351.388527 342.983551 
L 351.388527 342.872546 
L 351.388527 342.738336 
L 348.409212 342.756174 
L 348.409212 342.701 
L 348.409212 342.699225 
L 346.423002 342.664444 
L 346.423002 342.637881 
L 346.423002 342.466784 
L 345.429897 342.492556 
L 345.429897 342.381577 
L 345.429897 342.302654 
L 343.443687 342.249077 
L 343.443687 342.245004 
L 343.443687 342.218424 
L 340.464372 342.21698 
L 340.464372 342.186437 
L 340.464372 342.034411 
L 339.471266 342.062204 
L 339.471266 341.951708 
L 339.471266 341.840388 
L 337.485056 341.857925 
L 337.485056 341.786955 
L 337.485056 341.607262 
L 335.498846 341.621764 
L 335.498846 341.556009 
L 335.498846 341.26644 
L 333.512636 341.316878 
L 333.512636 341.217832 
L 333.512636 341.197933 
L 331.526426 341.242711 
L 331.526426 341.151371 
L 331.526426 341.123597 
L 330.533321 341.155495 
L 330.533321 341.044928 
L 330.533321 340.800315 
L 329.540216 340.833459 
L 329.540216 340.723415 
L 329.540216 339.960605 
L 327.554006 340.003224 
L 327.554006 339.922513 
L 327.554006 339.918868 
L 326.5609 339.955484 
L 326.5609 339.846541 
L 326.5609 339.773011 
L 324.57469 339.842565 
L 324.57469 339.73667 
L 324.57469 339.620737 
L 323.581585 339.658825 
L 323.581585 339.548628 
L 323.581585 339.398 
L 321.595375 339.433897 
L 321.595375 339.365183 
L 321.595375 339.21936 
L 320.60227 339.259321 
L 320.60227 339.149152 
L 320.60227 339.047023 
L 318.61606 339.025174 
L 318.61606 339.017719 
L 318.61606 338.729873 
L 316.62985 338.707181 
L 316.62985 338.704 
L 316.62985 338.670497 
L 315.636745 338.713231 
L 315.636745 338.602141 
L 315.636745 338.576069 
L 314.64364 338.617687 
L 314.64364 338.507573 
L 314.64364 338.425685 
L 313.650534 338.46965 
L 313.650534 338.359611 
L 313.650534 337.991134 
L 311.664324 338.039114 
L 311.664324 337.971443 
L 311.664324 337.886239 
L 310.671219 337.932717 
L 310.671219 337.82206 
L 310.671219 337.662916 
L 309.678114 337.710404 
L 309.678114 337.601067 
L 309.678114 337.497786 
L 307.691904 337.582442 
L 307.691904 337.484076 
L 307.691904 337.404666 
L 305.705694 337.410543 
L 305.705694 337.391941 
L 305.705694 337.20925 
L 304.712589 337.259411 
L 304.712589 337.150248 
L 304.712589 337.006174 
L 303.719484 337.057306 
L 303.719484 336.946411 
L 303.719484 336.810807 
L 302.726379 336.862886 
L 302.726379 336.752777 
L 302.726379 336.687691 
L 299.747063 336.785708 
L 299.747063 336.729537 
L 299.747063 336.656273 
L 297.760853 336.694636 
L 297.760853 336.654007 
L 297.760853 336.591386 
L 296.767748 336.645631 
L 296.767748 336.536275 
L 296.767748 336.526468 
L 295.774643 336.581195 
L 295.774643 336.470305 
L 295.774643 336.188787 
L 294.781538 336.245059 
L 294.781538 336.13589 
L 294.781538 336.085933 
L 293.788433 336.142846 
L 293.788433 336.031564 
L 293.788433 336.020873 
L 292.795328 336.072954 
L 292.795328 335.962765 
L 292.795328 335.795564 
L 291.802223 335.854108 
L 291.802223 335.745535 
L 291.802223 335.595292 
L 290.809118 335.652024 
L 290.809118 335.545626 
L 290.809118 334.951506 
L 289.816013 335.01076 
L 289.816013 334.900455 
L 289.816013 334.804608 
L 288.822908 334.867843 
L 288.822908 334.76142 
L 288.822908 333.742886 
L 287.829802 333.810591 
L 287.829802 333.699399 
L 287.829802 333.567731 
L 286.836697 333.636426 
L 286.836697 333.526146 
L 286.836697 333.433752 
L 285.843592 333.503281 
L 285.843592 333.394602 
L 285.843592 333.367208 
L 284.850487 333.437311 
L 284.850487 333.327267 
L 284.850487 333.203715 
L 283.857382 333.274784 
L 283.857382 333.16611 
L 283.857382 333.14583 
L 282.864277 333.217449 
L 282.864277 333.107531 
L 282.864277 333.000316 
L 280.878067 333.100003 
L 280.878067 333.037695 
L 280.878067 333.004276 
L 279.884962 333.073277 
L 279.884962 332.964142 
L 279.884962 332.832168 
L 278.891857 332.906373 
L 278.891857 332.798884 
L 278.891857 332.785894 
L 276.905647 332.900951 
L 276.905647 332.82728 
L 276.905647 332.739792 
L 275.912542 332.815409 
L 275.912542 332.705245 
L 275.912542 332.544107 
L 273.926331 332.661788 
L 273.926331 332.589506 
L 273.926331 332.341044 
L 272.933226 332.414743 
L 272.933226 332.307145 
L 272.933226 332.236261 
L 271.940121 332.310691 
L 271.940121 332.201295 
L 271.940121 331.978396 
L 270.947016 332.059011 
L 270.947016 331.950879 
L 270.947016 331.796284 
L 268.960806 331.919875 
L 268.960806 331.849471 
L 268.960806 331.788688 
L 267.967701 331.871272 
L 267.967701 331.764373 
L 267.967701 331.334615 
L 266.974596 331.419536 
L 266.974596 331.31749 
L 266.974596 331.060185 
L 263.995281 331.226254 
L 263.995281 331.209638 
L 263.995281 331.14288 
L 263.002176 331.219183 
L 263.002176 331.112845 
L 263.002176 330.97108 
L 262.009071 331.059688 
L 262.009071 330.950992 
L 262.009071 330.870099 
L 260.02286 331.003008 
L 260.02286 330.939217 
L 260.02286 330.751184 
L 259.029755 330.8421 
L 259.029755 330.735168 
L 259.029755 330.493217 
L 257.043545 330.635724 
L 257.043545 330.568422 
L 257.043545 330.407472 
L 254.06423 330.583933 
L 254.06423 330.577706 
L 254.06423 330.376311 
L 253.071125 330.471757 
L 253.071125 330.363552 
L 253.071125 330.325076 
L 252.07802 330.414854 
L 252.07802 330.305444 
L 252.07802 330.135727 
L 251.084915 330.226719 
L 251.084915 330.121233 
L 251.084915 329.470991 
L 248.105599 329.697562 
L 248.105599 329.669426 
L 248.105599 329.563219 
L 247.112494 329.665525 
L 247.112494 329.558703 
L 247.112494 329.472435 
L 245.126284 329.614498 
L 245.126284 329.571223 
L 245.126284 329.447608 
L 243.140074 329.584003 
L 243.140074 329.532788 
L 243.140074 328.982984 
L 242.146969 329.09087 
L 242.146969 328.982557 
L 242.146969 328.873116 
L 241.153864 328.974301 
L 241.153864 328.864163 
L 241.153864 328.816607 
L 240.160759 328.926493 
L 240.160759 328.815231 
L 240.160759 328.791236 
L 239.167654 328.901859 
L 239.167654 328.797757 
L 239.167654 328.133826 
L 238.174549 328.248261 
L 238.174549 328.136969 
L 238.174549 328.041906 
L 236.188339 328.23862 
L 236.188339 328.169422 
L 236.188339 327.968006 
L 235.195233 328.085219 
L 235.195233 327.979175 
L 235.195233 327.20715 
L 234.202128 327.319319 
L 234.202128 327.214626 
L 234.202128 326.726317 
L 233.209023 326.851033 
L 233.209023 326.741329 
L 233.209023 326.488094 
L 232.215918 326.604522 
L 232.215918 326.502098 
L 232.215918 326.07262 
L 231.222813 326.191428 
L 231.222813 326.084723 
L 231.222813 325.82469 
L 230.229708 325.956114 
L 230.229708 325.846639 
L 230.229708 325.780475 
L 229.236603 325.901892 
L 229.236603 325.791265 
L 229.236603 325.600851 
L 228.243498 325.734968 
L 228.243498 325.633457 
L 228.243498 324.155931 
L 226.257288 324.389914 
L 226.257288 324.313714 
L 226.257288 322.874453 
L 225.264183 323.024838 
L 225.264183 322.925544 
L 225.264183 322.535611 
L 223.277973 322.827287 
L 223.277973 322.739902 
L 223.277973 322.563436 
L 222.284867 322.703462 
L 222.284867 322.599883 
L 222.284867 322.570145 
L 220.298657 322.778168 
L 220.298657 322.688806 
L 219.305552 322.845835 
L 219.305552 322.741381 
L 219.305552 322.315412 
L 218.312447 322.444613 
L 218.312447 322.336358 
L 218.312447 321.668549 
L 217.319342 321.832933 
L 217.319342 321.735405 
L 217.319342 321.604312 
L 215.333132 321.936058 
L 215.333132 321.837981 
L 215.333132 321.672989 
L 213.346922 321.97544 
L 213.346922 321.909456 
L 213.346922 320.133954 
L 212.353817 320.293384 
L 212.353817 320.181283 
L 212.353817 319.666188 
L 211.360712 319.847907 
L 211.360712 319.751082 
L 211.360712 319.277535 
L 210.367607 319.462556 
L 210.367607 319.362569 
L 210.367607 319.221483 
L 209.374501 319.40805 
L 209.374501 319.307025 
L 209.374501 318.875335 
L 205.402081 319.615295 
L 205.402081 319.5334 
L 205.402081 319.389018 
L 204.408976 319.560508 
L 204.408976 319.45698 
L 204.408976 318.799055 
L 203.415871 318.99583 
L 203.415871 318.909356 
L 203.415871 318.756859 
L 202.422766 318.955259 
L 202.422766 318.846035 
L 202.422766 317.99014 
L 201.429661 318.194298 
L 201.429661 318.101987 
L 201.429661 317.632279 
L 200.436556 317.839932 
L 200.436556 317.744869 
L 200.436556 317.721015 
L 198.450346 318.11499 
L 198.450346 318.043935 
L 198.450346 317.635235 
L 197.457241 317.847422 
L 197.457241 317.750301 
L 197.457241 316.797545 
L 196.464135 316.990492 
L 196.464135 316.88736 
L 196.464135 316.388553 
L 195.47103 316.611193 
L 195.47103 316.504884 
L 195.47103 316.344147 
L 194.477925 316.56871 
L 194.477925 316.461327 
L 194.477925 315.886059 
L 193.48482 316.115018 
L 193.48482 316.003859 
L 193.48482 315.665964 
L 191.49861 316.102229 
L 191.49861 316.017579 
L 191.49861 314.511016 
L 190.505505 314.753513 
L 190.505505 314.661277 
L 190.505505 312.363212 
L 189.5124 312.62039 
L 189.5124 312.515829 
L 189.5124 312.480845 
L 188.519295 312.704493 
L 188.519295 312.599579 
L 188.519295 311.92118 
L 187.52619 312.18506 
L 187.52619 312.076342 
L 187.52619 311.410688 
L 186.533085 311.679733 
L 186.533085 311.567192 
L 186.533085 310.324317 
L 185.53998 310.602057 
L 185.53998 310.522185 
L 185.53998 310.240068 
L 184.546875 310.520559 
L 184.546875 310.439703 
L 184.546875 309.185882 
L 183.553769 309.475043 
L 183.553769 309.43214 
L 183.553769 308.147196 
L 182.560664 308.445019 
L 182.560664 308.353948 
L 182.560664 307.468457 
L 181.567559 307.772857 
L 181.567559 307.678029 
L 181.567559 307.630455 
L 180.574454 307.936407 
L 180.574454 307.84152 
L 180.574454 307.602421 
L 179.581349 307.863269 
L 179.581349 307.767243 
L 179.581349 307.573873 
L 178.588244 307.885367 
L 178.588244 307.78862 
L 178.588244 307.347703 
L 177.595139 307.663276 
L 177.595139 307.564661 
L 177.595139 307.465585 
L 176.602034 307.73374 
L 176.602034 307.634596 
L 176.602034 307.02983 
L 175.608929 307.352914 
L 175.608929 307.251086 
L 175.608929 306.151798 
L 174.615824 306.483308 
L 174.615824 306.376341 
L 174.615824 306.322661 
L 173.622719 306.656014 
L 173.622719 306.548946 
L 173.622719 306.333215 
L 172.629614 306.615564 
L 172.629614 306.507327 
L 172.629614 304.699065 
L 171.636509 305.048947 
L 171.636509 304.931686 
L 171.636509 304.754643 
L 170.643403 305.107349 
L 170.643403 305.04841 
L 170.643403 304.145394 
L 169.650298 304.505321 
L 169.650298 304.444229 
L 169.650298 304.321552 
L 168.657193 304.683658 
L 168.657193 304.622477 
L 168.657193 304.314079 
L 167.664088 304.679622 
L 167.664088 304.617853 
L 167.664088 303.280663 
L 166.670983 303.656563 
L 166.670983 303.591356 
L 166.670983 303.525965 
L 165.677878 303.903802 
L 165.677878 303.838668 
L 165.677878 303.642158 
L 164.684773 303.957415 
L 164.684773 303.891801 
L 164.684773 302.953174 
L 163.691668 303.342276 
L 163.691668 303.274235 
L 163.691668 301.285111 
L 162.698563 301.689442 
L 162.698563 301.61577 
L 162.698563 301.541872 
L 161.705458 301.948451 
L 161.705458 301.874836 
L 161.705458 301.800996 
L 160.712353 302.136294 
L 160.712353 302.062516 
L 160.712353 301.690186 
L 159.719248 302.10395 
L 159.719248 302.029317 
L 159.719248 301.652634 
L 158.726143 301.995385 
L 158.726143 301.919639 
L 158.726143 301.767427 
L 157.733037 302.189183 
L 157.733037 301.261956 
L 156.739932 301.691765 
L 156.739932 301.05797 
L 155.746827 301.493797 
L 155.746827 301.413986 
L 155.746827 300.929554 
L 154.753722 301.370969 
L 154.753722 301.289889 
L 154.753722 299.082664 
L 153.760617 299.542425 
L 153.760617 299.454179 
L 153.760617 297.143189 
L 152.767512 297.622134 
L 152.767512 297.525993 
L 152.767512 296.644587 
L 151.774407 297.132447 
L 151.774407 297.033409 
L 151.774407 296.834216 
L 148.795092 298.217549 
L 148.795092 297.921542 
L 147.801987 298.42208 
L 147.801987 298.323425 
L 147.801987 297.622134 
L 145.815777 298.541371 
L 145.815777 296.777029 
L 144.822671 297.304579 
L 144.822671 297.197871 
L 144.822671 296.875137 
L 143.829566 297.40827 
L 143.829566 297.300683 
L 143.829566 296.645801 
L 142.836461 297.187308 
L 142.836461 297.077472 
L 142.836461 296.856423 
L 141.843356 297.402902 
L 141.843356 297.292596 
L 141.843356 296.958887 
L 140.850251 297.511359 
L 140.850251 297.400115 
L 140.850251 294.950028 
L 138.864041 296.105086 
L 138.864041 295.984743 
L 138.864041 294.876987 
L 137.870936 295.468853 
L 137.870936 295.344025 
L 137.870936 294.838948 
L 136.877831 295.438946 
L 136.877831 295.312311 
L 136.877831 295.05727 
L 135.884726 295.663386 
L 135.884726 295.53609 
L 135.884726 294.095446 
L 134.891621 294.718231 
L 134.891621 294.450432 
L 132.905411 295.709853 
L 132.905411 295.577392 
L 132.905411 294.768859 
L 131.912305 295.411859 
L 131.912305 294.586568 
L 130.9192 295.240474 
L 130.9192 295.101796 
L 129.926095 295.760329 
L 129.926095 295.062921 
L 128.93299 295.731538 
L 128.93299 295.166048 
L 127.939885 295.843662 
L 127.939885 295.127062 
L 126.94678 295.815358 
L 126.94678 295.6712 
L 125.953675 296.364618 
L 125.953675 295.045256 
L 124.96057 295.755957 
L 124.96057 295.154708 
L 123.967465 295.875584 
L 123.967465 295.113005 
L 122.97436 295.845981 
L 122.97436 294.432781 
L 121.981255 295.185087 
L 121.981255 294.864423 
L 120.98815 295.624613 
L 120.98815 295.464631 
L 119.995045 296.231076 
L 119.995045 295.261931 
L 119.001939 296.043926 
L 119.001939 295.551755 
L 118.008834 296.34417 
L 118.008834 293.043798 
L 117.015729 293.879526 
L 117.015729 293.140854 
L 116.022624 293.990693 
L 116.022624 292.078476 
L 115.029519 292.956691 
L 115.029519 292.164164 
L 114.036414 293.057978 
L 114.036414 289.694987 
L 113.043309 290.635933 
L 113.043309 289.968712 
L 112.050204 290.924836 
L 112.050204 289.792771 
L 111.057099 290.770283 
L 111.057099 289.131 
L 109.070889 291.150852 
L 109.070889 285.212435 
L 108.077784 286.311875 
L 108.077784 283.376079 
L 106.091573 285.680604 
L 106.091573 284.770161 
L 105.098468 285.950874 
L 105.098468 282.427147 
L 104.105363 283.667285 
L 104.105363 282.306232 
L 103.112258 283.577709 
L 103.112258 281.090616 
L 101.126048 283.74414 
L 101.126048 283.019829 
L 100.132943 284.379061 
L 100.132943 281.361149 
L 99.139838 282.781505 
L 99.139838 282.390591 
L 98.146733 283.833579 
L 98.146733 279.283357 
L 97.153628 280.815707 
L 97.153628 279.934141 
L 96.160523 281.500132 
L 96.160523 281.058077 
L 95.167418 282.651703 
L 95.167418 282.211397 
L 92.188102 287.142833 
L 92.188102 276.907236 
L 91.194997 278.231301 
L 91.194997 269.337294 
L 90.201892 271.423881 
L 90.201892 270.71582 
L 88.215682 275.029145 
L 88.215682 272.906801 
L 87.222577 275.166488 
L 87.222577 263.650773 
L 85.236367 268.774619 
L 85.236367 266.90694 
L 84.243262 269.596096 
L 84.243262 268.649948 
L 83.250157 271.423881 
L 83.250157 267.494143 
L 82.257052 270.42901 
L 82.257052 269.40863 
L 81.263947 272.444592 
L 81.263947 271.423881 
L 80.270841 274.567671 
L 80.270841 270.316912 
L 79.277736 273.669445 
L 79.277736 257.87306 
L 78.284631 261.771893 
L 78.284631 258.56292 
L 77.291526 262.69113 
L 77.291526 247.503736 
L 76.298421 252.211828 
L 76.298421 247.662674 
L 75.305316 252.710843 
L 75.305316 250.337482 
L 74.312211 255.704929 
L 74.312211 253.286628 
L 72.326001 265.051333 
L 72.326001 241.612075 
L 71.332896 248.968235 
L 71.332896 245.225627 
L 70.339791 253.286628 
L 70.339791 240.669409 
L 69.346686 249.988946 
L 69.346686 227.760125 
L 68.353581 239.061333 
L 68.353581 215.284767 
L 67.360475 229.103625 
L 66.36737 245.225627 
L 65.374265 264.278902 
L 65.374265 192.829121 
L 64.38116 224.267025 
L 63.388055 271.423881 
L 62.39495 350.01864 
L 62.39495 350.01864 
L 62.39495 35.639602 
L 62.39495 35.639602 
" clip-path="url(#pb0e0cc169e)" style="fill: none; stroke: #009e73; stroke-width: 2.2; stroke-linecap: square"/>
   </g>
   <g id="line2d_26">
    <path d="M 42.880435 349.710578 
L 472.19976 349.710578 
" clip-path="url(#pb0e0cc169e)" style="fill: none; stroke-dasharray: 4.44,1.92; stroke-dashoffset: 0; stroke: #999999; stroke-width: 1.2"/>
   </g>
   <g id="patch_3">
    <path d="M 42.880435 365.737592 
L 42.880435 19.92065 
" style="fill: none; stroke: #000000; stroke-width: 0.8; stroke-linejoin: miter; stroke-linecap: square"/>
   </g>
   <g id="patch_4">
    <path d="M 42.880435 365.737592 
L 472.19976 365.737592 
" style="fill: none; stroke: #000000; stroke-width: 0.8; stroke-linejoin: miter; stroke-linecap: square"/>
   </g>
   <g id="text_15">
    <!-- Precision-recall (stack OOF), AP = 0.094 -->
    <g transform="translate(115.604941 13.92065) scale(0.15 -0.15)">
     <defs>
      <path id="Arial-BoldMT-33" d="M 466 0 
L 466 4581 
L 1950 4581 
Q 2794 4581 3050 4513 
Q 3444 4409 3709 4064 
Q 3975 3719 3975 3172 
Q 3975 2750 3822 2462 
Q 3669 2175 3433 2011 
Q 3197 1847 2953 1794 
Q 2622 1728 1994 1728 
L 1391 1728 
L 1391 0 
L 466 0 
z
M 1391 3806 
L 1391 2506 
L 1897 2506 
Q 2444 2506 2628 2578 
Q 2813 2650 2917 2803 
Q 3022 2956 3022 3159 
Q 3022 3409 2875 3571 
Q 2728 3734 2503 3775 
Q 2338 3806 1838 3806 
L 1391 3806 
z
" transform="scale(0.015625)"/>
      <path id="Arial-BoldMT-55" d="M 1300 0 
L 422 0 
L 422 3319 
L 1238 3319 
L 1238 2847 
Q 1447 3181 1614 3287 
Q 1781 3394 1994 3394 
Q 2294 3394 2572 3228 
L 2300 2463 
Q 2078 2606 1888 2606 
Q 1703 2606 1575 2504 
Q 1447 2403 1373 2137 
Q 1300 1872 1300 1025 
L 1300 0 
z
" transform="scale(0.015625)"/>
      <path id="Arial-BoldMT-48" d="M 2381 1056 
L 3256 909 
Q 3088 428 2723 176 
Q 2359 -75 1813 -75 
Q 947 -75 531 491 
Q 203 944 203 1634 
Q 203 2459 634 2926 
Q 1066 3394 1725 3394 
Q 2466 3394 2894 2905 
Q 3322 2416 3303 1406 
L 1103 1406 
Q 1113 1016 1316 798 
Q 1519 581 1822 581 
Q 2028 581 2168 693 
Q 2309 806 2381 1056 
z
M 2431 1944 
Q 2422 2325 2234 2523 
Q 2047 2722 1778 2722 
Q 1491 2722 1303 2513 
Q 1116 2303 1119 1944 
L 2431 1944 
z
" transform="scale(0.015625)"/>
      <path id="Arial-BoldMT-46" d="M 3353 2338 
L 2488 2181 
Q 2444 2441 2289 2572 
Q 2134 2703 1888 2703 
Q 1559 2703 1364 2476 
Q 1169 2250 1169 1719 
Q 1169 1128 1367 884 
Q 1566 641 1900 641 
Q 2150 641 2309 783 
Q 2469 925 2534 1272 
L 3397 1125 
Q 3263 531 2881 228 
Q 2500 -75 1859 -75 
Q 1131 -75 698 384 
Q 266 844 266 1656 
Q 266 2478 700 2936 
Q 1134 3394 1875 3394 
Q 2481 3394 2839 3133 
Q 3197 2872 3353 2338 
z
" transform="scale(0.015625)"/>
      <path id="Arial-BoldMT-4c" d="M 459 3769 
L 459 4581 
L 1338 4581 
L 1338 3769 
L 459 3769 
z
M 459 0 
L 459 3319 
L 1338 3319 
L 1338 0 
L 459 0 
z
" transform="scale(0.015625)"/>
      <path id="Arial-BoldMT-56" d="M 150 947 
L 1031 1081 
Q 1088 825 1259 692 
Q 1431 559 1741 559 
Q 2081 559 2253 684 
Q 2369 772 2369 919 
Q 2369 1019 2306 1084 
Q 2241 1147 2013 1200 
Q 950 1434 666 1628 
Q 272 1897 272 2375 
Q 272 2806 612 3100 
Q 953 3394 1669 3394 
Q 2350 3394 2681 3172 
Q 3013 2950 3138 2516 
L 2309 2363 
Q 2256 2556 2107 2659 
Q 1959 2763 1684 2763 
Q 1338 2763 1188 2666 
Q 1088 2597 1088 2488 
Q 1088 2394 1175 2328 
Q 1294 2241 1995 2081 
Q 2697 1922 2975 1691 
Q 3250 1456 3250 1038 
Q 3250 581 2869 253 
Q 2488 -75 1741 -75 
Q 1063 -75 667 200 
Q 272 475 150 947 
z
" transform="scale(0.015625)"/>
      <path id="Arial-BoldMT-52" d="M 256 1706 
Q 256 2144 472 2553 
Q 688 2963 1083 3178 
Q 1478 3394 1966 3394 
Q 2719 3394 3200 2905 
Q 3681 2416 3681 1669 
Q 3681 916 3195 420 
Q 2709 -75 1972 -75 
Q 1516 -75 1102 131 
Q 688 338 472 736 
Q 256 1134 256 1706 
z
M 1156 1659 
Q 1156 1166 1390 903 
Q 1625 641 1969 641 
Q 2313 641 2545 903 
Q 2778 1166 2778 1666 
Q 2778 2153 2545 2415 
Q 2313 2678 1969 2678 
Q 1625 2678 1390 2415 
Q 1156 2153 1156 1659 
z
" transform="scale(0.015625)"/>
      <path id="Arial-BoldMT-51" d="M 3478 0 
L 2600 0 
L 2600 1694 
Q 2600 2231 2544 2389 
Q 2488 2547 2361 2634 
Q 2234 2722 2056 2722 
Q 1828 2722 1647 2597 
Q 1466 2472 1398 2265 
Q 1331 2059 1331 1503 
L 1331 0 
L 453 0 
L 453 3319 
L 1269 3319 
L 1269 2831 
Q 1703 3394 2363 3394 
Q 2653 3394 2893 3289 
Q 3134 3184 3257 3021 
Q 3381 2859 3429 2653 
Q 3478 2447 3478 2063 
L 3478 0 
z
" transform="scale(0.015625)"/>
      <path id="Arial-BoldMT-10" d="M 359 1222 
L 359 2100 
L 2084 2100 
L 2084 1222 
L 359 1222 
z
" transform="scale(0.015625)"/>
      <path id="Arial-BoldMT-44" d="M 1116 2306 
L 319 2450 
Q 453 2931 781 3162 
Q 1109 3394 1756 3394 
Q 2344 3394 2631 3255 
Q 2919 3116 3036 2902 
Q 3153 2688 3153 2116 
L 3144 1091 
Q 3144 653 3186 445 
Q 3228 238 3344 0 
L 2475 0 
Q 2441 88 2391 259 
Q 2369 338 2359 363 
Q 2134 144 1878 34 
Q 1622 -75 1331 -75 
Q 819 -75 523 203 
Q 228 481 228 906 
Q 228 1188 362 1408 
Q 497 1628 739 1745 
Q 981 1863 1438 1950 
Q 2053 2066 2291 2166 
L 2291 2253 
Q 2291 2506 2166 2614 
Q 2041 2722 1694 2722 
Q 1459 2722 1328 2630 
Q 1197 2538 1116 2306 
z
M 2291 1594 
Q 2122 1538 1756 1459 
Q 1391 1381 1278 1306 
Q 1106 1184 1106 997 
Q 1106 813 1243 678 
Q 1381 544 1594 544 
Q 1831 544 2047 700 
Q 2206 819 2256 991 
Q 2291 1103 2291 1419 
L 2291 1594 
z
" transform="scale(0.015625)"/>
      <path id="Arial-BoldMT-4f" d="M 459 0 
L 459 4581 
L 1338 4581 
L 1338 0 
L 459 0 
z
" transform="scale(0.015625)"/>
      <path id="Arial-BoldMT-3" transform="scale(0.015625)"/>
      <path id="Arial-BoldMT-b" d="M 1916 -1347 
L 1313 -1347 
Q 834 -625 584 153 
Q 334 931 334 1659 
Q 334 2563 644 3369 
Q 913 4069 1325 4659 
L 1925 4659 
Q 1497 3713 1336 3048 
Q 1175 2384 1175 1641 
Q 1175 1128 1270 590 
Q 1366 53 1531 -431 
Q 1641 -750 1916 -1347 
z
" transform="scale(0.015625)"/>
      <path id="Arial-BoldMT-57" d="M 1981 3319 
L 1981 2619 
L 1381 2619 
L 1381 1281 
Q 1381 875 1398 808 
Q 1416 741 1477 697 
Q 1538 653 1625 653 
Q 1747 653 1978 738 
L 2053 56 
Q 1747 -75 1359 -75 
Q 1122 -75 931 4 
Q 741 84 652 211 
Q 563 338 528 553 
Q 500 706 500 1172 
L 500 2619 
L 97 2619 
L 97 3319 
L 500 3319 
L 500 3978 
L 1381 4491 
L 1381 3319 
L 1981 3319 
z
" transform="scale(0.015625)"/>
      <path id="Arial-BoldMT-4e" d="M 428 0 
L 428 4581 
L 1306 4581 
L 1306 2150 
L 2334 3319 
L 3416 3319 
L 2281 2106 
L 3497 0 
L 2550 0 
L 1716 1491 
L 1306 1063 
L 1306 0 
L 428 0 
z
" transform="scale(0.015625)"/>
      <path id="Arial-BoldMT-32" d="M 278 2263 
Q 278 2963 488 3438 
Q 644 3788 914 4066 
Q 1184 4344 1506 4478 
Q 1934 4659 2494 4659 
Q 3506 4659 4114 4031 
Q 4722 3403 4722 2284 
Q 4722 1175 4119 548 
Q 3516 -78 2506 -78 
Q 1484 -78 881 545 
Q 278 1169 278 2263 
z
M 1231 2294 
Q 1231 1516 1590 1114 
Q 1950 713 2503 713 
Q 3056 713 3411 1111 
Q 3766 1509 3766 2306 
Q 3766 3094 3420 3481 
Q 3075 3869 2503 3869 
Q 1931 3869 1581 3476 
Q 1231 3084 1231 2294 
z
" transform="scale(0.015625)"/>
      <path id="Arial-BoldMT-29" d="M 472 0 
L 472 4581 
L 3613 4581 
L 3613 3806 
L 1397 3806 
L 1397 2722 
L 3309 2722 
L 3309 1947 
L 1397 1947 
L 1397 0 
L 472 0 
z
" transform="scale(0.015625)"/>
      <path id="Arial-BoldMT-c" d="M 216 -1347 
Q 475 -791 581 -494 
Q 688 -197 778 190 
Q 869 578 912 926 
Q 956 1275 956 1641 
Q 956 2384 797 3048 
Q 638 3713 209 4659 
L 806 4659 
Q 1278 3988 1539 3234 
Q 1800 2481 1800 1706 
Q 1800 1053 1594 306 
Q 1359 -531 822 -1347 
L 216 -1347 
z
" transform="scale(0.015625)"/>
      <path id="Arial-BoldMT-f" d="M 438 878 
L 1316 878 
L 1316 250 
Q 1316 -131 1250 -351 
Q 1184 -572 1001 -747 
Q 819 -922 538 -1022 
L 366 -659 
Q 631 -572 743 -419 
Q 856 -266 863 0 
L 438 0 
L 438 878 
z
" transform="scale(0.015625)"/>
      <path id="Arial-BoldMT-24" d="M 4597 0 
L 3591 0 
L 3191 1041 
L 1359 1041 
L 981 0 
L 0 0 
L 1784 4581 
L 2763 4581 
L 4597 0 
z
M 2894 1813 
L 2263 3513 
L 1644 1813 
L 2894 1813 
z
" transform="scale(0.015625)"/>
      <path id="Arial-BoldMT-20" d="M 266 2550 
L 266 3356 
L 3469 3356 
L 3469 2550 
L 266 2550 
z
M 266 1163 
L 266 1972 
L 3469 1972 
L 3469 1163 
L 266 1163 
z
" transform="scale(0.015625)"/>
      <path id="Arial-BoldMT-13" d="M 1756 4600 
Q 2422 4600 2797 4125 
Q 3244 3563 3244 2259 
Q 3244 959 2794 391 
Q 2422 -78 1756 -78 
Q 1088 -78 678 436 
Q 269 950 269 2269 
Q 269 3563 719 4131 
Q 1091 4600 1756 4600 
z
M 1756 3872 
Q 1597 3872 1472 3770 
Q 1347 3669 1278 3406 
Q 1188 3066 1188 2259 
Q 1188 1453 1269 1151 
Q 1350 850 1473 750 
Q 1597 650 1756 650 
Q 1916 650 2041 751 
Q 2166 853 2234 1116 
Q 2325 1453 2325 2259 
Q 2325 3066 2244 3367 
Q 2163 3669 2039 3770 
Q 1916 3872 1756 3872 
z
" transform="scale(0.015625)"/>
      <path id="Arial-BoldMT-11" d="M 459 0 
L 459 878 
L 1338 878 
L 1338 0 
L 459 0 
z
" transform="scale(0.015625)"/>
      <path id="Arial-BoldMT-1c" d="M 291 1059 
L 1141 1153 
Q 1172 894 1303 769 
Q 1434 644 1650 644 
Q 1922 644 2112 894 
Q 2303 1144 2356 1931 
Q 2025 1547 1528 1547 
Q 988 1547 595 1964 
Q 203 2381 203 3050 
Q 203 3747 617 4173 
Q 1031 4600 1672 4600 
Q 2369 4600 2816 4061 
Q 3263 3522 3263 2288 
Q 3263 1031 2797 475 
Q 2331 -81 1584 -81 
Q 1047 -81 715 205 
Q 384 491 291 1059 
z
M 2278 2978 
Q 2278 3403 2083 3637 
Q 1888 3872 1631 3872 
Q 1388 3872 1227 3680 
Q 1066 3488 1066 3050 
Q 1066 2606 1241 2398 
Q 1416 2191 1678 2191 
Q 1931 2191 2104 2391 
Q 2278 2591 2278 2978 
z
" transform="scale(0.015625)"/>
      <path id="Arial-BoldMT-17" d="M 1994 0 
L 1994 922 
L 119 922 
L 119 1691 
L 2106 4600 
L 2844 4600 
L 2844 1694 
L 3413 1694 
L 3413 922 
L 2844 922 
L 2844 0 
L 1994 0 
z
M 1994 1694 
L 1994 3259 
L 941 1694 
L 1994 1694 
z
" transform="scale(0.015625)"/>
     </defs>
     <use xlink:href="#Arial-BoldMT-33"/>
     <use xlink:href="#Arial-BoldMT-55" transform="translate(66.703125 0)"/>
     <use xlink:href="#Arial-BoldMT-48" transform="translate(105.625 0)"/>
     <use xlink:href="#Arial-BoldMT-46" transform="translate(161.234375 0)"/>
     <use xlink:href="#Arial-BoldMT-4c" transform="translate(216.84375 0)"/>
     <use xlink:href="#Arial-BoldMT-56" transform="translate(244.625 0)"/>
     <use xlink:href="#Arial-BoldMT-4c" transform="translate(300.234375 0)"/>
     <use xlink:href="#Arial-BoldMT-52" transform="translate(328.015625 0)"/>
     <use xlink:href="#Arial-BoldMT-51" transform="translate(389.09375 0)"/>
     <use xlink:href="#Arial-BoldMT-10" transform="translate(450.171875 0)"/>
     <use xlink:href="#Arial-BoldMT-55" transform="translate(483.46875 0)"/>
     <use xlink:href="#Arial-BoldMT-48" transform="translate(522.390625 0)"/>
     <use xlink:href="#Arial-BoldMT-46" transform="translate(578 0)"/>
     <use xlink:href="#Arial-BoldMT-44" transform="translate(633.609375 0)"/>
     <use xlink:href="#Arial-BoldMT-4f" transform="translate(689.21875 0)"/>
     <use xlink:href="#Arial-BoldMT-4f" transform="translate(717 0)"/>
     <use xlink:href="#Arial-BoldMT-3" transform="translate(744.78125 0)"/>
     <use xlink:href="#Arial-BoldMT-b" transform="translate(772.5625 0)"/>
     <use xlink:href="#Arial-BoldMT-56" transform="translate(805.859375 0)"/>
     <use xlink:href="#Arial-BoldMT-57" transform="translate(861.46875 0)"/>
     <use xlink:href="#Arial-BoldMT-44" transform="translate(894.765625 0)"/>
     <use xlink:href="#Arial-BoldMT-46" transform="translate(950.375 0)"/>
     <use xlink:href="#Arial-BoldMT-4e" transform="translate(1005.984375 0)"/>
     <use xlink:href="#Arial-BoldMT-3" transform="translate(1061.59375 0)"/>
     <use xlink:href="#Arial-BoldMT-32" transform="translate(1089.375 0)"/>
     <use xlink:href="#Arial-BoldMT-32" transform="translate(1167.15625 0)"/>
     <use xlink:href="#Arial-BoldMT-29" transform="translate(1244.9375 0)"/>
     <use xlink:href="#Arial-BoldMT-c" transform="translate(1306.015625 0)"/>
     <use xlink:href="#Arial-BoldMT-f" transform="translate(1339.3125 0)"/>
     <use xlink:href="#Arial-BoldMT-3" transform="translate(1367.09375 0)"/>
     <use xlink:href="#Arial-BoldMT-24" transform="translate(1391.171875 0)"/>
     <use xlink:href="#Arial-BoldMT-33" transform="translate(1463.390625 0)"/>
     <use xlink:href="#Arial-BoldMT-3" transform="translate(1528.28125 0)"/>
     <use xlink:href="#Arial-BoldMT-20" transform="translate(1556.0625 0)"/>
     <use xlink:href="#Arial-BoldMT-3" transform="translate(1614.46875 0)"/>
     <use xlink:href="#Arial-BoldMT-13" transform="translate(1642.25 0)"/>
     <use xlink:href="#Arial-BoldMT-11" transform="translate(1697.859375 0)"/>
     <use xlink:href="#Arial-BoldMT-13" transform="translate(1725.640625 0)"/>
     <use xlink:href="#Arial-BoldMT-1c" transform="translate(1781.25 0)"/>
     <use xlink:href="#Arial-BoldMT-17" transform="translate(1836.859375 0)"/>
    </g>
   </g>
   <g id="PathCollection_1">
    <defs>
     <path id="m49e2b48b3f" d="M 0 3.872983 
C 1.027127 3.872983 2.012324 3.464901 2.738613 2.738613 
C 3.464901 2.012324 3.872983 1.027127 3.872983 0 
C 3.872983 -1.027127 3.464901 -2.012324 2.738613 -2.738613 
C 2.012324 -3.464901 1.027127 -3.872983 0 -3.872983 
C -1.027127 -3.872983 -2.012324 -3.464901 -2.738613 -2.738613 
C -3.464901 -2.012324 -3.872983 -1.027127 -3.872983 0 
C -3.872983 1.027127 -3.464901 2.012324 -2.738613 2.738613 
C -2.012324 3.464901 -1.027127 3.872983 0 3.872983 
z
" style="stroke: #d55e00"/>
    </defs>
    <g clip-path="url(#pb0e0cc169e)">
     <use xlink:href="#m49e2b48b3f" x="375.223049" y="344.900842" style="fill: #d55e00; stroke: #d55e00"/>
    </g>
   </g>
   <g id="legend_1">
    <g id="line2d_27">
     <path d="M 327.29976 35.256978 
L 339.29976 35.256978 
L 351.29976 35.256978 
" style="fill: none; stroke-dasharray: 4.44,1.92; stroke-dashoffset: 0; stroke: #999999; stroke-width: 1.2"/>
    </g>
    <g id="text_16">
     <!-- prevalence 0.0010 -->
     <g transform="translate(360.89976 39.456978) scale(0.12 -0.12)">
      <defs>
       <path id="ArialMT-53" d="M 422 -1272 
L 422 3319 
L 934 3319 
L 934 2888 
Q 1116 3141 1344 3267 
Q 1572 3394 1897 3394 
Q 2322 3394 2647 3175 
Q 2972 2956 3137 2557 
Q 3303 2159 3303 1684 
Q 3303 1175 3120 767 
Q 2938 359 2589 142 
Q 2241 -75 1856 -75 
Q 1575 -75 1351 44 
Q 1128 163 984 344 
L 984 -1272 
L 422 -1272 
z
M 931 1641 
Q 931 1000 1190 694 
Q 1450 388 1819 388 
Q 2194 388 2461 705 
Q 2728 1022 2728 1688 
Q 2728 2322 2467 2637 
Q 2206 2953 1844 2953 
Q 1484 2953 1207 2617 
Q 931 2281 931 1641 
z
" transform="scale(0.015625)"/>
      </defs>
      <use xlink:href="#ArialMT-53"/>
      <use xlink:href="#ArialMT-55" transform="translate(55.609375 0)"/>
      <use xlink:href="#ArialMT-48" transform="translate(88.90625 0)"/>
      <use xlink:href="#ArialMT-59" transform="translate(144.515625 0)"/>
      <use xlink:href="#ArialMT-44" transform="translate(194.515625 0)"/>
      <use xlink:href="#ArialMT-4f" transform="translate(250.125 0)"/>
      <use xlink:href="#ArialMT-48" transform="translate(272.34375 0)"/>
      <use xlink:href="#ArialMT-51" transform="translate(327.953125 0)"/>
      <use xlink:href="#ArialMT-46" transform="translate(383.5625 0)"/>
      <use xlink:href="#ArialMT-48" transform="translate(433.5625 0)"/>
      <use xlink:href="#ArialMT-3" transform="translate(489.171875 0)"/>
      <use xlink:href="#ArialMT-13" transform="translate(516.953125 0)"/>
      <use xlink:href="#ArialMT-11" transform="translate(572.5625 0)"/>
      <use xlink:href="#ArialMT-13" transform="translate(600.34375 0)"/>
      <use xlink:href="#ArialMT-13" transform="translate(655.953125 0)"/>
      <use xlink:href="#ArialMT-14" transform="translate(711.5625 0)"/>
      <use xlink:href="#ArialMT-13" transform="translate(767.171875 0)"/>
     </g>
    </g>
    <g id="PathCollection_2">
     <g>
      <use xlink:href="#m49e2b48b3f" x="339.29976" y="53.568697" style="fill: #d55e00; stroke: #d55e00"/>
     </g>
    </g>
    <g id="text_17">
     <!-- 80% TPR op. point -->
     <g transform="translate(360.89976 56.718697) scale(0.12 -0.12)">
      <defs>
       <path id="ArialMT-8" d="M 372 3481 
Q 372 3972 619 4315 
Q 866 4659 1334 4659 
Q 1766 4659 2048 4351 
Q 2331 4044 2331 3447 
Q 2331 2866 2045 2552 
Q 1759 2238 1341 2238 
Q 925 2238 648 2547 
Q 372 2856 372 3481 
z
M 1350 4272 
Q 1141 4272 1002 4090 
Q 863 3909 863 3425 
Q 863 2984 1003 2804 
Q 1144 2625 1350 2625 
Q 1563 2625 1702 2806 
Q 1841 2988 1841 3469 
Q 1841 3913 1700 4092 
Q 1559 4272 1350 4272 
z
M 1353 -169 
L 3859 4659 
L 4316 4659 
L 1819 -169 
L 1353 -169 
z
M 3334 1075 
Q 3334 1569 3581 1911 
Q 3828 2253 4300 2253 
Q 4731 2253 5014 1945 
Q 5297 1638 5297 1041 
Q 5297 459 5011 145 
Q 4725 -169 4303 -169 
Q 3888 -169 3611 142 
Q 3334 453 3334 1075 
z
M 4316 1866 
Q 4103 1866 3964 1684 
Q 3825 1503 3825 1019 
Q 3825 581 3965 400 
Q 4106 219 4313 219 
Q 4528 219 4667 400 
Q 4806 581 4806 1063 
Q 4806 1506 4665 1686 
Q 4525 1866 4316 1866 
z
" transform="scale(0.015625)"/>
       <path id="ArialMT-37" d="M 1659 0 
L 1659 4041 
L 150 4041 
L 150 4581 
L 3781 4581 
L 3781 4041 
L 2266 4041 
L 2266 0 
L 1659 0 
z
" transform="scale(0.015625)"/>
      </defs>
      <use xlink:href="#ArialMT-1b"/>
      <use xlink:href="#ArialMT-13" transform="translate(55.609375 0)"/>
      <use xlink:href="#ArialMT-8" transform="translate(111.21875 0)"/>
      <use xlink:href="#ArialMT-3" transform="translate(200.140625 0)"/>
      <use xlink:href="#ArialMT-37" transform="translate(226.109375 0)"/>
      <use xlink:href="#ArialMT-33" transform="translate(287.1875 0)"/>
      <use xlink:href="#ArialMT-35" transform="translate(353.890625 0)"/>
      <use xlink:href="#ArialMT-3" transform="translate(426.109375 0)"/>
      <use xlink:href="#ArialMT-52" transform="translate(453.890625 0)"/>
      <use xlink:href="#ArialMT-53" transform="translate(509.5 0)"/>
      <use xlink:href="#ArialMT-11" transform="translate(565.109375 0)"/>
      <use xlink:href="#ArialMT-3" transform="translate(592.890625 0)"/>
      <use xlink:href="#ArialMT-53" transform="translate(620.671875 0)"/>
      <use xlink:href="#ArialMT-52" transform="translate(676.28125 0)"/>
      <use xlink:href="#ArialMT-4c" transform="translate(731.890625 0)"/>
      <use xlink:href="#ArialMT-51" transform="translate(754.109375 0)"/>
      <use xlink:href="#ArialMT-57" transform="translate(809.71875 0)"/>
     </g>
    </g>
   </g>
  </g>
 </g>
 <defs>
  <clipPath id="pb0e0cc169e">
   <rect x="42.880435" y="19.92065" width="429.319325" height="345.816942"/>
  </clipPath>
 </defs>
</svg>
